<svg width="1474" height="783" viewBox="0 0 1474 783" fill="none" xmlns="http://www.w3.org/2000/svg">
<g clip-path="url(#clip0_851:2)">
<rect width="1474" height="783" fill="white"/>
<path d="M288.126 31.16H253.506V37.52H267.246V74H274.446V37.52H288.126V31.16ZM322.106 74V54.92C322.106 47.3 318.266 42.68 310.766 42.68C306.686 42.68 303.746 44.06 302.066 46.4H300.626V30.38H293.846V74H300.626V57.68C300.626 52.88 303.686 48.74 308.546 48.74C313.106 48.74 315.326 51.44 315.326 56.24V74H322.106ZM358.533 57.02C358.353 49.1 353.493 42.68 344.313 42.68C334.953 42.68 329.253 48.98 329.253 58.52C329.253 68.06 334.893 74.78 344.493 74.78C352.413 74.78 356.973 70.82 358.113 65.12H351.213C350.313 67.58 348.213 69.02 344.553 69.02C339.033 69.02 336.153 65.54 335.973 59.3H358.533V57.02ZM344.253 48.08C348.753 48.08 351.153 50.84 351.573 54.26H336.273C337.053 50.72 339.453 48.08 344.253 48.08ZM411.893 31.16V48.56H390.473V31.16H383.273V74H390.473V55.28H411.893V74H419.093V31.16H411.893ZM435.865 36.92V30.38H428.905V36.92H435.865ZM435.745 43.46H428.965V74H435.745V43.46ZM472.732 57.02C472.552 49.1 467.692 42.68 458.512 42.68C449.152 42.68 443.452 48.98 443.452 58.52C443.452 68.06 449.092 74.78 458.692 74.78C466.612 74.78 471.172 70.82 472.312 65.12H465.412C464.512 67.58 462.412 69.02 458.752 69.02C453.232 69.02 450.352 65.54 450.172 59.3H472.732V57.02ZM458.452 48.08C462.952 48.08 465.352 50.84 465.772 54.26H450.472C451.252 50.72 453.652 48.08 458.452 48.08ZM499.313 43.46H496.733C491.993 43.46 489.473 45.32 488.213 47H486.773V43.46H480.233V74H487.013V59.72C487.013 53.3 490.313 49.76 496.553 49.76H499.313V43.46ZM524.742 74H531.042V53.72C531.042 46.16 525.762 42.68 517.842 42.68C510.642 42.68 505.542 46.16 505.242 51.92H511.962C512.202 49.58 514.182 48.02 518.082 48.02C522.582 48.02 524.502 50.24 524.502 53.6V54.5H515.502C506.682 54.5 503.382 59.96 503.382 64.76C503.382 70.04 507.282 74.78 514.302 74.78C518.562 74.78 521.442 73.52 523.302 71.18H524.742V74ZM516.402 69.26C512.502 69.26 510.222 67.46 510.222 64.34C510.222 61.16 512.382 59.3 516.702 59.3H524.502V61.64C524.502 65.9 520.962 69.26 516.402 69.26ZM559.078 43.46H556.498C551.758 43.46 549.238 45.32 547.978 47H546.538V43.46H539.998V74H546.778V59.72C546.778 53.3 550.078 49.76 556.318 49.76H559.078V43.46ZM585.468 64.22C584.808 67.28 582.648 69.02 578.808 69.02C572.808 69.02 570.408 64.22 570.408 58.64C570.408 53.18 572.748 48.44 578.808 48.44C582.408 48.44 584.328 50.12 585.228 52.76H591.948C591.048 46.76 586.248 42.68 578.748 42.68C569.268 42.68 563.628 49.34 563.628 58.7C563.628 68.06 569.268 74.78 578.748 74.78C586.128 74.78 591.228 70.52 592.188 64.22H585.468ZM627.79 74V54.92C627.79 47.3 623.95 42.68 616.45 42.68C612.37 42.68 609.43 44.06 607.75 46.4H606.31V30.38H599.53V74H606.31V57.68C606.31 52.88 609.37 48.74 614.23 48.74C618.79 48.74 621.01 51.44 621.01 56.24V74H627.79ZM643.697 36.92V30.38H636.737V36.92H643.697ZM643.577 43.46H636.797V74H643.577V43.46ZM673.124 64.22C672.464 67.28 670.304 69.02 666.464 69.02C660.464 69.02 658.064 64.22 658.064 58.64C658.064 53.18 660.404 48.44 666.464 48.44C670.064 48.44 671.984 50.12 672.884 52.76H679.604C678.704 46.76 673.904 42.68 666.404 42.68C656.924 42.68 651.284 49.34 651.284 58.7C651.284 68.06 656.924 74.78 666.404 74.78C673.784 74.78 678.884 70.52 679.844 64.22H673.124ZM706.266 74H712.566V53.72C712.566 46.16 707.286 42.68 699.366 42.68C692.166 42.68 687.066 46.16 686.766 51.92H693.486C693.726 49.58 695.706 48.02 699.606 48.02C704.106 48.02 706.026 50.24 706.026 53.6V54.5H697.026C688.206 54.5 684.906 59.96 684.906 64.76C684.906 70.04 688.806 74.78 695.826 74.78C700.086 74.78 702.966 73.52 704.826 71.18H706.266V74ZM697.926 69.26C694.026 69.26 691.746 67.46 691.746 64.34C691.746 61.16 693.906 59.3 698.226 59.3H706.026V61.64C706.026 65.9 702.486 69.26 697.926 69.26ZM721.522 30.38V74H728.302V30.38H721.522ZM754.874 31.16V74H771.854C784.994 74 791.654 65.42 791.654 52.58C791.654 39.68 784.994 31.16 771.854 31.16H754.874ZM762.074 67.46V37.7H771.254C780.854 37.7 784.334 44.36 784.334 52.58C784.334 60.74 780.854 67.46 771.254 67.46H762.074ZM818.531 74H824.831V53.72C824.831 46.16 819.551 42.68 811.631 42.68C804.431 42.68 799.331 46.16 799.031 51.92H805.751C805.991 49.58 807.971 48.02 811.871 48.02C816.371 48.02 818.291 50.24 818.291 53.6V54.5H809.291C800.471 54.5 797.171 59.96 797.171 64.76C797.171 70.04 801.071 74.78 808.091 74.78C812.351 74.78 815.231 73.52 817.091 71.18H818.531V74ZM810.191 69.26C806.291 69.26 804.011 67.46 804.011 64.34C804.011 61.16 806.171 59.3 810.491 59.3H818.291V61.64C818.291 65.9 814.751 69.26 810.191 69.26ZM842.247 43.46V34.58H835.467V43.46H830.607V49.22H835.467V65C835.467 71.96 840.027 74 846.807 74H849.447V68.12H846.927C843.507 68.12 842.247 66.68 842.247 64.1V49.22H849.447V43.46H842.247ZM876.539 74H882.839V53.72C882.839 46.16 877.559 42.68 869.639 42.68C862.439 42.68 857.339 46.16 857.039 51.92H863.759C863.999 49.58 865.979 48.02 869.879 48.02C874.379 48.02 876.299 50.24 876.299 53.6V54.5H867.299C858.479 54.5 855.179 59.96 855.179 64.76C855.179 70.04 859.079 74.78 866.099 74.78C870.359 74.78 873.239 73.52 875.099 71.18H876.539V74ZM868.199 69.26C864.299 69.26 862.019 67.46 862.019 64.34C862.019 61.16 864.179 59.3 868.499 59.3H876.299V61.64C876.299 65.9 872.759 69.26 868.199 69.26ZM908.775 42.68C904.275 42.68 901.635 44.24 900.015 46.4H898.575V30.38H891.795V74H898.335V71.06H899.775C901.455 73.16 904.215 74.78 908.775 74.78C917.055 74.78 921.975 67.82 921.975 58.7C921.975 49.52 916.995 42.68 908.775 42.68ZM906.855 69.02C900.915 69.02 898.395 64.16 898.395 58.7C898.395 53.36 900.915 48.44 906.855 48.44C912.435 48.44 915.195 52.82 915.195 58.7C915.195 64.64 912.435 69.02 906.855 69.02ZM948.61 74H954.91V53.72C954.91 46.16 949.63 42.68 941.71 42.68C934.51 42.68 929.41 46.16 929.11 51.92H935.83C936.07 49.58 938.05 48.02 941.95 48.02C946.45 48.02 948.37 50.24 948.37 53.6V54.5H939.37C930.55 54.5 927.25 59.96 927.25 64.76C927.25 70.04 931.15 74.78 938.17 74.78C942.43 74.78 945.31 73.52 947.17 71.18H948.61V74ZM940.27 69.26C936.37 69.26 934.09 67.46 934.09 64.34C934.09 61.16 936.25 59.3 940.57 59.3H948.37V61.64C948.37 65.9 944.83 69.26 940.27 69.26ZM987.746 51.62C987.086 46.28 982.646 42.68 975.206 42.68C966.566 42.68 962.666 46.82 962.666 51.98C962.666 56.78 965.906 59.24 970.466 60.02L976.826 61.1C980.366 61.76 981.806 62.84 981.806 65.18C981.806 68 979.286 69.14 975.386 69.14C971.366 69.14 968.846 67.88 968.306 64.76H961.526C962.186 70.82 966.566 74.78 975.506 74.78C984.146 74.78 988.586 70.1 988.586 65C988.586 59.3 984.866 56.42 979.286 55.52L973.346 54.56C970.766 54.14 969.446 53.48 969.446 51.5C969.446 49.28 971.666 48.32 974.966 48.32C978.086 48.32 980.546 49.04 980.966 51.62H987.746ZM1023.22 57.02C1023.04 49.1 1018.18 42.68 1009 42.68C999.641 42.68 993.941 48.98 993.941 58.52C993.941 68.06 999.581 74.78 1009.18 74.78C1017.1 74.78 1021.66 70.82 1022.8 65.12H1015.9C1015 67.58 1012.9 69.02 1009.24 69.02C1003.72 69.02 1000.84 65.54 1000.66 59.3H1023.22V57.02ZM1008.94 48.08C1013.44 48.08 1015.84 50.84 1016.26 54.26H1000.96C1001.74 50.72 1004.14 48.08 1008.94 48.08ZM1047.96 74H1054.8V39.74H1056.24L1065.24 58.52H1072.56L1081.62 39.74H1083.06V74H1089.9V31.16H1078.44L1069.68 49.82H1068.24L1059.36 31.16H1047.96V74ZM1113.36 42.68C1103.76 42.68 1097.94 49.4 1097.94 58.7C1097.94 68.06 1103.76 74.78 1113.36 74.78C1122.96 74.78 1128.78 68.06 1128.78 58.7C1128.78 49.4 1122.96 42.68 1113.36 42.68ZM1113.36 69.02C1107.42 69.02 1104.72 64.16 1104.72 58.7C1104.72 53.36 1107.42 48.44 1113.36 48.44C1119.3 48.44 1122 53.36 1122 58.7C1122 64.16 1119.3 69.02 1113.36 69.02ZM1147.77 42.68C1139.55 42.68 1134.57 49.52 1134.57 58.7C1134.57 67.82 1139.49 74.78 1147.77 74.78C1152.33 74.78 1155.09 73.16 1156.77 71.06H1158.21V74H1164.75V30.38H1157.97V46.4H1156.53C1154.91 44.24 1152.27 42.68 1147.77 42.68ZM1149.69 69.02C1144.11 69.02 1141.35 64.64 1141.35 58.7C1141.35 52.82 1144.11 48.44 1149.69 48.44C1155.63 48.44 1158.15 53.36 1158.15 58.7C1158.15 64.16 1155.63 69.02 1149.69 69.02ZM1201.58 57.02C1201.4 49.1 1196.54 42.68 1187.36 42.68C1178 42.68 1172.3 48.98 1172.3 58.52C1172.3 68.06 1177.94 74.78 1187.54 74.78C1195.46 74.78 1200.02 70.82 1201.16 65.12H1194.26C1193.36 67.58 1191.26 69.02 1187.6 69.02C1182.08 69.02 1179.2 65.54 1179.02 59.3H1201.58V57.02ZM1187.3 48.08C1191.8 48.08 1194.2 50.84 1194.62 54.26H1179.32C1180.1 50.72 1182.5 48.08 1187.3 48.08ZM1209.08 30.38V74H1215.86V30.38H1209.08Z" fill="#274867"/>
<rect x="524" y="132" width="426" height="133" rx="16" fill="#274867"/>
<path d="M614.995 185.44V214H618.595V202.04H626.915C627.675 202.04 628.475 202 629.235 201.92L633.515 214H637.235L632.675 201.08C635.555 199.8 637.035 197.28 637.035 193.76C637.035 188.52 633.675 185.44 627.635 185.44H614.995ZM618.595 198.84V188.64H627.115C631.715 188.64 633.395 190.56 633.395 193.76C633.395 196.92 631.715 198.84 627.115 198.84H618.595ZM651.675 193.32C645.355 193.32 641.755 197.96 641.755 203.92C641.755 209.88 645.355 214.52 651.675 214.52C657.955 214.52 661.595 209.88 661.595 203.92C661.595 197.96 657.955 193.32 651.675 193.32ZM651.675 211.56C647.195 211.56 645.155 207.88 645.155 203.92C645.155 199.96 647.195 196.28 651.675 196.28C656.115 196.28 658.195 199.96 658.195 203.92C658.195 207.88 656.115 211.56 651.675 211.56ZM675.581 193.32C669.261 193.32 665.661 197.96 665.661 203.92C665.661 209.88 669.261 214.52 675.581 214.52C681.861 214.52 685.501 209.88 685.501 203.92C685.501 197.96 681.861 193.32 675.581 193.32ZM675.581 211.56C671.101 211.56 669.061 207.88 669.061 203.92C669.061 199.96 671.101 196.28 675.581 196.28C680.021 196.28 682.101 199.96 682.101 203.92C682.101 207.88 680.021 211.56 675.581 211.56ZM695.487 193.84V187.76H692.087V193.84H688.607V196.8H692.087V208.36C692.087 212.64 694.647 214 699.007 214H700.567V210.96H699.087C696.367 210.96 695.487 209.92 695.487 207.88V196.8H700.567V193.84H695.487ZM719.132 201.52C719.132 193.6 722.092 188 725.292 183.64H722.012C718.732 187.8 715.932 193.64 715.932 201.52C715.932 209.48 718.812 215.52 722.292 219.64H725.572C722.292 215.28 719.132 209.56 719.132 201.52ZM738.73 196.28C742.77 196.28 744.93 199.44 744.93 203.92C744.93 208.4 742.77 211.56 738.73 211.56C734.25 211.56 732.41 207.88 732.41 203.92C732.41 199.96 734.25 196.28 738.73 196.28ZM729.05 193.84V222H732.45V211.84H733.33C734.41 213.28 736.29 214.52 739.49 214.52C745.05 214.52 748.33 210 748.33 203.92C748.33 197.96 745.05 193.32 739.49 193.32C736.29 193.32 734.33 194.6 733.21 196H732.33V193.84H729.05ZM766.499 214H769.699V200.28C769.699 195.76 766.459 193.32 761.379 193.32C756.859 193.32 753.659 195.48 753.379 199.2H756.779C756.939 197.44 758.459 196.28 761.459 196.28C764.979 196.28 766.379 198.04 766.379 200.48V201.28H759.819C754.219 201.28 752.099 204.72 752.099 207.96C752.099 211.4 754.699 214.52 759.339 214.52C762.219 214.52 764.379 213.44 765.619 211.88H766.499V214ZM760.179 211.56C757.179 211.56 755.499 210.12 755.499 207.84C755.499 205.44 757.019 204 760.339 204H766.379V205.84C766.379 209.04 763.539 211.56 760.179 211.56ZM787.445 193.84H785.925C783.005 193.84 781.085 195 780.085 196.24H779.205V193.84H775.925V214H779.325V203.92C779.325 199.48 781.765 197.04 785.765 197.04H787.445V193.84ZM809.381 202.72C809.261 197.76 806.381 193.32 800.381 193.32C794.261 193.32 790.661 197.52 790.661 203.72C790.661 209.92 794.181 214.52 800.461 214.52C805.461 214.52 808.381 211.88 809.021 208.44H805.581C804.981 210.36 803.301 211.56 800.461 211.56C796.301 211.56 794.141 208.68 794.021 203.88H809.381V202.72ZM800.301 196.28C803.701 196.28 805.661 198.48 805.861 201.04H794.221C794.661 198.48 796.661 196.28 800.301 196.28ZM832.595 214V201.2C832.595 196.36 829.875 193.32 824.915 193.32C822.195 193.32 819.955 194.44 818.835 196H817.955V193.84H814.675V214H818.075V203.08C818.075 199.52 820.475 196.36 824.075 196.36C827.475 196.36 829.195 198.2 829.195 201.92V214H832.595ZM843.495 193.84V187.76H840.095V193.84H836.615V196.8H840.095V208.36C840.095 212.64 842.655 214 847.015 214H848.575V210.96H847.095C844.375 210.96 843.495 209.92 843.495 207.88V196.8H848.575V193.84H843.495ZM857.527 201.52C857.527 209.56 854.367 215.28 851.087 219.64H854.367C857.847 215.52 860.727 209.48 860.727 201.52C860.727 193.64 857.927 187.8 854.647 183.64H851.367C854.567 188 857.527 193.6 857.527 201.52Z" fill="white"/>
<line x1="227" y1="319" x2="1248" y2="319" stroke="#274867" stroke-width="4"/>
<line x1="228" y1="317" x2="228" y2="377" stroke="#274867" stroke-width="4"/>
<rect x="13" y="627" width="194" height="133" rx="16" fill="#007BFF"/>
<rect x="245" y="627" width="194" height="133" rx="16" fill="#007BFF"/>
<path d="M49.3494 705.6V680.44H45.7494V709H65.3894V705.6H49.3494ZM87.4788 697.72C87.3588 692.76 84.4788 688.32 78.4787 688.32C72.3588 688.32 68.7588 692.52 68.7588 698.72C68.7588 704.92 72.2788 709.52 78.5588 709.52C83.5588 709.52 86.4788 706.88 87.1188 703.44H83.6788C83.0788 705.36 81.3988 706.56 78.5588 706.56C74.3988 706.56 72.2388 703.68 72.1188 698.88H87.4788V697.72ZM78.3988 691.28C81.7988 691.28 83.7588 693.48 83.9588 696.04H72.3188C72.7588 693.48 74.7588 691.28 78.3988 691.28ZM97.0522 709H103.412L110.172 688.84H106.612L101.172 705.8H99.5322L93.8922 688.84H90.3722L97.0522 709ZM131.502 697.72C131.382 692.76 128.502 688.32 122.502 688.32C116.382 688.32 112.782 692.52 112.782 698.72C112.782 704.92 116.302 709.52 122.582 709.52C127.582 709.52 130.502 706.88 131.142 703.44H127.702C127.102 705.36 125.422 706.56 122.582 706.56C118.422 706.56 116.262 703.68 116.142 698.88H131.502V697.72ZM122.422 691.28C125.822 691.28 127.782 693.48 127.982 696.04H116.342C116.782 693.48 118.782 691.28 122.422 691.28ZM136.796 679.92V709H140.196V679.92H136.796ZM160.249 688.72C160.609 685.2 162.809 683.56 165.969 683.56C169.369 683.56 171.609 685.44 171.609 688.96C171.609 692.28 169.169 694.56 167.249 696.28C165.769 697.64 163.129 699.88 160.889 701.68L156.769 705.04V709H176.009V705.88H161.889V705L168.929 699.08C172.249 696.32 175.129 692.76 175.129 688.96C175.129 683.36 171.289 680.44 166.049 680.44C161.089 680.44 157.049 683.12 156.729 688.72H160.249Z" fill="white"/>
<path d="M281.349 705.6V680.44H277.749V709H297.389V705.6H281.349ZM319.479 697.72C319.359 692.76 316.479 688.32 310.479 688.32C304.359 688.32 300.759 692.52 300.759 698.72C300.759 704.92 304.279 709.52 310.559 709.52C315.559 709.52 318.479 706.88 319.119 703.44H315.679C315.079 705.36 313.399 706.56 310.559 706.56C306.399 706.56 304.239 703.68 304.119 698.88H319.479V697.72ZM310.399 691.28C313.799 691.28 315.759 693.48 315.959 696.04H304.319C304.759 693.48 306.759 691.28 310.399 691.28ZM329.052 709H335.412L342.172 688.84H338.612L333.172 705.8H331.532L325.892 688.84H322.372L329.052 709ZM363.502 697.72C363.382 692.76 360.502 688.32 354.502 688.32C348.382 688.32 344.782 692.52 344.782 698.72C344.782 704.92 348.302 709.52 354.582 709.52C359.582 709.52 362.502 706.88 363.142 703.44H359.702C359.102 705.36 357.422 706.56 354.582 706.56C350.422 706.56 348.262 703.68 348.142 698.88H363.502V697.72ZM354.422 691.28C357.822 691.28 359.782 693.48 359.982 696.04H348.342C348.782 693.48 350.782 691.28 354.422 691.28ZM368.796 679.92V709H372.196V679.92H368.796ZM392.249 688.72C392.609 685.2 394.809 683.56 397.969 683.56C401.369 683.56 403.609 685.44 403.609 688.96C403.609 692.28 401.169 694.56 399.249 696.28C397.769 697.64 395.129 699.88 392.889 701.68L388.769 705.04V709H408.009V705.88H393.889V705L400.929 699.08C404.249 696.32 407.129 692.76 407.129 688.96C407.129 683.36 403.289 680.44 398.049 680.44C393.089 680.44 389.049 683.12 388.729 688.72H392.249Z" fill="white"/>
<line x1="112" y1="567" x2="112" y2="627" stroke="#274867" stroke-width="4"/>
<line x1="346" y1="569" x2="110" y2="569" stroke="#274867" stroke-width="4"/>
<line x1="228" y1="507" x2="228" y2="567" stroke="#274867" stroke-width="4"/>
<line x1="344" y1="567" x2="344" y2="627" stroke="#274867" stroke-width="4"/>
<rect x="524" y="627" width="194" height="133" rx="16" fill="#007BFF"/>
<rect x="756" y="627" width="194" height="133" rx="16" fill="#007BFF"/>
<path d="M560.349 705.6V680.44H556.749V709H576.389V705.6H560.349ZM598.479 697.72C598.359 692.76 595.479 688.32 589.479 688.32C583.359 688.32 579.759 692.52 579.759 698.72C579.759 704.92 583.279 709.52 589.559 709.52C594.559 709.52 597.479 706.88 598.119 703.44H594.679C594.079 705.36 592.399 706.56 589.559 706.56C585.399 706.56 583.239 703.68 583.119 698.88H598.479V697.72ZM589.399 691.28C592.799 691.28 594.759 693.48 594.959 696.04H583.319C583.759 693.48 585.759 691.28 589.399 691.28ZM608.052 709H614.412L621.172 688.84H617.612L612.172 705.8H610.532L604.892 688.84H601.372L608.052 709ZM642.502 697.72C642.382 692.76 639.502 688.32 633.502 688.32C627.382 688.32 623.782 692.52 623.782 698.72C623.782 704.92 627.302 709.52 633.582 709.52C638.582 709.52 641.502 706.88 642.142 703.44H638.702C638.102 705.36 636.422 706.56 633.582 706.56C629.422 706.56 627.262 703.68 627.142 698.88H642.502V697.72ZM633.422 691.28C636.822 691.28 638.782 693.48 638.982 696.04H627.342C627.782 693.48 629.782 691.28 633.422 691.28ZM647.796 679.92V709H651.196V679.92H647.796ZM671.249 688.72C671.609 685.2 673.809 683.56 676.969 683.56C680.369 683.56 682.609 685.44 682.609 688.96C682.609 692.28 680.169 694.56 678.249 696.28C676.769 697.64 674.129 699.88 671.889 701.68L667.769 705.04V709H687.009V705.88H672.889V705L679.929 699.08C683.249 696.32 686.129 692.76 686.129 688.96C686.129 683.36 682.289 680.44 677.049 680.44C672.089 680.44 668.049 683.12 667.729 688.72H671.249Z" fill="white"/>
<path d="M792.349 705.6V680.44H788.749V709H808.389V705.6H792.349ZM830.479 697.72C830.359 692.76 827.479 688.32 821.479 688.32C815.359 688.32 811.759 692.52 811.759 698.72C811.759 704.92 815.279 709.52 821.559 709.52C826.559 709.52 829.479 706.88 830.119 703.44H826.679C826.079 705.36 824.399 706.56 821.559 706.56C817.399 706.56 815.239 703.68 815.119 698.88H830.479V697.72ZM821.399 691.28C824.799 691.28 826.759 693.48 826.959 696.04H815.319C815.759 693.48 817.759 691.28 821.399 691.28ZM840.052 709H846.412L853.172 688.84H849.612L844.172 705.8H842.532L836.892 688.84H833.372L840.052 709ZM874.502 697.72C874.382 692.76 871.502 688.32 865.502 688.32C859.382 688.32 855.782 692.52 855.782 698.72C855.782 704.92 859.302 709.52 865.582 709.52C870.582 709.52 873.502 706.88 874.142 703.44H870.702C870.102 705.36 868.422 706.56 865.582 706.56C861.422 706.56 859.262 703.68 859.142 698.88H874.502V697.72ZM865.422 691.28C868.822 691.28 870.782 693.48 870.982 696.04H859.342C859.782 693.48 861.782 691.28 865.422 691.28ZM879.796 679.92V709H883.196V679.92H879.796ZM903.249 688.72C903.609 685.2 905.809 683.56 908.969 683.56C912.369 683.56 914.609 685.44 914.609 688.96C914.609 692.28 912.169 694.56 910.249 696.28C908.769 697.64 906.129 699.88 903.889 701.68L899.769 705.04V709H919.009V705.88H904.889V705L911.929 699.08C915.249 696.32 918.129 692.76 918.129 688.96C918.129 683.36 914.289 680.44 909.049 680.44C904.089 680.44 900.049 683.12 899.729 688.72H903.249Z" fill="white"/>
<line x1="623" y1="567" x2="623" y2="627" stroke="#274867" stroke-width="4"/>
<line x1="857" y1="569" x2="621" y2="569" stroke="#274867" stroke-width="4"/>
<line x1="739" y1="507" x2="739" y2="567" stroke="#274867" stroke-width="4"/>
<line x1="855" y1="567" x2="855" y2="627" stroke="#274867" stroke-width="4"/>
<rect x="1035" y="627" width="194" height="133" rx="16" fill="#007BFF"/>
<rect x="1267" y="627" width="194" height="133" rx="16" fill="#007BFF"/>
<path d="M1071.35 705.6V680.44H1067.75V709H1087.39V705.6H1071.35ZM1109.48 697.72C1109.36 692.76 1106.48 688.32 1100.48 688.32C1094.36 688.32 1090.76 692.52 1090.76 698.72C1090.76 704.92 1094.28 709.52 1100.56 709.52C1105.56 709.52 1108.48 706.88 1109.12 703.44H1105.68C1105.08 705.36 1103.4 706.56 1100.56 706.56C1096.4 706.56 1094.24 703.68 1094.12 698.88H1109.48V697.72ZM1100.4 691.28C1103.8 691.28 1105.76 693.48 1105.96 696.04H1094.32C1094.76 693.48 1096.76 691.28 1100.4 691.28ZM1119.05 709H1125.41L1132.17 688.84H1128.61L1123.17 705.8H1121.53L1115.89 688.84H1112.37L1119.05 709ZM1153.5 697.72C1153.38 692.76 1150.5 688.32 1144.5 688.32C1138.38 688.32 1134.78 692.52 1134.78 698.72C1134.78 704.92 1138.3 709.52 1144.58 709.52C1149.58 709.52 1152.5 706.88 1153.14 703.44H1149.7C1149.1 705.36 1147.42 706.56 1144.58 706.56C1140.42 706.56 1138.26 703.68 1138.14 698.88H1153.5V697.72ZM1144.42 691.28C1147.82 691.28 1149.78 693.48 1149.98 696.04H1138.34C1138.78 693.48 1140.78 691.28 1144.42 691.28ZM1158.8 679.92V709H1162.2V679.92H1158.8ZM1182.25 688.72C1182.61 685.2 1184.81 683.56 1187.97 683.56C1191.37 683.56 1193.61 685.44 1193.61 688.96C1193.61 692.28 1191.17 694.56 1189.25 696.28C1187.77 697.64 1185.13 699.88 1182.89 701.68L1178.77 705.04V709H1198.01V705.88H1183.89V705L1190.93 699.08C1194.25 696.32 1197.13 692.76 1197.13 688.96C1197.13 683.36 1193.29 680.44 1188.05 680.44C1183.09 680.44 1179.05 683.12 1178.73 688.72H1182.25Z" fill="white"/>
<path d="M1303.35 705.6V680.44H1299.75V709H1319.39V705.6H1303.35ZM1341.48 697.72C1341.36 692.76 1338.48 688.32 1332.48 688.32C1326.36 688.32 1322.76 692.52 1322.76 698.72C1322.76 704.92 1326.28 709.52 1332.56 709.52C1337.56 709.52 1340.48 706.88 1341.12 703.44H1337.68C1337.08 705.36 1335.4 706.56 1332.56 706.56C1328.4 706.56 1326.24 703.68 1326.12 698.88H1341.48V697.72ZM1332.4 691.28C1335.8 691.28 1337.76 693.48 1337.96 696.04H1326.32C1326.76 693.48 1328.76 691.28 1332.4 691.28ZM1351.05 709H1357.41L1364.17 688.84H1360.61L1355.17 705.8H1353.53L1347.89 688.84H1344.37L1351.05 709ZM1385.5 697.72C1385.38 692.76 1382.5 688.32 1376.5 688.32C1370.38 688.32 1366.78 692.52 1366.78 698.72C1366.78 704.92 1370.3 709.52 1376.58 709.52C1381.58 709.52 1384.5 706.88 1385.14 703.44H1381.7C1381.1 705.36 1379.42 706.56 1376.58 706.56C1372.42 706.56 1370.26 703.68 1370.14 698.88H1385.5V697.72ZM1376.42 691.28C1379.82 691.28 1381.78 693.48 1381.98 696.04H1370.34C1370.78 693.48 1372.78 691.28 1376.42 691.28ZM1390.8 679.92V709H1394.2V679.92H1390.8ZM1414.25 688.72C1414.61 685.2 1416.81 683.56 1419.97 683.56C1423.37 683.56 1425.61 685.44 1425.61 688.96C1425.61 692.28 1423.17 694.56 1421.25 696.28C1419.77 697.64 1417.13 699.88 1414.89 701.68L1410.77 705.04V709H1430.01V705.88H1415.89V705L1422.93 699.08C1426.25 696.32 1429.13 692.76 1429.13 688.96C1429.13 683.36 1425.29 680.44 1420.05 680.44C1415.09 680.44 1411.05 683.12 1410.73 688.72H1414.25Z" fill="white"/>
<line x1="1134" y1="567" x2="1134" y2="627" stroke="#274867" stroke-width="4"/>
<line x1="1368" y1="569" x2="1132" y2="569" stroke="#274867" stroke-width="4"/>
<line x1="1250" y1="507" x2="1250" y2="567" stroke="#274867" stroke-width="4"/>
<line x1="1366" y1="567" x2="1366" y2="627" stroke="#274867" stroke-width="4"/>
<line x1="1250" y1="317" x2="1250" y2="377" stroke="#274867" stroke-width="4"/>
<line x1="738" y1="265" x2="738" y2="379" stroke="#274867" stroke-width="4"/>
<rect x="15" y="376" width="422" height="129" rx="14" fill="white" stroke="#007BFF" stroke-width="4"/>
<rect x="1037" y="376" width="422" height="129" rx="14" fill="white" stroke="#007BFF" stroke-width="4"/>
<path d="M102.361 452.6V427.44H98.7611V456H118.401V452.6H102.361ZM140.49 444.72C140.37 439.76 137.49 435.32 131.49 435.32C125.37 435.32 121.77 439.52 121.77 445.72C121.77 451.92 125.29 456.52 131.57 456.52C136.57 456.52 139.49 453.88 140.13 450.44H136.69C136.09 452.36 134.41 453.56 131.57 453.56C127.41 453.56 125.25 450.68 125.13 445.88H140.49V444.72ZM131.41 438.28C134.81 438.28 136.77 440.48 136.97 443.04H125.33C125.77 440.48 127.77 438.28 131.41 438.28ZM150.064 456H156.424L163.184 435.84H159.624L154.184 452.8H152.544L146.904 435.84H143.384L150.064 456ZM184.514 444.72C184.394 439.76 181.514 435.32 175.514 435.32C169.394 435.32 165.794 439.52 165.794 445.72C165.794 451.92 169.314 456.52 175.594 456.52C180.594 456.52 183.514 453.88 184.154 450.44H180.714C180.114 452.36 178.434 453.56 175.594 453.56C171.434 453.56 169.274 450.68 169.154 445.88H184.514V444.72ZM175.434 438.28C178.834 438.28 180.794 440.48 180.994 443.04H169.354C169.794 440.48 171.794 438.28 175.434 438.28ZM189.807 426.92V456H193.207V426.92H189.807ZM209.981 456H226.261V452.88H220.141V428H215.781L209.941 431.96V435.64L215.821 431.68H216.621V452.88H209.981V456ZM232.897 443.52C232.897 435.6 235.857 430 239.057 425.64H235.777C232.497 429.8 229.697 435.64 229.697 443.52C229.697 451.48 232.577 457.52 236.057 461.64H239.337C236.057 457.28 232.897 451.56 232.897 443.52ZM256.065 449.92C255.545 452.16 253.865 453.56 250.985 453.56C246.465 453.56 244.585 449.88 244.585 445.84C244.585 441.84 246.425 438.28 250.985 438.28C253.745 438.28 255.305 439.64 255.945 441.68H259.345C258.665 437.96 255.785 435.32 250.985 435.32C244.705 435.32 241.185 439.84 241.185 445.92C241.185 451.88 244.705 456.52 250.985 456.52C255.665 456.52 258.705 453.88 259.465 449.92H256.065ZM282.454 456V443.2C282.454 438.36 279.734 435.32 274.814 435.32C272.094 435.32 269.894 436.44 268.814 438H267.934V426.92H264.534V456H267.934V445.08C267.934 441.52 270.334 438.36 273.934 438.36C277.334 438.36 279.054 440.28 279.054 443.92V456H282.454ZM292.275 430.6V426.92H288.675V430.6H292.275ZM292.155 435.84H288.755V456H292.155V435.84ZM298.831 426.92V456H302.231V426.92H298.831ZM323.432 426.92V438H322.552C321.432 436.56 319.592 435.32 316.392 435.32C310.832 435.32 307.552 439.84 307.552 445.92C307.552 451.88 310.832 456.52 316.392 456.52C319.592 456.52 321.552 455.24 322.672 453.84H323.552V456H326.832V426.92H323.432ZM317.152 453.56C313.112 453.56 310.952 450.4 310.952 445.92C310.952 441.44 313.112 438.28 317.152 438.28C321.632 438.28 323.472 441.96 323.472 445.92C323.472 449.88 321.632 453.56 317.152 453.56ZM336.761 443.52C336.761 451.56 333.601 457.28 330.321 461.64H333.601C337.081 457.52 339.961 451.48 339.961 443.52C339.961 435.64 337.161 429.8 333.881 425.64H330.601C333.801 430 336.761 435.6 336.761 443.52Z" fill="#274867"/>
<path d="M1131.36 452.6V427.44H1127.76V456H1147.4V452.6H1131.36ZM1169.49 444.72C1169.37 439.76 1166.49 435.32 1160.49 435.32C1154.37 435.32 1150.77 439.52 1150.77 445.72C1150.77 451.92 1154.29 456.52 1160.57 456.52C1165.57 456.52 1168.49 453.88 1169.13 450.44H1165.69C1165.09 452.36 1163.41 453.56 1160.57 453.56C1156.41 453.56 1154.25 450.68 1154.13 445.88H1169.49V444.72ZM1160.41 438.28C1163.81 438.28 1165.77 440.48 1165.97 443.04H1154.33C1154.77 440.48 1156.77 438.28 1160.41 438.28ZM1179.06 456H1185.42L1192.18 435.84H1188.62L1183.18 452.8H1181.54L1175.9 435.84H1172.38L1179.06 456ZM1213.51 444.72C1213.39 439.76 1210.51 435.32 1204.51 435.32C1198.39 435.32 1194.79 439.52 1194.79 445.72C1194.79 451.92 1198.31 456.52 1204.59 456.52C1209.59 456.52 1212.51 453.88 1213.15 450.44H1209.71C1209.11 452.36 1207.43 453.56 1204.59 453.56C1200.43 453.56 1198.27 450.68 1198.15 445.88H1213.51V444.72ZM1204.43 438.28C1207.83 438.28 1209.79 440.48 1209.99 443.04H1198.35C1198.79 440.48 1200.79 438.28 1204.43 438.28ZM1218.81 426.92V456H1222.21V426.92H1218.81ZM1238.98 456H1255.26V452.88H1249.14V428H1244.78L1238.94 431.96V435.64L1244.82 431.68H1245.62V452.88H1238.98V456ZM1261.9 443.52C1261.9 435.6 1264.86 430 1268.06 425.64H1264.78C1261.5 429.8 1258.7 435.64 1258.7 443.52C1258.7 451.48 1261.58 457.52 1265.06 461.64H1268.34C1265.06 457.28 1261.9 451.56 1261.9 443.52ZM1285.06 449.92C1284.54 452.16 1282.86 453.56 1279.98 453.56C1275.46 453.56 1273.58 449.88 1273.58 445.84C1273.58 441.84 1275.42 438.28 1279.98 438.28C1282.74 438.28 1284.3 439.64 1284.94 441.68H1288.34C1287.66 437.96 1284.78 435.32 1279.98 435.32C1273.7 435.32 1270.18 439.84 1270.18 445.92C1270.18 451.88 1273.7 456.52 1279.98 456.52C1284.66 456.52 1287.7 453.88 1288.46 449.92H1285.06ZM1311.45 456V443.2C1311.45 438.36 1308.73 435.32 1303.81 435.32C1301.09 435.32 1298.89 436.44 1297.81 438H1296.93V426.92H1293.53V456H1296.93V445.08C1296.93 441.52 1299.33 438.36 1302.93 438.36C1306.33 438.36 1308.05 440.28 1308.05 443.92V456H1311.45ZM1321.27 430.6V426.92H1317.67V430.6H1321.27ZM1321.15 435.84H1317.75V456H1321.15V435.84ZM1327.83 426.92V456H1331.23V426.92H1327.83ZM1352.43 426.92V438H1351.55C1350.43 436.56 1348.59 435.32 1345.39 435.32C1339.83 435.32 1336.55 439.84 1336.55 445.92C1336.55 451.88 1339.83 456.52 1345.39 456.52C1348.59 456.52 1350.55 455.24 1351.67 453.84H1352.55V456H1355.83V426.92H1352.43ZM1346.15 453.56C1342.11 453.56 1339.95 450.4 1339.95 445.92C1339.95 441.44 1342.11 438.28 1346.15 438.28C1350.63 438.28 1352.47 441.96 1352.47 445.92C1352.47 449.88 1350.63 453.56 1346.15 453.56ZM1365.76 443.52C1365.76 451.56 1362.6 457.28 1359.32 461.64H1362.6C1366.08 457.52 1368.96 451.48 1368.96 443.52C1368.96 435.64 1366.16 429.8 1362.88 425.64H1359.6C1362.8 430 1365.76 435.6 1365.76 443.52Z" fill="#274867"/>
<rect x="526" y="376" width="422" height="129" rx="14" fill="white" stroke="#007BFF" stroke-width="4"/>
<path d="M620.361 452.6V427.44H616.761V456H636.401V452.6H620.361ZM658.49 444.72C658.37 439.76 655.49 435.32 649.49 435.32C643.37 435.32 639.77 439.52 639.77 445.72C639.77 451.92 643.29 456.52 649.57 456.52C654.57 456.52 657.49 453.88 658.13 450.44H654.69C654.09 452.36 652.41 453.56 649.57 453.56C645.41 453.56 643.25 450.68 643.13 445.88H658.49V444.72ZM649.41 438.28C652.81 438.28 654.77 440.48 654.97 443.04H643.33C643.77 440.48 645.77 438.28 649.41 438.28ZM668.064 456H674.424L681.184 435.84H677.624L672.184 452.8H670.544L664.904 435.84H661.384L668.064 456ZM702.514 444.72C702.394 439.76 699.514 435.32 693.514 435.32C687.394 435.32 683.794 439.52 683.794 445.72C683.794 451.92 687.314 456.52 693.594 456.52C698.594 456.52 701.514 453.88 702.154 450.44H698.714C698.114 452.36 696.434 453.56 693.594 453.56C689.434 453.56 687.274 450.68 687.154 445.88H702.514V444.72ZM693.434 438.28C696.834 438.28 698.794 440.48 698.994 443.04H687.354C687.794 440.48 689.794 438.28 693.434 438.28ZM707.807 426.92V456H711.207V426.92H707.807ZM727.981 456H744.261V452.88H738.141V428H733.781L727.941 431.96V435.64L733.821 431.68H734.621V452.88H727.981V456ZM750.897 443.52C750.897 435.6 753.857 430 757.057 425.64H753.777C750.497 429.8 747.697 435.64 747.697 443.52C747.697 451.48 750.577 457.52 754.057 461.64H757.337C754.057 457.28 750.897 451.56 750.897 443.52ZM774.065 449.92C773.545 452.16 771.865 453.56 768.985 453.56C764.465 453.56 762.585 449.88 762.585 445.84C762.585 441.84 764.425 438.28 768.985 438.28C771.745 438.28 773.305 439.64 773.945 441.68H777.345C776.665 437.96 773.785 435.32 768.985 435.32C762.705 435.32 759.185 439.84 759.185 445.92C759.185 451.88 762.705 456.52 768.985 456.52C773.665 456.52 776.705 453.88 777.465 449.92H774.065ZM800.454 456V443.2C800.454 438.36 797.734 435.32 792.814 435.32C790.094 435.32 787.894 436.44 786.814 438H785.934V426.92H782.534V456H785.934V445.08C785.934 441.52 788.334 438.36 791.934 438.36C795.334 438.36 797.054 440.28 797.054 443.92V456H800.454ZM810.275 430.6V426.92H806.675V430.6H810.275ZM810.155 435.84H806.755V456H810.155V435.84ZM816.831 426.92V456H820.231V426.92H816.831ZM841.432 426.92V438H840.552C839.432 436.56 837.592 435.32 834.392 435.32C828.832 435.32 825.552 439.84 825.552 445.92C825.552 451.88 828.832 456.52 834.392 456.52C837.592 456.52 839.552 455.24 840.672 453.84H841.552V456H844.832V426.92H841.432ZM835.152 453.56C831.112 453.56 828.952 450.4 828.952 445.92C828.952 441.44 831.112 438.28 835.152 438.28C839.632 438.28 841.472 441.96 841.472 445.92C841.472 449.88 839.632 453.56 835.152 453.56ZM854.761 443.52C854.761 451.56 851.601 457.28 848.321 461.64H851.601C855.081 457.52 857.961 451.48 857.961 443.52C857.961 435.64 855.161 429.8 851.881 425.64H848.601C851.801 430 854.761 435.6 854.761 443.52Z" fill="#274867"/>
</g>
<defs>
<clipPath id="clip0_851:2">
<rect width="1474" height="783" fill="white"/>
</clipPath>
</defs>
</svg>
