<svg width="340" height="195" viewBox="0 0 340 195" fill="none" xmlns="http://www.w3.org/2000/svg">
<rect width="340" height="195" fill="#0E1012"/>
<rect x="20" y="23" width="300" height="150" rx="32" fill="white"/>
<path d="M271.835 41.6387V40.418C272.154 40.597 272.496 40.7435 272.86 40.8574C273.235 40.9648 273.59 41.0186 273.925 41.0186C274.325 41.0186 274.638 40.9095 274.862 40.6914C275.09 40.4701 275.204 40.2064 275.204 39.9004C275.204 39.5716 275.085 39.3145 274.848 39.1289C274.613 38.9368 274.322 38.8408 273.974 38.8408C273.746 38.8408 273.539 38.8799 273.354 38.958L272.807 37.7617L274.735 36.1211H271.835V34.998H276.317V36.1895L274.213 37.9277C274.294 37.9017 274.415 37.8887 274.574 37.8887C274.893 37.8887 275.198 37.9733 275.487 38.1426C275.78 38.3086 276.02 38.5446 276.205 38.8506C276.391 39.1566 276.483 39.5195 276.483 39.9395C276.483 40.5384 276.265 41.056 275.829 41.4922C275.614 41.6973 275.344 41.8584 275.019 41.9756C274.693 42.0928 274.328 42.1514 273.925 42.1514C273.241 42.1514 272.545 41.9805 271.835 41.6387ZM277.88 42C277.88 41.4727 277.932 41.0234 278.036 40.6523C278.144 40.278 278.298 39.9606 278.5 39.7002C278.705 39.4365 278.985 39.1761 279.34 38.9189L280.507 38.0791C280.771 37.887 280.969 37.6999 281.103 37.5176C281.239 37.332 281.308 37.1367 281.308 36.9316C281.308 36.6484 281.189 36.4173 280.951 36.2383C280.72 36.0592 280.396 35.9697 279.979 35.9697C279.286 35.9697 278.642 36.1797 278.046 36.5996V35.3496C278.668 35.0176 279.341 34.8516 280.067 34.8516C280.451 34.8516 280.801 34.9053 281.117 35.0127C281.433 35.1169 281.697 35.2617 281.908 35.4473C282.348 35.8411 282.567 36.305 282.567 36.8389C282.567 37.6299 282.147 38.3102 281.308 38.8799L279.936 39.8223C279.734 39.9622 279.568 40.1234 279.438 40.3057C279.311 40.488 279.247 40.6768 279.247 40.8721H282.606V42H277.88Z" fill="black"/>
<path d="M271.835 156.639V155.418C272.154 155.597 272.496 155.743 272.86 155.857C273.235 155.965 273.59 156.019 273.925 156.019C274.325 156.019 274.638 155.91 274.862 155.691C275.09 155.47 275.204 155.206 275.204 154.9C275.204 154.572 275.085 154.314 274.848 154.129C274.613 153.937 274.322 153.841 273.974 153.841C273.746 153.841 273.539 153.88 273.354 153.958L272.807 152.762L274.735 151.121H271.835V149.998H276.317V151.189L274.213 152.928C274.294 152.902 274.415 152.889 274.574 152.889C274.893 152.889 275.198 152.973 275.487 153.143C275.78 153.309 276.02 153.545 276.205 153.851C276.391 154.157 276.483 154.52 276.483 154.939C276.483 155.538 276.265 156.056 275.829 156.492C275.614 156.697 275.344 156.858 275.019 156.976C274.693 157.093 274.328 157.151 273.925 157.151C273.241 157.151 272.545 156.98 271.835 156.639ZM277.88 157C277.88 156.473 277.932 156.023 278.036 155.652C278.144 155.278 278.298 154.961 278.5 154.7C278.705 154.437 278.985 154.176 279.34 153.919L280.507 153.079C280.771 152.887 280.969 152.7 281.103 152.518C281.239 152.332 281.308 152.137 281.308 151.932C281.308 151.648 281.189 151.417 280.951 151.238C280.72 151.059 280.396 150.97 279.979 150.97C279.286 150.97 278.642 151.18 278.046 151.6V150.35C278.668 150.018 279.341 149.852 280.067 149.852C280.451 149.852 280.801 149.905 281.117 150.013C281.433 150.117 281.697 150.262 281.908 150.447C282.348 150.841 282.567 151.305 282.567 151.839C282.567 152.63 282.147 153.31 281.308 153.88L279.936 154.822C279.734 154.962 279.568 155.123 279.438 155.306C279.311 155.488 279.247 155.677 279.247 155.872H282.606V157H277.88Z" fill="black"/>
<path d="M297.835 65.6387V64.418C298.154 64.597 298.496 64.7435 298.86 64.8574C299.235 64.9648 299.59 65.0186 299.925 65.0186C300.325 65.0186 300.638 64.9095 300.862 64.6914C301.09 64.4701 301.204 64.2064 301.204 63.9004C301.204 63.5716 301.085 63.3145 300.848 63.1289C300.613 62.9368 300.322 62.8408 299.974 62.8408C299.746 62.8408 299.539 62.8799 299.354 62.958L298.807 61.7617L300.735 60.1211H297.835V58.998H302.317V60.1895L300.213 61.9277C300.294 61.9017 300.415 61.8887 300.574 61.8887C300.893 61.8887 301.198 61.9733 301.487 62.1426C301.78 62.3086 302.02 62.5446 302.205 62.8506C302.391 63.1566 302.483 63.5195 302.483 63.9395C302.483 64.5384 302.265 65.056 301.829 65.4922C301.614 65.6973 301.344 65.8584 301.019 65.9756C300.693 66.0928 300.328 66.1514 299.925 66.1514C299.241 66.1514 298.545 65.9805 297.835 65.6387ZM303.88 66C303.88 65.4727 303.932 65.0234 304.036 64.6523C304.144 64.278 304.298 63.9606 304.5 63.7002C304.705 63.4365 304.985 63.1761 305.34 62.9189L306.507 62.0791C306.771 61.887 306.969 61.6999 307.103 61.5176C307.239 61.332 307.308 61.1367 307.308 60.9316C307.308 60.6484 307.189 60.4173 306.951 60.2383C306.72 60.0592 306.396 59.9697 305.979 59.9697C305.286 59.9697 304.642 60.1797 304.046 60.5996V59.3496C304.668 59.0176 305.341 58.8516 306.067 58.8516C306.451 58.8516 306.801 58.9053 307.117 59.0127C307.433 59.1169 307.697 59.2617 307.908 59.4473C308.348 59.8411 308.567 60.305 308.567 60.8389C308.567 61.6299 308.147 62.3102 307.308 62.8799L305.936 63.8223C305.734 63.9622 305.568 64.1234 305.438 64.3057C305.311 64.488 305.247 64.6768 305.247 64.8721H308.606V66H303.88Z" fill="black"/>
<path d="M297.835 135.639V134.418C298.154 134.597 298.496 134.743 298.86 134.857C299.235 134.965 299.59 135.019 299.925 135.019C300.325 135.019 300.638 134.91 300.862 134.691C301.09 134.47 301.204 134.206 301.204 133.9C301.204 133.572 301.085 133.314 300.848 133.129C300.613 132.937 300.322 132.841 299.974 132.841C299.746 132.841 299.539 132.88 299.354 132.958L298.807 131.762L300.735 130.121H297.835V128.998H302.317V130.189L300.213 131.928C300.294 131.902 300.415 131.889 300.574 131.889C300.893 131.889 301.198 131.973 301.487 132.143C301.78 132.309 302.02 132.545 302.205 132.851C302.391 133.157 302.483 133.52 302.483 133.939C302.483 134.538 302.265 135.056 301.829 135.492C301.614 135.697 301.344 135.858 301.019 135.976C300.693 136.093 300.328 136.151 299.925 136.151C299.241 136.151 298.545 135.98 297.835 135.639ZM303.88 136C303.88 135.473 303.932 135.023 304.036 134.652C304.144 134.278 304.298 133.961 304.5 133.7C304.705 133.437 304.985 133.176 305.34 132.919L306.507 132.079C306.771 131.887 306.969 131.7 307.103 131.518C307.239 131.332 307.308 131.137 307.308 130.932C307.308 130.648 307.189 130.417 306.951 130.238C306.72 130.059 306.396 129.97 305.979 129.97C305.286 129.97 304.642 130.18 304.046 130.6V129.35C304.668 129.018 305.341 128.852 306.067 128.852C306.451 128.852 306.801 128.905 307.117 129.013C307.433 129.117 307.697 129.262 307.908 129.447C308.348 129.841 308.567 130.305 308.567 130.839C308.567 131.63 308.147 132.31 307.308 132.88L305.936 133.822C305.734 133.962 305.568 134.123 305.438 134.306C305.311 134.488 305.247 134.677 305.247 134.872H308.606V136H303.88Z" fill="black"/>
<circle cx="52" cy="55" r="31" stroke="#FF94A7" stroke-width="2"/>
<path d="M20 55H52V23" stroke="black" stroke-width="2" stroke-dasharray="4 4"/>
<circle cx="52" cy="141" r="31" transform="rotate(-90 52 141)" stroke="#FF94A7" stroke-width="2"/>
<path d="M52 173L52 141L20 141" stroke="black" stroke-width="2" stroke-dasharray="4 4"/>
<circle cx="288" cy="141" r="31" transform="rotate(180 288 141)" stroke="#FF94A7" stroke-width="2"/>
<path d="M320 141L288 141L288 173" stroke="black" stroke-width="2" stroke-dasharray="4 4"/>
<circle cx="288" cy="55" r="31" transform="rotate(90 288 55)" stroke="#FF94A7" stroke-width="2"/>
<path d="M288 23L288 55L320 55" stroke="black" stroke-width="2" stroke-dasharray="4 4"/>
<path d="M29.835 65.6387V64.418C30.154 64.597 30.4958 64.7435 30.8604 64.8574C31.2347 64.9648 31.5895 65.0186 31.9248 65.0186C32.3252 65.0186 32.6377 64.9095 32.8623 64.6914C33.0902 64.4701 33.2041 64.2064 33.2041 63.9004C33.2041 63.5716 33.0853 63.3145 32.8477 63.1289C32.6133 62.9368 32.3219 62.8408 31.9736 62.8408C31.7458 62.8408 31.5391 62.8799 31.3535 62.958L30.8066 61.7617L32.7354 60.1211H29.835V58.998H34.3174V60.1895L32.2129 61.9277C32.2943 61.9017 32.4147 61.8887 32.5742 61.8887C32.8932 61.8887 33.1976 61.9733 33.4873 62.1426C33.7803 62.3086 34.0195 62.5446 34.2051 62.8506C34.3906 63.1566 34.4834 63.5195 34.4834 63.9395C34.4834 64.5384 34.2653 65.056 33.8291 65.4922C33.6143 65.6973 33.3441 65.8584 33.0186 65.9756C32.693 66.0928 32.3285 66.1514 31.9248 66.1514C31.2412 66.1514 30.5446 65.9805 29.835 65.6387ZM35.8799 66C35.8799 65.4727 35.932 65.0234 36.0361 64.6523C36.1436 64.278 36.2982 63.9606 36.5 63.7002C36.7051 63.4365 36.985 63.1761 37.3398 62.9189L38.5068 62.0791C38.7705 61.887 38.9691 61.6999 39.1025 61.5176C39.2393 61.332 39.3076 61.1367 39.3076 60.9316C39.3076 60.6484 39.1888 60.4173 38.9512 60.2383C38.7201 60.0592 38.3962 59.9697 37.9795 59.9697C37.2861 59.9697 36.6416 60.1797 36.0459 60.5996V59.3496C36.6676 59.0176 37.3415 58.8516 38.0674 58.8516C38.4515 58.8516 38.8014 58.9053 39.1172 59.0127C39.4329 59.1169 39.6966 59.2617 39.9082 59.4473C40.3477 59.8411 40.5674 60.305 40.5674 60.8389C40.5674 61.6299 40.1475 62.3102 39.3076 62.8799L37.9355 63.8223C37.7337 63.9622 37.5677 64.1234 37.4375 64.3057C37.3105 64.488 37.2471 64.6768 37.2471 64.8721H40.6064V66H35.8799Z" fill="black"/>
<path d="M56.835 41.6387V40.418C57.154 40.597 57.4958 40.7435 57.8604 40.8574C58.2347 40.9648 58.5895 41.0186 58.9248 41.0186C59.3252 41.0186 59.6377 40.9095 59.8623 40.6914C60.0902 40.4701 60.2041 40.2064 60.2041 39.9004C60.2041 39.5716 60.0853 39.3145 59.8477 39.1289C59.6133 38.9368 59.3219 38.8408 58.9736 38.8408C58.7458 38.8408 58.5391 38.8799 58.3535 38.958L57.8066 37.7617L59.7354 36.1211H56.835V34.998H61.3174V36.1895L59.2129 37.9277C59.2943 37.9017 59.4147 37.8887 59.5742 37.8887C59.8932 37.8887 60.1976 37.9733 60.4873 38.1426C60.7803 38.3086 61.0195 38.5446 61.2051 38.8506C61.3906 39.1566 61.4834 39.5195 61.4834 39.9395C61.4834 40.5384 61.2653 41.056 60.8291 41.4922C60.6143 41.6973 60.3441 41.8584 60.0186 41.9756C59.693 42.0928 59.3285 42.1514 58.9248 42.1514C58.2412 42.1514 57.5446 41.9805 56.835 41.6387ZM62.8799 42C62.8799 41.4727 62.932 41.0234 63.0361 40.6523C63.1436 40.278 63.2982 39.9606 63.5 39.7002C63.7051 39.4365 63.985 39.1761 64.3398 38.9189L65.5068 38.0791C65.7705 37.887 65.9691 37.6999 66.1025 37.5176C66.2393 37.332 66.3076 37.1367 66.3076 36.9316C66.3076 36.6484 66.1888 36.4173 65.9512 36.2383C65.7201 36.0592 65.3962 35.9697 64.9795 35.9697C64.2861 35.9697 63.6416 36.1797 63.0459 36.5996V35.3496C63.6676 35.0176 64.3415 34.8516 65.0674 34.8516C65.4515 34.8516 65.8014 34.9053 66.1172 35.0127C66.4329 35.1169 66.6966 35.2617 66.9082 35.4473C67.3477 35.8411 67.5674 36.305 67.5674 36.8389C67.5674 37.6299 67.1475 38.3102 66.3076 38.8799L64.9355 39.8223C64.7337 39.9622 64.5677 40.1234 64.4375 40.3057C64.3105 40.488 64.2471 40.6768 64.2471 40.8721H67.6064V42H62.8799Z" fill="black"/>
<path d="M56.835 156.639V155.418C57.154 155.597 57.4958 155.743 57.8604 155.857C58.2347 155.965 58.5895 156.019 58.9248 156.019C59.3252 156.019 59.6377 155.91 59.8623 155.691C60.0902 155.47 60.2041 155.206 60.2041 154.9C60.2041 154.572 60.0853 154.314 59.8477 154.129C59.6133 153.937 59.3219 153.841 58.9736 153.841C58.7458 153.841 58.5391 153.88 58.3535 153.958L57.8066 152.762L59.7354 151.121H56.835V149.998H61.3174V151.189L59.2129 152.928C59.2943 152.902 59.4147 152.889 59.5742 152.889C59.8932 152.889 60.1976 152.973 60.4873 153.143C60.7803 153.309 61.0195 153.545 61.2051 153.851C61.3906 154.157 61.4834 154.52 61.4834 154.939C61.4834 155.538 61.2653 156.056 60.8291 156.492C60.6143 156.697 60.3441 156.858 60.0186 156.976C59.693 157.093 59.3285 157.151 58.9248 157.151C58.2412 157.151 57.5446 156.98 56.835 156.639ZM62.8799 157C62.8799 156.473 62.932 156.023 63.0361 155.652C63.1436 155.278 63.2982 154.961 63.5 154.7C63.7051 154.437 63.985 154.176 64.3398 153.919L65.5068 153.079C65.7705 152.887 65.9691 152.7 66.1025 152.518C66.2393 152.332 66.3076 152.137 66.3076 151.932C66.3076 151.648 66.1888 151.417 65.9512 151.238C65.7201 151.059 65.3962 150.97 64.9795 150.97C64.2861 150.97 63.6416 151.18 63.0459 151.6V150.35C63.6676 150.018 64.3415 149.852 65.0674 149.852C65.4515 149.852 65.8014 149.905 66.1172 150.013C66.4329 150.117 66.6966 150.262 66.9082 150.447C67.3477 150.841 67.5674 151.305 67.5674 151.839C67.5674 152.63 67.1475 153.31 66.3076 153.88L64.9355 154.822C64.7337 154.962 64.5677 155.123 64.4375 155.306C64.3105 155.488 64.2471 155.677 64.2471 155.872H67.6064V157H62.8799Z" fill="black"/>
<path d="M29.835 135.639V134.418C30.154 134.597 30.4958 134.743 30.8604 134.857C31.2347 134.965 31.5895 135.019 31.9248 135.019C32.3252 135.019 32.6377 134.91 32.8623 134.691C33.0902 134.47 33.2041 134.206 33.2041 133.9C33.2041 133.572 33.0853 133.314 32.8477 133.129C32.6133 132.937 32.3219 132.841 31.9736 132.841C31.7458 132.841 31.5391 132.88 31.3535 132.958L30.8066 131.762L32.7354 130.121H29.835V128.998H34.3174V130.189L32.2129 131.928C32.2943 131.902 32.4147 131.889 32.5742 131.889C32.8932 131.889 33.1976 131.973 33.4873 132.143C33.7803 132.309 34.0195 132.545 34.2051 132.851C34.3906 133.157 34.4834 133.52 34.4834 133.939C34.4834 134.538 34.2653 135.056 33.8291 135.492C33.6143 135.697 33.3441 135.858 33.0186 135.976C32.693 136.093 32.3285 136.151 31.9248 136.151C31.2412 136.151 30.5446 135.98 29.835 135.639ZM35.8799 136C35.8799 135.473 35.932 135.023 36.0361 134.652C36.1436 134.278 36.2982 133.961 36.5 133.7C36.7051 133.437 36.985 133.176 37.3398 132.919L38.5068 132.079C38.7705 131.887 38.9691 131.7 39.1025 131.518C39.2393 131.332 39.3076 131.137 39.3076 130.932C39.3076 130.648 39.1888 130.417 38.9512 130.238C38.7201 130.059 38.3962 129.97 37.9795 129.97C37.2861 129.97 36.6416 130.18 36.0459 130.6V129.35C36.6676 129.018 37.3415 128.852 38.0674 128.852C38.4515 128.852 38.8014 128.905 39.1172 129.013C39.4329 129.117 39.6966 129.262 39.9082 129.447C40.3477 129.841 40.5674 130.305 40.5674 130.839C40.5674 131.63 40.1475 132.31 39.3076 132.88L37.9355 133.822C37.7337 133.962 37.5677 134.123 37.4375 134.306C37.3105 134.488 37.2471 134.677 37.2471 134.872H40.6064V136H35.8799Z" fill="black"/>
</svg>
