<svg width="339" height="195" viewBox="0 0 339 195" fill="none" xmlns="http://www.w3.org/2000/svg">
<rect width="339" height="195" fill="#0E1012"/>
<rect x="20" y="23" width="300" height="150" fill="white"/>
<path d="M20 23V63H101V23H20Z" fill="#0E1012"/>
<ellipse cx="95" cy="60.5" rx="75" ry="37.5" fill="white"/>
<path d="M169 60.5C169 70.2725 161.052 79.3891 147.586 86.1221C134.18 92.8252 115.589 97 95 97C74.4109 97 55.8204 92.8252 42.4142 86.1221C28.9482 79.3891 21 70.2725 21 60.5C21 50.7275 28.9482 41.6109 42.4142 34.8779C55.8204 28.1748 74.4109 24 95 24C115.589 24 134.18 28.1748 147.586 34.8779C161.052 41.6109 169 50.7275 169 60.5Z" stroke="#FF002E" stroke-opacity="0.42" stroke-width="2"/>
<path d="M20 60H320" stroke="black" stroke-dasharray="2 2"/>
<path d="M95 23L95 173" stroke="black" stroke-dasharray="2 2"/>
<path d="M45.873 58C45.873 57.3672 45.9355 56.8281 46.0605 56.3828C46.1895 55.9336 46.375 55.5527 46.6172 55.2402C46.8633 54.9238 47.1992 54.6113 47.625 54.3027L49.0254 53.2949C49.3418 53.0645 49.5801 52.8398 49.7402 52.6211C49.9043 52.3984 49.9863 52.1641 49.9863 51.918C49.9863 51.5781 49.8438 51.3008 49.5586 51.0859C49.2812 50.8711 48.8926 50.7637 48.3926 50.7637C47.5605 50.7637 46.7871 51.0156 46.0723 51.5195V50.0195C46.8184 49.6211 47.627 49.4219 48.498 49.4219C48.959 49.4219 49.3789 49.4863 49.7578 49.6152C50.1367 49.7402 50.4531 49.9141 50.707 50.1367C51.2344 50.6094 51.498 51.166 51.498 51.8066C51.498 52.7559 50.9941 53.5723 49.9863 54.2559L48.3398 55.3867C48.0977 55.5547 47.8984 55.748 47.7422 55.9668C47.5898 56.1855 47.5137 56.4121 47.5137 56.6465H51.5449V58H45.873ZM53.373 57.5664V56.1016C54.209 56.582 55.0449 56.8223 55.8809 56.8223C56.3223 56.8223 56.6875 56.6934 56.9766 56.4355C57.2695 56.1738 57.416 55.8359 57.416 55.4219C57.416 55 57.2695 54.6582 56.9766 54.3965C56.6836 54.1348 56.291 54.0039 55.7988 54.0039C55.3184 54.0039 54.8945 54.1328 54.5273 54.3906L53.4961 53.6348L53.6719 49.5977H58.5938V50.9453H54.9551L54.8496 52.9844C55.2129 52.793 55.6777 52.6973 56.2441 52.6973C56.7402 52.6973 57.1914 52.8066 57.5977 53.0254C58.0039 53.2441 58.332 53.5645 58.582 53.9863C58.8281 54.4043 58.9512 54.8828 58.9512 55.4219C58.9512 56.1641 58.6816 56.8105 58.1426 57.3613C57.8848 57.6152 57.5645 57.8164 57.1816 57.9648C56.8027 58.1094 56.3848 58.1816 55.9277 58.1816C55.5762 58.1816 55.2305 58.1465 54.8906 58.0762C54.5508 58.0059 54.2812 57.9355 54.082 57.8652C53.8828 57.7871 53.6465 57.6875 53.373 57.5664ZM60.3164 51.3379C60.3164 50.7793 60.502 50.3223 60.873 49.9668C61.248 49.6035 61.7129 49.4219 62.2676 49.4219C62.8184 49.4219 63.2793 49.6035 63.6504 49.9668C64.0254 50.3301 64.2129 50.7871 64.2129 51.3379C64.2129 51.8809 64.0254 52.3379 63.6504 52.709C63.2754 53.0762 62.8145 53.2598 62.2676 53.2598C61.7129 53.2598 61.248 53.0781 60.873 52.7148C60.502 52.3477 60.3164 51.8887 60.3164 51.3379ZM61.3711 58L66.6855 49.5977H68.0156L62.7246 58H61.3711ZM61.6406 50.7109C61.4766 50.8711 61.3945 51.0801 61.3945 51.3379C61.3945 51.5957 61.4766 51.8047 61.6406 51.9648C61.8086 52.125 62.0176 52.2051 62.2676 52.2051C62.5215 52.2051 62.7285 52.125 62.8887 51.9648C63.0527 51.8047 63.1348 51.5957 63.1348 51.3379C63.1348 51.0801 63.0527 50.8711 62.8887 50.7109C62.7285 50.5469 62.5215 50.4648 62.2676 50.4648C62.0176 50.4648 61.8086 50.5469 61.6406 50.7109ZM65.1621 56.2598C65.1621 55.7129 65.3496 55.2578 65.7246 54.8945C66.0996 54.5312 66.5645 54.3496 67.1191 54.3496C67.666 54.3496 68.127 54.5312 68.502 54.8945C68.877 55.2578 69.0645 55.7129 69.0645 56.2598C69.0645 56.8105 68.877 57.2695 68.502 57.6367C68.1309 58 67.6699 58.1816 67.1191 58.1816C66.5645 58.1816 66.0996 58 65.7246 57.6367C65.3496 57.2734 65.1621 56.8145 65.1621 56.2598ZM66.2402 56.2598C66.2402 56.5215 66.3223 56.7344 66.4863 56.8984C66.6582 57.0586 66.8691 57.1387 67.1191 57.1387C67.373 57.1387 67.5801 57.0586 67.7402 56.8984C67.9004 56.7344 67.9805 56.5215 67.9805 56.2598C67.9805 56.002 67.9004 55.7949 67.7402 55.6387C67.5801 55.4785 67.373 55.3984 67.1191 55.3984C66.8652 55.3984 66.6543 55.4785 66.4863 55.6387C66.3223 55.7988 66.2402 56.0059 66.2402 56.2598Z" fill="black"/>
<path d="M99.873 46C99.873 45.3672 99.9355 44.8281 100.061 44.3828C100.189 43.9336 100.375 43.5527 100.617 43.2402C100.863 42.9238 101.199 42.6113 101.625 42.3027L103.025 41.2949C103.342 41.0645 103.58 40.8398 103.74 40.6211C103.904 40.3984 103.986 40.1641 103.986 39.918C103.986 39.5781 103.844 39.3008 103.559 39.0859C103.281 38.8711 102.893 38.7637 102.393 38.7637C101.561 38.7637 100.787 39.0156 100.072 39.5195V38.0195C100.818 37.6211 101.627 37.4219 102.498 37.4219C102.959 37.4219 103.379 37.4863 103.758 37.6152C104.137 37.7402 104.453 37.9141 104.707 38.1367C105.234 38.6094 105.498 39.166 105.498 39.8066C105.498 40.7559 104.994 41.5723 103.986 42.2559L102.34 43.3867C102.098 43.5547 101.898 43.748 101.742 43.9668C101.59 44.1855 101.514 44.4121 101.514 44.6465H105.545V46H99.873ZM107.373 45.5664V44.1016C108.209 44.582 109.045 44.8223 109.881 44.8223C110.322 44.8223 110.688 44.6934 110.977 44.4355C111.27 44.1738 111.416 43.8359 111.416 43.4219C111.416 43 111.27 42.6582 110.977 42.3965C110.684 42.1348 110.291 42.0039 109.799 42.0039C109.318 42.0039 108.895 42.1328 108.527 42.3906L107.496 41.6348L107.672 37.5977H112.594V38.9453H108.955L108.85 40.9844C109.213 40.793 109.678 40.6973 110.244 40.6973C110.74 40.6973 111.191 40.8066 111.598 41.0254C112.004 41.2441 112.332 41.5645 112.582 41.9863C112.828 42.4043 112.951 42.8828 112.951 43.4219C112.951 44.1641 112.682 44.8105 112.143 45.3613C111.885 45.6152 111.564 45.8164 111.182 45.9648C110.803 46.1094 110.385 46.1816 109.928 46.1816C109.576 46.1816 109.23 46.1465 108.891 46.0762C108.551 46.0059 108.281 45.9355 108.082 45.8652C107.883 45.7871 107.646 45.6875 107.373 45.5664ZM114.316 39.3379C114.316 38.7793 114.502 38.3223 114.873 37.9668C115.248 37.6035 115.713 37.4219 116.268 37.4219C116.818 37.4219 117.279 37.6035 117.65 37.9668C118.025 38.3301 118.213 38.7871 118.213 39.3379C118.213 39.8809 118.025 40.3379 117.65 40.709C117.275 41.0762 116.814 41.2598 116.268 41.2598C115.713 41.2598 115.248 41.0781 114.873 40.7148C114.502 40.3477 114.316 39.8887 114.316 39.3379ZM115.371 46L120.686 37.5977H122.016L116.725 46H115.371ZM115.641 38.7109C115.477 38.8711 115.395 39.0801 115.395 39.3379C115.395 39.5957 115.477 39.8047 115.641 39.9648C115.809 40.125 116.018 40.2051 116.268 40.2051C116.521 40.2051 116.729 40.125 116.889 39.9648C117.053 39.8047 117.135 39.5957 117.135 39.3379C117.135 39.0801 117.053 38.8711 116.889 38.7109C116.729 38.5469 116.521 38.4648 116.268 38.4648C116.018 38.4648 115.809 38.5469 115.641 38.7109ZM119.162 44.2598C119.162 43.7129 119.35 43.2578 119.725 42.8945C120.1 42.5312 120.564 42.3496 121.119 42.3496C121.666 42.3496 122.127 42.5312 122.502 42.8945C122.877 43.2578 123.064 43.7129 123.064 44.2598C123.064 44.8105 122.877 45.2695 122.502 45.6367C122.131 46 121.67 46.1816 121.119 46.1816C120.564 46.1816 120.1 46 119.725 45.6367C119.35 45.2734 119.162 44.8145 119.162 44.2598ZM120.24 44.2598C120.24 44.5215 120.322 44.7344 120.486 44.8984C120.658 45.0586 120.869 45.1387 121.119 45.1387C121.373 45.1387 121.58 45.0586 121.74 44.8984C121.9 44.7344 121.98 44.5215 121.98 44.2598C121.98 44.002 121.9 43.7949 121.74 43.6387C121.58 43.4785 121.373 43.3984 121.119 43.3984C120.865 43.3984 120.654 43.4785 120.486 43.6387C120.322 43.7988 120.24 44.0059 120.24 44.2598Z" fill="black"/>
<rect x="93" y="58" width="4" height="4" fill="black"/>
<rect x="167" y="58" width="4" height="4" fill="black"/>
<rect x="241" y="58" width="4" height="4" fill="black"/>
<rect x="93" y="95.5" width="4" height="4" fill="black"/>
<rect x="93" y="134" width="4" height="4" fill="black"/>
</svg>
