<svg width="339" height="195" viewBox="0 0 339 195" fill="none" xmlns="http://www.w3.org/2000/svg">
<rect width="339" height="195" fill="#0E1012"/>
<rect x="20" y="23" width="300" height="150" fill="white"/>
<path d="M20 23V63H99.5V23H20Z" fill="#0E1012"/>
<ellipse cx="100" cy="63" rx="80" ry="40" fill="white"/>
<path d="M179 63C179 73.4629 170.492 83.2044 156.121 90.3898C141.81 97.5454 121.97 102 100 102C78.0302 102 58.1897 97.5454 43.8787 90.3898C29.5078 83.2044 21 73.4629 21 63C21 52.5371 29.5078 42.7956 43.8787 35.6102C58.1897 28.4546 78.0302 24 100 24C121.97 24 141.81 28.4546 156.121 35.6102C170.492 42.7956 179 52.5371 179 63Z" stroke="#FF002E" stroke-opacity="0.42" stroke-width="2"/>
<path d="M20 63H100" stroke="black" stroke-dasharray="2 2"/>
<path d="M100 23L100 63" stroke="black" stroke-dasharray="2 2"/>
<circle cx="100" cy="63" r="2" fill="black"/>
<path d="M45.6914 56.0195V54.3379L49.1484 49.5977H50.9941V54.7129H52.3242V56.0195H50.9941V58H49.5645V56.0195H45.6914ZM47.0098 54.7129H49.5645V51.0977L47.0098 54.7129ZM53.9238 55.5977C53.7988 55.0664 53.7363 54.4668 53.7363 53.7988C53.7363 53.1309 53.7988 52.5332 53.9238 52.0059C54.0488 51.4746 54.2383 51.0156 54.4922 50.6289C54.75 50.2422 55.084 49.9434 55.4941 49.7324C55.9121 49.5254 56.3926 49.4219 56.9355 49.4219C57.4824 49.4219 57.9609 49.5254 58.3711 49.7324C58.7812 49.9434 59.1152 50.2422 59.373 50.6289C59.6309 51.0156 59.8223 51.4746 59.9473 52.0059C60.0762 52.5332 60.1406 53.1309 60.1406 53.7988C60.1406 54.4668 60.0762 55.0664 59.9473 55.5977C59.8223 56.1289 59.6309 56.5879 59.373 56.9746C59.1152 57.3574 58.7812 57.6562 58.3711 57.8711C57.9609 58.0781 57.4824 58.1816 56.9355 58.1816C56.3926 58.1816 55.9121 58.0781 55.4941 57.8711C55.084 57.6562 54.75 57.3574 54.4922 56.9746C54.2383 56.5879 54.0488 56.1289 53.9238 55.5977ZM56.9355 56.8457C57.5879 56.8457 58.041 56.5605 58.2949 55.9902C58.5332 55.4668 58.6523 54.7363 58.6523 53.7988C58.6523 52.8613 58.5332 52.1328 58.2949 51.6133C58.041 51.0391 57.5879 50.752 56.9355 50.752C56.2988 50.752 55.8477 51.0391 55.582 51.6133C55.3398 52.1328 55.2188 52.8613 55.2188 53.7988C55.2188 54.7363 55.3398 55.4668 55.582 55.9902C55.8477 56.5605 56.2988 56.8457 56.9355 56.8457ZM61.8633 60.2676V52.1816H63.2461V52.6973C63.7383 52.2246 64.3262 51.9883 65.0098 51.9883C65.5605 51.9883 66.0469 52.1289 66.4688 52.4102C66.8984 52.6875 67.2207 53.0586 67.4355 53.5234C67.6582 53.9844 67.7695 54.5 67.7695 55.0703C67.7695 55.6445 67.6582 56.166 67.4355 56.6348C67.2168 57.0996 66.8945 57.4746 66.4688 57.7598C66.0469 58.041 65.5605 58.1816 65.0098 58.1816C64.3184 58.1816 63.7305 57.9453 63.2461 57.4727V60.2676H61.8633ZM63.2461 56.0781C63.6523 56.6172 64.1445 56.8867 64.7227 56.8867C65.2109 56.8867 65.5996 56.7227 65.8887 56.3945C66.1816 56.0664 66.3281 55.625 66.3281 55.0703C66.3281 54.5234 66.1797 54.0918 65.8828 53.7754C65.5898 53.4551 65.2031 53.2949 64.7227 53.2949C64.1328 53.2949 63.6406 53.5586 63.2461 54.0859V56.0781ZM68.0566 58L70.1484 55L68.1914 52.1816H69.8262L71.1211 54.1504L72.3809 52.1816H73.9863L72.0703 55.0352L74.1211 58H72.4746L71.0742 55.9258L69.6914 58H68.0566Z" fill="black"/>
<path d="M106.873 47C106.873 46.3672 106.936 45.8281 107.061 45.3828C107.189 44.9336 107.375 44.5527 107.617 44.2402C107.863 43.9238 108.199 43.6113 108.625 43.3027L110.025 42.2949C110.342 42.0645 110.58 41.8398 110.74 41.6211C110.904 41.3984 110.986 41.1641 110.986 40.918C110.986 40.5781 110.844 40.3008 110.559 40.0859C110.281 39.8711 109.893 39.7637 109.393 39.7637C108.561 39.7637 107.787 40.0156 107.072 40.5195V39.0195C107.818 38.6211 108.627 38.4219 109.498 38.4219C109.959 38.4219 110.379 38.4863 110.758 38.6152C111.137 38.7402 111.453 38.9141 111.707 39.1367C112.234 39.6094 112.498 40.166 112.498 40.8066C112.498 41.7559 111.994 42.5723 110.986 43.2559L109.34 44.3867C109.098 44.5547 108.898 44.748 108.742 44.9668C108.59 45.1855 108.514 45.4121 108.514 45.6465H112.545V47H106.873ZM114.186 44.5977C114.061 44.0664 113.998 43.4668 113.998 42.7988C113.998 42.1309 114.061 41.5332 114.186 41.0059C114.311 40.4746 114.5 40.0156 114.754 39.6289C115.012 39.2422 115.346 38.9434 115.756 38.7324C116.174 38.5254 116.654 38.4219 117.197 38.4219C117.744 38.4219 118.223 38.5254 118.633 38.7324C119.043 38.9434 119.377 39.2422 119.635 39.6289C119.893 40.0156 120.084 40.4746 120.209 41.0059C120.338 41.5332 120.402 42.1309 120.402 42.7988C120.402 43.4668 120.338 44.0664 120.209 44.5977C120.084 45.1289 119.893 45.5879 119.635 45.9746C119.377 46.3574 119.043 46.6562 118.633 46.8711C118.223 47.0781 117.744 47.1816 117.197 47.1816C116.654 47.1816 116.174 47.0781 115.756 46.8711C115.346 46.6562 115.012 46.3574 114.754 45.9746C114.5 45.5879 114.311 45.1289 114.186 44.5977ZM117.197 45.8457C117.85 45.8457 118.303 45.5605 118.557 44.9902C118.795 44.4668 118.914 43.7363 118.914 42.7988C118.914 41.8613 118.795 41.1328 118.557 40.6133C118.303 40.0391 117.85 39.752 117.197 39.752C116.561 39.752 116.109 40.0391 115.844 40.6133C115.602 41.1328 115.48 41.8613 115.48 42.7988C115.48 43.7363 115.602 44.4668 115.844 44.9902C116.109 45.5605 116.561 45.8457 117.197 45.8457ZM122.125 49.2676V41.1816H123.508V41.6973C124 41.2246 124.588 40.9883 125.271 40.9883C125.822 40.9883 126.309 41.1289 126.73 41.4102C127.16 41.6875 127.482 42.0586 127.697 42.5234C127.92 42.9844 128.031 43.5 128.031 44.0703C128.031 44.6445 127.92 45.166 127.697 45.6348C127.479 46.0996 127.156 46.4746 126.73 46.7598C126.309 47.041 125.822 47.1816 125.271 47.1816C124.58 47.1816 123.992 46.9453 123.508 46.4727V49.2676H122.125ZM123.508 45.0781C123.914 45.6172 124.406 45.8867 124.984 45.8867C125.473 45.8867 125.861 45.7227 126.15 45.3945C126.443 45.0664 126.59 44.625 126.59 44.0703C126.59 43.5234 126.441 43.0918 126.145 42.7754C125.852 42.4551 125.465 42.2949 124.984 42.2949C124.395 42.2949 123.902 42.5586 123.508 43.0859V45.0781ZM128.318 47L130.41 44L128.453 41.1816L130.088 41.1816L131.383 43.1504L132.643 41.1816H134.248L132.332 44.0352L134.383 47L132.736 47L131.336 44.9258L129.953 47H128.318Z" fill="black"/>
</svg>
