<?xml version="1.0" encoding="UTF-8"?>
<svg width="1500px" height="725px" viewBox="0 0 1500 725" version="1.1" xmlns="http://www.w3.org/2000/svg" xmlns:xlink="http://www.w3.org/1999/xlink">
    <title>clamp-ex</title>
    <g id="clamp-ex" stroke="none" stroke-width="1" fill="none" fill-rule="evenodd">
        <rect fill="#FFFFFF" x="0" y="0" width="1500" height="725"></rect>
        <path d="M178.693359,81 L183.039062,66.0097656 L187.40918,81 L191.706055,81 L198.102539,53.65625 L193.65918,53.65625 L188.898438,75.7509766 L184.943359,61.6396484 L181.110352,61.6396484 L177.204102,75.7509766 L172.443359,53.65625 L168,53.65625 L174.396484,81 L178.693359,81 Z M217.316406,48.7978516 L217.316406,43.1337891 L212.824219,43.1337891 L212.824219,48.7978516 L217.316406,48.7978516 Z M226.227539,81 L226.227539,77.5087891 L217.316406,77.5087891 L217.316406,53.7539062 L205.817383,53.7539062 L205.817383,57.2451172 L212.824219,57.2451172 L212.824219,77.5087891 L203.913086,77.5087891 L203.913086,81 L226.227539,81 Z M241.852539,81.7080078 C243.480143,81.7080078 244.916504,81.3540039 246.161621,80.6459961 C247.406738,79.9379883 248.403646,78.9085286 249.152344,77.5576172 L249.152344,77.5576172 L249.152344,81 L253.644531,81 L253.644531,43.0117188 L249.152344,43.0117188 L249.152344,57.1474609 C248.436198,55.7965495 247.451497,54.7670898 246.198242,54.059082 C244.944987,53.3510742 243.496419,52.9970703 241.852539,52.9970703 C238.564779,52.9970703 235.96875,54.2625326 234.064453,56.793457 C232.160156,59.3243815 231.208008,62.8115234 231.208008,67.2548828 C231.208008,71.7633464 232.156087,75.2993164 234.052246,77.862793 C235.948405,80.4262695 238.548503,81.7080078 241.852539,81.7080078 Z M242.511719,77.8994141 C240.347005,77.8994141 238.711263,77.0123698 237.604492,75.2382812 C236.497721,73.4641927 235.944336,70.835612 235.944336,67.3525391 C235.944336,63.8694661 236.497721,61.2408854 237.604492,59.4667969 C238.711263,57.6927083 240.347005,56.8056641 242.511719,56.8056641 C244.676432,56.8056641 246.324382,57.6967773 247.455566,59.4790039 C248.586751,61.2612305 249.152344,63.8857422 249.152344,67.3525391 C249.152344,70.8030599 248.586751,73.4235026 247.455566,75.2138672 C246.324382,77.0042318 244.676432,77.8994141 242.511719,77.8994141 Z M283.50293,81 L283.50293,77.4111328 L278.449219,77.4111328 C276.544922,77.4111328 275.210286,77.0123698 274.445312,76.2148438 C273.680339,75.4173177 273.297852,74.0094401 273.297852,71.9912109 L273.297852,71.9912109 L273.297852,57.1474609 L283.50293,57.1474609 L283.50293,53.65625 L273.297852,53.65625 L273.297852,45.8925781 L268.805664,45.8925781 L268.805664,53.65625 L261.505859,53.65625 L261.505859,57.1474609 L268.805664,57.1474609 L268.805664,71.9912109 C268.805664,75.2952474 269.497396,77.6227214 270.880859,78.9736328 C272.264323,80.3245443 274.640625,81 278.009766,81 L278.009766,81 L283.50293,81 Z M297.663086,81 L297.663086,65.5458984 C297.663086,62.7626953 298.228678,60.6264648 299.359863,59.137207 C300.491048,57.6479492 302.106445,56.9033203 304.206055,56.9033203 C306.045247,56.9033203 307.396159,57.4811198 308.258789,58.6367188 C309.121419,59.7923177 309.552734,61.5989583 309.552734,64.0566406 L309.552734,64.0566406 L309.552734,81 L314.069336,81 L314.069336,64.0566406 C314.069336,60.3457031 313.381673,57.574707 312.006348,55.7436523 C310.631022,53.9125977 308.551758,52.9970703 305.768555,52.9970703 C303.89681,52.9970703 302.277344,53.3999023 300.910156,54.2055664 C299.542969,55.0112305 298.460612,56.1953125 297.663086,57.7578125 L297.663086,57.7578125 L297.663086,43.0117188 L293.170898,43.0117188 L293.170898,81 L297.663086,81 Z M336.603516,62.4941406 L336.603516,53.6806641 L328.986328,53.6806641 L328.986328,62.4941406 L336.603516,62.4941406 Z M336.603516,81 L336.603516,72.1132812 L328.986328,72.1132812 L328.986328,81 L336.603516,81 Z M396.979492,81.7080078 C398.314128,81.7080078 399.62028,81.5330404 400.897949,81.1831055 C402.175618,80.8331706 403.416667,80.3082682 404.621094,79.6083984 L404.621094,79.6083984 L404.621094,74.9453125 C403.563151,75.9544271 402.41569,76.699056 401.178711,77.1791992 C399.941732,77.6593424 398.541992,77.8994141 396.979492,77.8994141 C394.180013,77.8994141 392.019368,76.9838867 390.497559,75.152832 C388.975749,73.3217773 388.214844,70.7216797 388.214844,67.3525391 C388.214844,63.9671224 388.97168,61.3629557 390.485352,59.5400391 C391.999023,57.7171224 394.163737,56.8056641 396.979492,56.8056641 C398.493164,56.8056641 399.848145,57.0416667 401.044434,57.5136719 C402.240723,57.9856771 403.432943,58.750651 404.621094,59.8085938 L404.621094,59.8085938 L404.621094,55.0966797 C403.351562,54.3805339 402.090169,53.8515625 400.836914,53.5097656 C399.583659,53.1679688 398.297852,52.9970703 396.979492,52.9970703 C392.747721,52.9970703 389.439616,54.2666016 387.055176,56.8056641 C384.670736,59.3447266 383.478516,62.8603516 383.478516,67.3525391 C383.478516,71.8447266 384.670736,75.3603516 387.055176,77.8994141 C389.439616,80.4384766 392.747721,81.7080078 396.979492,81.7080078 Z M436.017578,81 L436.017578,77.2158203 L430.768555,77.2158203 C429.319987,77.2158203 428.225423,76.703125 427.484863,75.6777344 C426.744303,74.6523438 426.374023,73.1305339 426.374023,71.1123047 L426.374023,71.1123047 L426.374023,42.8652344 L414.679688,42.8652344 L414.679688,46.3808594 L421.881836,46.3808594 L421.881836,71.1123047 C421.881836,74.2698568 422.618327,76.707194 424.091309,78.4243164 C425.56429,80.1414388 427.643555,81 430.329102,81 L430.329102,81 L436.017578,81 Z M451.325195,81.7080078 C453.408529,81.7080078 455.178548,81.3214518 456.635254,80.5483398 C458.09196,79.7752279 459.300456,78.5748698 460.260742,76.9472656 L460.260742,76.9472656 L460.260742,81 L464.777344,81 L464.777344,65.3994141 C464.777344,63.0068359 464.647135,61.2124023 464.386719,60.0161133 C464.126302,58.8198242 463.686849,57.8147786 463.068359,57.0009766 C462.075521,55.6663411 460.777507,54.6653646 459.174316,53.9980469 C457.571126,53.3307292 455.638346,52.9970703 453.375977,52.9970703 C451.943685,52.9970703 450.466634,53.1557617 448.944824,53.4731445 C447.423014,53.7905273 445.832031,54.2666016 444.171875,54.9013672 L444.171875,54.9013672 L444.171875,59.3935547 C445.652995,58.5472005 447.174805,57.9042969 448.737305,57.4648438 C450.299805,57.0253906 451.846029,56.8056641 453.375977,56.8056641 C455.768555,56.8056641 457.510091,57.2980143 458.600586,58.2827148 C459.691081,59.2674154 460.244466,60.8502604 460.260742,63.03125 L460.260742,63.03125 L460.260742,63.7392578 L454.230469,63.7392578 C450.275391,63.7392578 447.27653,64.5286458 445.233887,66.1074219 C443.191243,67.6861979 442.169922,69.9973958 442.169922,73.0410156 C442.169922,75.6777344 443,77.7814128 444.660156,79.3520508 C446.320312,80.9226888 448.541992,81.7080078 451.325195,81.7080078 Z M452.277344,77.9482422 C450.519531,77.9482422 449.144206,77.492513 448.151367,76.5810547 C447.158529,75.6695964 446.662109,74.3919271 446.662109,72.7480469 C446.662109,70.9251302 447.325358,69.5538737 448.651855,68.6342773 C449.978353,67.714681 451.951823,67.2548828 454.572266,67.2548828 L454.572266,67.2548828 L460.260742,67.2548828 L460.260742,68.2558594 C460.244466,71.2832031 459.52832,73.6554362 458.112305,75.3725586 C456.696289,77.089681 454.751302,77.9482422 452.277344,77.9482422 Z M475.763672,81 L475.763672,65.3505859 C475.763672,61.6233724 475.995605,59.2592773 476.459473,58.2583008 C476.92334,57.2573242 477.749349,56.7568359 478.9375,56.7568359 C480.141927,56.7568359 480.976074,57.2125651 481.439941,58.1240234 C481.903809,59.0354818 482.135742,61.4443359 482.135742,65.3505859 L482.135742,65.3505859 L482.135742,81 L486.237305,81 L486.237305,65.3505859 C486.237305,61.6233724 486.477376,59.2592773 486.95752,58.2583008 C487.437663,57.2573242 488.328776,56.7568359 489.630859,56.7568359 C490.770182,56.7568359 491.555501,57.2247721 491.986816,58.1606445 C492.418132,59.0965169 492.633789,61.4931641 492.633789,65.3505859 L492.633789,81 L496.735352,81 L496.735352,65.1552734 C496.735352,60.4514974 496.283691,57.2491862 495.380371,55.5483398 C494.477051,53.8474935 492.926758,52.9970703 490.729492,52.9970703 C489.525065,52.9970703 488.495605,53.277832 487.641113,53.8393555 C486.786621,54.4008789 486.082682,55.2675781 485.529297,56.4394531 C485.073568,55.2838542 484.434733,54.421224 483.612793,53.8515625 C482.790853,53.281901 481.761393,52.9970703 480.524414,52.9970703 C479.499023,52.9970703 478.583496,53.253418 477.777832,53.7661133 C476.972168,54.2788086 476.300781,55.0234375 475.763672,56 L475.763672,56 L475.763672,53.65625 L471.686523,53.65625 L471.686523,81 L475.763672,81 Z M508.283203,91.4003906 L508.283203,77.5576172 C508.999349,78.9085286 509.97998,79.9379883 511.225098,80.6459961 C512.470215,81.3540039 513.922852,81.7080078 515.583008,81.7080078 C518.870768,81.7080078 521.458659,80.4425456 523.34668,77.9116211 C525.234701,75.3806966 526.178711,71.8935547 526.178711,67.4501953 C526.178711,62.9254557 525.23877,59.3854167 523.358887,56.8300781 C521.479004,54.2747396 518.887044,52.9970703 515.583008,52.9970703 C513.955404,52.9970703 512.519043,53.3510742 511.273926,54.059082 C510.028809,54.7670898 509.031901,55.7965495 508.283203,57.1474609 L508.283203,57.1474609 L508.283203,53.65625 L503.766602,53.65625 L503.766602,91.4003906 L508.283203,91.4003906 Z M514.923828,77.8994141 C512.742839,77.8994141 511.09082,77.0042318 509.967773,75.2138672 C508.844727,73.4235026 508.283203,70.8030599 508.283203,67.3525391 C508.283203,63.8857422 508.844727,61.2612305 509.967773,59.4790039 C511.09082,57.6967773 512.742839,56.8056641 514.923828,56.8056641 C517.088542,56.8056641 518.720215,57.6927083 519.818848,59.4667969 C520.91748,61.2408854 521.466797,63.8694661 521.466797,67.3525391 C521.466797,70.835612 520.91748,73.4641927 519.818848,75.2382812 C518.720215,77.0123698 517.088542,77.8994141 514.923828,77.8994141 Z M550.104492,85.1503906 C547.939779,81.406901 546.324382,77.6878255 545.258301,73.9931641 C544.19222,70.2985026 543.65918,66.5875651 543.65918,62.8603516 C543.65918,59.116862 544.19222,55.4018555 545.258301,51.715332 C546.324382,48.0288086 547.939779,44.3300781 550.104492,40.6191406 L550.104492,40.6191406 L546.198242,40.6191406 C543.74056,44.4602865 541.909505,48.2200521 540.705078,51.8984375 C539.500651,55.5768229 538.898438,59.2307943 538.898438,62.8603516 C538.898438,66.5061849 539.500651,70.1642253 540.705078,73.8344727 C541.909505,77.5047201 543.74056,81.2766927 546.198242,85.1503906 L546.198242,85.1503906 L550.104492,85.1503906 Z M572.931641,81.7080078 C576.919271,81.7080078 580.040202,80.7517904 582.294434,78.8393555 C584.548665,76.9269206 585.675781,74.2942708 585.675781,70.9414062 C585.675781,68.516276 585.041016,66.4939779 583.771484,64.8745117 C582.501953,63.2550456 580.670898,62.1279297 578.27832,61.4931641 C580.410482,60.9397786 582.034017,59.9957682 583.148926,58.6611328 C584.263835,57.3264974 584.821289,55.6582031 584.821289,53.65625 C584.821289,50.7102865 583.759277,48.3461914 581.635254,46.5639648 C579.51123,44.7817383 576.67513,43.890625 573.126953,43.890625 C571.938802,43.890625 570.575684,44.0208333 569.037598,44.28125 C567.499512,44.5416667 565.745768,44.9322917 563.776367,45.453125 L563.776367,45.453125 L563.776367,49.9941406 C565.469076,49.343099 567.088542,48.8548177 568.634766,48.5292969 C570.18099,48.203776 571.678385,48.0410156 573.126953,48.0410156 C575.307943,48.0410156 576.988444,48.5415039 578.168457,49.5424805 C579.34847,50.543457 579.938477,51.9798177 579.938477,53.8515625 C579.938477,55.625651 579.303711,57.0091146 578.03418,58.0019531 C576.764648,58.9947917 574.998698,59.4912109 572.736328,59.4912109 L572.736328,59.4912109 L568.976562,59.4912109 L568.976562,63.5439453 L572.736328,63.5439453 C575.210286,63.5439453 577.171549,64.1665039 578.620117,65.4116211 C580.068685,66.6567383 580.792969,68.3372396 580.792969,70.453125 C580.792969,72.7480469 580.068685,74.5058594 578.620117,75.7265625 C577.171549,76.9472656 575.096354,77.5576172 572.394531,77.5576172 C570.799479,77.5576172 569.196289,77.3460286 567.584961,76.9228516 C565.973633,76.4996745 564.337891,75.8567708 562.677734,74.9941406 L562.677734,74.9941406 L562.677734,79.9013672 C564.354167,80.4873047 566.063151,80.9348958 567.804688,81.2441406 C569.546224,81.5533854 571.255208,81.7080078 572.931641,81.7080078 Z M604.474609,81.7080078 C608.364583,81.7080078 611.306478,80.1210938 613.300293,76.9472656 C615.294108,73.7734375 616.291016,69.0777995 616.291016,62.8603516 C616.291016,56.6429036 615.294108,51.9472656 613.300293,48.7734375 C611.306478,45.5996094 608.364583,44.0126953 604.474609,44.0126953 C600.584635,44.0126953 597.64681,45.5996094 595.661133,48.7734375 C593.675456,51.9472656 592.682617,56.6429036 592.682617,62.8603516 C592.682617,69.0777995 593.675456,73.7734375 595.661133,76.9472656 C597.64681,80.1210938 600.584635,81.7080078 604.474609,81.7080078 Z M598.102539,69.3056641 C597.793294,67.3037109 597.638672,65.1552734 597.638672,62.8603516 C597.638672,57.8147786 598.204264,54.063151 599.335449,51.6054688 C600.466634,49.1477865 602.179688,47.9189453 604.474609,47.9189453 C606.574219,47.9189453 608.242513,49.0013021 609.479492,51.1660156 L609.479492,51.1660156 L598.102539,69.3056641 Z M604.474609,77.8017578 C602.195964,77.8017578 600.446289,76.4589844 599.225586,73.7734375 L599.225586,73.7734375 L610.84668,55.5849609 C611.172201,57.7496745 611.334961,60.1748047 611.334961,62.8603516 C611.334961,67.9059245 610.769368,71.6575521 609.638184,74.1152344 C608.506999,76.5729167 606.785807,77.8017578 604.474609,77.8017578 Z M634.577148,81.7080078 C638.467122,81.7080078 641.409017,80.1210938 643.402832,76.9472656 C645.396647,73.7734375 646.393555,69.0777995 646.393555,62.8603516 C646.393555,56.6429036 645.396647,51.9472656 643.402832,48.7734375 C641.409017,45.5996094 638.467122,44.0126953 634.577148,44.0126953 C630.687174,44.0126953 627.749349,45.5996094 625.763672,48.7734375 C623.777995,51.9472656 622.785156,56.6429036 622.785156,62.8603516 C622.785156,69.0777995 623.777995,73.7734375 625.763672,76.9472656 C627.749349,80.1210938 630.687174,81.7080078 634.577148,81.7080078 Z M628.205078,69.3056641 C627.895833,67.3037109 627.741211,65.1552734 627.741211,62.8603516 C627.741211,57.8147786 628.306803,54.063151 629.437988,51.6054688 C630.569173,49.1477865 632.282227,47.9189453 634.577148,47.9189453 C636.676758,47.9189453 638.345052,49.0013021 639.582031,51.1660156 L639.582031,51.1660156 L628.205078,69.3056641 Z M634.577148,77.8017578 C632.298503,77.8017578 630.548828,76.4589844 629.328125,73.7734375 L629.328125,73.7734375 L640.949219,55.5849609 C641.27474,57.7496745 641.4375,60.1748047 641.4375,62.8603516 C641.4375,67.9059245 640.871908,71.6575521 639.740723,74.1152344 C638.609538,76.5729167 636.888346,77.8017578 634.577148,77.8017578 Z M658.795898,91.4003906 L658.795898,77.5576172 C659.512044,78.9085286 660.492676,79.9379883 661.737793,80.6459961 C662.98291,81.3540039 664.435547,81.7080078 666.095703,81.7080078 C669.383464,81.7080078 671.971354,80.4425456 673.859375,77.9116211 C675.747396,75.3806966 676.691406,71.8935547 676.691406,67.4501953 C676.691406,62.9254557 675.751465,59.3854167 673.871582,56.8300781 C671.991699,54.2747396 669.39974,52.9970703 666.095703,52.9970703 C664.468099,52.9970703 663.031738,53.3510742 661.786621,54.059082 C660.541504,54.7670898 659.544596,55.7965495 658.795898,57.1474609 L658.795898,57.1474609 L658.795898,53.65625 L654.279297,53.65625 L654.279297,91.4003906 L658.795898,91.4003906 Z M665.436523,77.8994141 C663.255534,77.8994141 661.603516,77.0042318 660.480469,75.2138672 C659.357422,73.4235026 658.795898,70.8030599 658.795898,67.3525391 C658.795898,63.8857422 659.357422,61.2612305 660.480469,59.4790039 C661.603516,57.6967773 663.255534,56.8056641 665.436523,56.8056641 C667.601237,56.8056641 669.23291,57.6927083 670.331543,59.4667969 C671.430176,61.2408854 671.979492,63.8694661 671.979492,67.3525391 C671.979492,70.835612 671.430176,73.4641927 670.331543,75.2382812 C669.23291,77.0123698 667.601237,77.8994141 665.436523,77.8994141 Z M686.798828,81 L694.782227,70.0380859 L702.790039,81 L707.990234,81 L697.248047,66.7421875 L707.038086,53.65625 L701.984375,53.65625 L694.782227,63.5439453 L687.53125,53.65625 L682.550781,53.65625 L692.34082,66.7421875 L681.598633,81 L686.798828,81 Z M717.951172,89.203125 L722.833984,89.1787109 L728.253906,78.65625 L728.253906,72.1865234 L720.636719,72.1865234 L720.636719,78.65625 L717.951172,89.203125 Z M783.161133,81.7080078 C787.181315,81.7080078 790.351074,80.601237 792.67041,78.3876953 C794.989746,76.1741536 796.149414,73.1468099 796.149414,69.3056641 C796.149414,65.4970703 795.042643,62.4778646 792.829102,60.2480469 C790.61556,58.0182292 787.620768,56.9033203 783.844727,56.9033203 C783.128581,56.9033203 782.416504,56.9643555 781.708496,57.0864258 C781.000488,57.2084961 780.296549,57.3997396 779.59668,57.6601562 L779.59668,57.6601562 L779.59668,48.7001953 L793.561523,48.7001953 L793.561523,44.5498047 L775.104492,44.5498047 L775.104492,62.8603516 C776.243815,62.258138 777.440104,61.8064779 778.693359,61.5053711 C779.946615,61.2042643 781.232422,61.0537109 782.550781,61.0537109 C785.26888,61.0537109 787.388835,61.7779948 788.910645,63.2265625 C790.432454,64.6751302 791.193359,66.7014974 791.193359,69.3056641 C791.193359,71.9423828 790.456868,73.976888 788.983887,75.4091797 C787.510905,76.8414714 785.415365,77.5576172 782.697266,77.5576172 C781.11849,77.5576172 779.572266,77.3582357 778.058594,76.9594727 C776.544922,76.5607096 775.039388,75.9544271 773.541992,75.140625 L773.541992,75.140625 L773.541992,80.1455078 C774.811523,80.6663411 776.247884,81.0569661 777.851074,81.3173828 C779.454264,81.5777995 781.224284,81.7080078 783.161133,81.7080078 Z M815.192383,81.7080078 C819.082357,81.7080078 822.024251,80.1210938 824.018066,76.9472656 C826.011882,73.7734375 827.008789,69.0777995 827.008789,62.8603516 C827.008789,56.6429036 826.011882,51.9472656 824.018066,48.7734375 C822.024251,45.5996094 819.082357,44.0126953 815.192383,44.0126953 C811.302409,44.0126953 808.364583,45.5996094 806.378906,48.7734375 C804.393229,51.9472656 803.400391,56.6429036 803.400391,62.8603516 C803.400391,69.0777995 804.393229,73.7734375 806.378906,76.9472656 C808.364583,80.1210938 811.302409,81.7080078 815.192383,81.7080078 Z M808.820312,69.3056641 C808.511068,67.3037109 808.356445,65.1552734 808.356445,62.8603516 C808.356445,57.8147786 808.922038,54.063151 810.053223,51.6054688 C811.184408,49.1477865 812.897461,47.9189453 815.192383,47.9189453 C817.291992,47.9189453 818.960286,49.0013021 820.197266,51.1660156 L820.197266,51.1660156 L808.820312,69.3056641 Z M815.192383,77.8017578 C812.913737,77.8017578 811.164062,76.4589844 809.943359,73.7734375 L809.943359,73.7734375 L821.564453,55.5849609 C821.889974,57.7496745 822.052734,60.1748047 822.052734,62.8603516 C822.052734,67.9059245 821.487142,71.6575521 820.355957,74.1152344 C819.224772,76.5729167 817.503581,77.8017578 815.192383,77.8017578 Z M838.849609,61.6396484 C841.030599,61.6396484 842.87793,60.8868815 844.391602,59.3813477 C845.905273,57.8758138 846.662109,56.0325521 846.662109,53.8515625 C846.662109,52.7936198 846.462728,51.7885742 846.063965,50.8364258 C845.665202,49.8842773 845.099609,49.0419922 844.367188,48.3095703 C843.634766,47.5771484 842.79248,47.015625 841.840332,46.625 C840.888184,46.234375 839.891276,46.0390625 838.849609,46.0390625 C836.652344,46.0390625 834.805013,46.7918294 833.307617,48.2973633 C831.810221,49.8028971 831.061523,51.6542969 831.061523,53.8515625 C831.061523,56.0488281 831.810221,57.8961589 833.307617,59.3935547 C834.805013,60.8909505 836.652344,61.6396484 838.849609,61.6396484 Z M838.849609,58.34375 C837.563802,58.34375 836.493652,57.9165039 835.63916,57.0620117 C834.784668,56.2075195 834.357422,55.1373698 834.357422,53.8515625 C834.357422,52.5820312 834.792806,51.5159505 835.663574,50.6533203 C836.534342,49.7906901 837.596354,49.359375 838.849609,49.359375 C840.102865,49.359375 841.168945,49.7947591 842.047852,50.6655273 C842.926758,51.5362956 843.366211,52.5983073 843.366211,53.8515625 C843.366211,55.1048177 842.926758,56.1668294 842.047852,57.0375977 C841.168945,57.9083659 840.102865,58.34375 838.849609,58.34375 Z M832.282227,70.2578125 L859.650391,59.3691406 L858.429688,56.6103516 L831.208008,67.4990234 L832.282227,70.2578125 Z M851.71582,81 C853.913086,81 855.768555,80.2431641 857.282227,78.7294922 C858.795898,77.2158203 859.552734,75.3766276 859.552734,73.2119141 C859.552734,72.1865234 859.349284,71.2018229 858.942383,70.2578125 C858.535482,69.3138021 857.957682,68.4593099 857.208984,67.6943359 C856.460286,66.945638 855.618001,66.3759766 854.682129,65.9853516 C853.746257,65.5947266 852.757487,65.3994141 851.71582,65.3994141 C849.534831,65.3994141 847.695638,66.152181 846.198242,67.6577148 C844.700846,69.1632487 843.952148,71.0146484 843.952148,73.2119141 C843.952148,75.4254557 844.692708,77.2768555 846.173828,78.7661133 C847.654948,80.2553711 849.502279,81 851.71582,81 Z M851.71582,77.7041016 C850.446289,77.7041016 849.384277,77.2727865 848.529785,76.4101562 C847.675293,75.547526 847.248047,74.4814453 847.248047,73.2119141 C847.248047,71.9261068 847.675293,70.851888 848.529785,69.9892578 C849.384277,69.1266276 850.446289,68.6953125 851.71582,68.6953125 C852.952799,68.6953125 854.010742,69.1347656 854.889648,70.0136719 C855.768555,70.8925781 856.208008,71.9586589 856.208008,73.2119141 C856.208008,74.4651693 855.772624,75.527181 854.901855,76.3979492 C854.031087,77.2687174 852.969076,77.7041016 851.71582,77.7041016 Z M868.463867,89.203125 L873.34668,89.1787109 L878.766602,78.65625 L878.766602,72.1865234 L871.149414,72.1865234 L871.149414,78.65625 L868.463867,89.203125 Z M935.602539,81.7080078 C939.313477,81.7080078 942.21875,80.7802734 944.318359,78.9248047 C946.417969,77.0693359 947.467773,74.4977214 947.467773,71.2099609 C947.467773,68.6220703 946.820801,66.5143229 945.526855,64.8867188 C944.23291,63.2591146 942.365234,62.1767578 939.923828,61.6396484 C942.023438,61.1025391 943.663249,60.1015625 944.843262,58.6367188 C946.023275,57.171875 946.613281,55.4059245 946.613281,53.3388672 C946.613281,50.4417318 945.628581,48.1427409 943.65918,46.4418945 C941.689779,44.7410482 939.004232,43.890625 935.602539,43.890625 C932.217122,43.890625 929.539714,44.7410482 927.570312,46.4418945 C925.600911,48.1427409 924.616211,50.4417318 924.616211,53.3388672 C924.616211,55.4059245 925.206217,57.171875 926.38623,58.6367188 C927.566243,60.1015625 929.206055,61.1025391 931.305664,61.6396484 C928.864258,62.1767578 926.996582,63.2631836 925.702637,64.8989258 C924.408691,66.534668 923.761719,68.6546224 923.761719,71.2587891 C923.761719,74.5302734 924.807454,77.089681 926.898926,78.9370117 C928.990397,80.7843424 931.891602,81.7080078 935.602539,81.7080078 Z M935.602539,59.8085938 C933.633138,59.8085938 932.127604,59.2958984 931.085938,58.2705078 C930.044271,57.2451172 929.523438,55.7558594 929.523438,53.8027344 C929.523438,51.8333333 930.044271,50.3237305 931.085938,49.2739258 C932.127604,48.2241211 933.633138,47.6992188 935.602539,47.6992188 C937.604492,47.6992188 939.122233,48.2200521 940.155762,49.2617188 C941.18929,50.3033854 941.706055,51.8170573 941.706055,53.8027344 C941.706055,55.7558594 941.185221,57.2451172 940.143555,58.2705078 C939.101888,59.2958984 937.588216,59.8085938 935.602539,59.8085938 Z M935.602539,77.8505859 C933.437826,77.8505859 931.749186,77.2280273 930.536621,75.9829102 C929.324056,74.737793 928.717773,72.9921875 928.717773,70.7460938 C928.717773,68.5 929.315918,66.7625326 930.512207,65.5336914 C931.708496,64.3048503 933.405273,63.6904297 935.602539,63.6904297 C937.783529,63.6904297 939.480306,64.3089193 940.692871,65.5458984 C941.905436,66.7828776 942.511719,68.516276 942.511719,70.7460938 C942.511719,73.0247396 941.913574,74.7784831 940.717285,76.0073242 C939.520996,77.2361654 937.816081,77.8505859 935.602539,77.8505859 Z M965.705078,81.7080078 C969.595052,81.7080078 972.536947,80.1210938 974.530762,76.9472656 C976.524577,73.7734375 977.521484,69.0777995 977.521484,62.8603516 C977.521484,56.6429036 976.524577,51.9472656 974.530762,48.7734375 C972.536947,45.5996094 969.595052,44.0126953 965.705078,44.0126953 C961.815104,44.0126953 958.877279,45.5996094 956.891602,48.7734375 C954.905924,51.9472656 953.913086,56.6429036 953.913086,62.8603516 C953.913086,69.0777995 954.905924,73.7734375 956.891602,76.9472656 C958.877279,80.1210938 961.815104,81.7080078 965.705078,81.7080078 Z M959.333008,69.3056641 C959.023763,67.3037109 958.869141,65.1552734 958.869141,62.8603516 C958.869141,57.8147786 959.434733,54.063151 960.565918,51.6054688 C961.697103,49.1477865 963.410156,47.9189453 965.705078,47.9189453 C967.804688,47.9189453 969.472982,49.0013021 970.709961,51.1660156 L970.709961,51.1660156 L959.333008,69.3056641 Z M965.705078,77.8017578 C963.426432,77.8017578 961.676758,76.4589844 960.456055,73.7734375 L960.456055,73.7734375 L972.077148,55.5849609 C972.402669,57.7496745 972.56543,60.1748047 972.56543,62.8603516 C972.56543,67.9059245 971.999837,71.6575521 970.868652,74.1152344 C969.737467,76.5729167 968.016276,77.8017578 965.705078,77.8017578 Z M995.807617,81.7080078 C999.697591,81.7080078 1002.63949,80.1210938 1004.6333,76.9472656 C1006.62712,73.7734375 1007.62402,69.0777995 1007.62402,62.8603516 C1007.62402,56.6429036 1006.62712,51.9472656 1004.6333,48.7734375 C1002.63949,45.5996094 999.697591,44.0126953 995.807617,44.0126953 C991.917643,44.0126953 988.979818,45.5996094 986.994141,48.7734375 C985.008464,51.9472656 984.015625,56.6429036 984.015625,62.8603516 C984.015625,69.0777995 985.008464,73.7734375 986.994141,76.9472656 C988.979818,80.1210938 991.917643,81.7080078 995.807617,81.7080078 Z M989.435547,69.3056641 C989.126302,67.3037109 988.97168,65.1552734 988.97168,62.8603516 C988.97168,57.8147786 989.537272,54.063151 990.668457,51.6054688 C991.799642,49.1477865 993.512695,47.9189453 995.807617,47.9189453 C997.907227,47.9189453 999.575521,49.0013021 1000.8125,51.1660156 L1000.8125,51.1660156 L989.435547,69.3056641 Z M995.807617,77.8017578 C993.528971,77.8017578 991.779297,76.4589844 990.558594,73.7734375 L990.558594,73.7734375 L1002.17969,55.5849609 C1002.50521,57.7496745 1002.66797,60.1748047 1002.66797,62.8603516 C1002.66797,67.9059245 1002.10238,71.6575521 1000.97119,74.1152344 C999.840007,76.5729167 998.118815,77.8017578 995.807617,77.8017578 Z M1020.02637,91.4003906 L1020.02637,77.5576172 C1020.74251,78.9085286 1021.72314,79.9379883 1022.96826,80.6459961 C1024.21338,81.3540039 1025.66602,81.7080078 1027.32617,81.7080078 C1030.61393,81.7080078 1033.20182,80.4425456 1035.08984,77.9116211 C1036.97786,75.3806966 1037.92188,71.8935547 1037.92188,67.4501953 C1037.92188,62.9254557 1036.98193,59.3854167 1035.10205,56.8300781 C1033.22217,54.2747396 1030.63021,52.9970703 1027.32617,52.9970703 C1025.69857,52.9970703 1024.26221,53.3510742 1023.01709,54.059082 C1021.77197,54.7670898 1020.77507,55.7965495 1020.02637,57.1474609 L1020.02637,57.1474609 L1020.02637,53.65625 L1015.50977,53.65625 L1015.50977,91.4003906 L1020.02637,91.4003906 Z M1026.66699,77.8994141 C1024.486,77.8994141 1022.83398,77.0042318 1021.71094,75.2138672 C1020.58789,73.4235026 1020.02637,70.8030599 1020.02637,67.3525391 C1020.02637,63.8857422 1020.58789,61.2612305 1021.71094,59.4790039 C1022.83398,57.6967773 1024.486,56.8056641 1026.66699,56.8056641 C1028.83171,56.8056641 1030.46338,57.6927083 1031.56201,59.4667969 C1032.66064,61.2408854 1033.20996,63.8694661 1033.20996,67.3525391 C1033.20996,70.835612 1032.66064,73.4641927 1031.56201,75.2382812 C1030.46338,77.0123698 1028.83171,77.8994141 1026.66699,77.8994141 Z M1048.0293,81 L1056.0127,70.0380859 L1064.02051,81 L1069.2207,81 L1058.47852,66.7421875 L1068.26855,53.65625 L1063.21484,53.65625 L1056.0127,63.5439453 L1048.76172,53.65625 L1043.78125,53.65625 L1053.57129,66.7421875 L1042.8291,81 L1048.0293,81 Z M1083.47852,85.1503906 C1085.9362,81.3092448 1087.76725,77.5494792 1088.97168,73.8710938 C1090.17611,70.1927083 1090.77832,66.5224609 1090.77832,62.8603516 C1090.77832,59.2307943 1090.17611,55.5768229 1088.97168,51.8984375 C1087.76725,48.2200521 1085.9362,44.4602865 1083.47852,40.6191406 L1083.47852,40.6191406 L1079.57227,40.6191406 C1081.73698,44.3463542 1083.35238,48.0572917 1084.41846,51.7519531 C1085.48454,55.4466146 1086.01758,59.1494141 1086.01758,62.8603516 C1086.01758,66.555013 1085.48454,70.2496745 1084.41846,73.9443359 C1083.35238,77.6389974 1081.73698,81.374349 1079.57227,85.1503906 L1079.57227,85.1503906 L1083.47852,85.1503906 Z" id="width:clamp(300px,50%,800px)" fill="#FF8A00" fill-rule="nonzero"></path>
        <g id="fa-regular:image" transform="translate(20.000000, 0.000000)" fill-rule="nonzero">
            <g id="Icon" transform="translate(0.000000, 16.000000)" fill="#000000">
                <path d="M116.90625,0.0787337662 L12.09375,0.0787337662 C5.41447266,0.0787337662 0,5.49838487 0,12.1840503 L0,84.8159497 C0,91.5016151 5.41447266,96.9212662 12.09375,96.9212662 L116.90625,96.9212662 C123.585527,96.9212662 129,91.5016151 129,84.8159497 L129,12.1840503 C129,5.49838487 123.585527,0.0787337662 116.90625,0.0787337662 Z M115.394531,84.8159497 L13.6054688,84.8159497 C12.7705695,84.8159497 12.09375,84.1384828 12.09375,83.3027851 L12.09375,13.6972149 C12.09375,12.8615172 12.7705695,12.1840503 13.6054688,12.1840503 L115.394531,12.1840503 C116.22943,12.1840503 116.90625,12.8615172 116.90625,13.6972149 L116.90625,83.3027851 C116.90625,84.1384828 116.22943,84.8159497 115.394531,84.8159497 L115.394531,84.8159497 Z M32.25,22.2718141 C26.6841035,22.2718141 22.171875,26.7883582 22.171875,32.3595779 C22.171875,37.9307977 26.6841035,42.4473417 32.25,42.4473417 C37.8158965,42.4473417 42.328125,37.9307977 42.328125,32.3595779 C42.328125,26.7883582 37.8158965,22.2718141 32.25,22.2718141 Z M24.1875,72.7106331 L104.8125,72.7106331 L104.8125,52.5351055 L82.7628223,30.4643393 C81.5821699,29.2825578 79.6678301,29.2825578 78.4869258,30.4643393 L48.375,60.6053166 L38.4190723,50.6398669 C37.2384199,49.4580854 35.3240801,49.4580854 34.1431758,50.6398669 L24.1875,60.6053166 L24.1875,72.7106331 Z" id="Icon-Shape"></path>
            </g>
            <rect id="ViewBox" x="0" y="0" width="129" height="129"></rect>
        </g>
        <g id="Group" transform="translate(635.000000, 159.000000)">
            <rect id="Rectangle-2" stroke="#CBE3FF" fill="#FFFFFF" x="0.5" y="0.5" width="841" height="88" rx="7"></rect>
            <rect id="Rectangle-2" fill="#CBE3FF" x="0" y="75" width="842" height="565"></rect>
            <circle id="Oval" fill="#CBE3FF" cx="53.5" cy="40.5" r="21.5"></circle>
            <circle id="Oval" fill="#CBE3FF" cx="112.5" cy="40.5" r="21.5"></circle>
            <circle id="Oval" fill="#CBE3FF" cx="172.5" cy="40.5" r="21.5"></circle>
        </g>
        <g id="fa-regular:image" transform="translate(690.000000, 294.000000)" fill-rule="nonzero">
            <g id="Icon" transform="translate(0.000000, 47.000000)" fill="#000000">
                <path d="M336.21875,0.226461039 L34.78125,0.226461039 C15.5718555,0.226461039 0,15.814942 0,35.0448458 L0,243.955154 C0,263.185058 15.5718555,278.773539 34.78125,278.773539 L336.21875,278.773539 C355.428145,278.773539 371,263.185058 371,243.955154 L371,35.0448458 C371,15.814942 355.428145,0.226461039 336.21875,0.226461039 Z M331.871094,243.955154 L39.1289062,243.955154 C36.727762,243.955154 34.78125,242.006564 34.78125,239.602856 L34.78125,39.3971439 C34.78125,36.993436 36.727762,35.0448458 39.1289062,35.0448458 L331.871094,35.0448458 C334.272238,35.0448458 336.21875,36.993436 336.21875,39.3971439 L336.21875,239.602856 C336.21875,242.006564 334.272238,243.955154 331.871094,243.955154 L331.871094,243.955154 Z M92.75,64.0601664 C76.7426543,64.0601664 63.765625,77.0510508 63.765625,93.075487 C63.765625,109.099923 76.7426543,122.090808 92.75,122.090808 C108.757346,122.090808 121.734375,109.099923 121.734375,93.075487 C121.734375,77.0510508 108.757346,64.0601664 92.75,64.0601664 Z M69.5625,209.136769 L301.4375,209.136769 L301.4375,151.106128 L238.023311,87.6242337 C234.627791,84.2250888 229.122209,84.2250888 225.725965,87.6242337 L139.125,174.318385 L110.492061,145.654875 C107.096541,142.25573 101.590959,142.25573 98.1947148,145.654875 L69.5625,174.318385 L69.5625,209.136769 Z" id="Icon-Shape"></path>
            </g>
            <rect id="ViewBox" x="0" y="0" width="371" height="371"></rect>
        </g>
        <path id="Line" d="M714.147349,274.388163 L715.127872,276.131314 L714.256296,276.621576 L705.583,281.5 L1395.483,281.5 L1395.48397,275.5 L1409.48397,282.5 L1395.48397,289.5 L1395.483,283.5 L705.583,283.5 L714.256296,288.378424 L715.127872,288.868686 L714.147349,290.611837 L713.275774,290.121576 L701.275774,283.371576 L699.726306,282.5 L701.275774,281.628424 L713.275774,274.878424 L714.147349,274.388163 Z" fill="#979797" fill-rule="nonzero"></path>
        <rect id="Rectangle" fill="#CBE3FF" x="950" y="253" width="220" height="60"></rect>
        <path d="M995.708984,299 L995.708984,294.874023 L988.140625,294.874023 L988.140625,262.671875 L983.208984,262.671875 L974.078125,267.017578 L974.078125,271.753906 L983.257812,267.334961 L983.257812,294.874023 L975.591797,294.874023 L975.591797,299 L995.708984,299 Z M1021.9541,299 L1021.9541,290.308594 L1026.8125,290.308594 L1026.8125,286.304688 L1021.9541,286.304688 L1021.9541,262.549805 L1016.24121,262.549805 L1001.59277,285.645508 L1001.59277,290.308594 L1017.04688,290.308594 L1017.04688,299 L1021.9541,299 Z M1017.04688,286.304688 L1005.54785,286.304688 L1017.04688,267.041992 L1017.04688,286.304688 Z M1044.24414,299.708008 C1048.13411,299.708008 1051.07601,298.121094 1053.06982,294.947266 C1055.06364,291.773438 1056.06055,287.077799 1056.06055,280.860352 C1056.06055,274.642904 1055.06364,269.947266 1053.06982,266.773438 C1051.07601,263.599609 1048.13411,262.012695 1044.24414,262.012695 C1040.35417,262.012695 1037.41634,263.599609 1035.43066,266.773438 C1033.44499,269.947266 1032.45215,274.642904 1032.45215,280.860352 C1032.45215,287.077799 1033.44499,291.773438 1035.43066,294.947266 C1037.41634,298.121094 1040.35417,299.708008 1044.24414,299.708008 Z M1037.87207,287.305664 C1037.56283,285.303711 1037.4082,283.155273 1037.4082,280.860352 C1037.4082,275.814779 1037.9738,272.063151 1039.10498,269.605469 C1040.23617,267.147786 1041.94922,265.918945 1044.24414,265.918945 C1046.34375,265.918945 1048.01204,267.001302 1049.24902,269.166016 L1049.24902,269.166016 L1037.87207,287.305664 Z M1044.24414,295.801758 C1041.96549,295.801758 1040.21582,294.458984 1038.99512,291.773438 L1038.99512,291.773438 L1050.61621,273.584961 C1050.94173,275.749674 1051.10449,278.174805 1051.10449,280.860352 C1051.10449,285.905924 1050.5389,289.657552 1049.40771,292.115234 C1048.27653,294.572917 1046.55534,295.801758 1044.24414,295.801758 Z M1074.34668,299.708008 C1078.23665,299.708008 1081.17855,298.121094 1083.17236,294.947266 C1085.16618,291.773438 1086.16309,287.077799 1086.16309,280.860352 C1086.16309,274.642904 1085.16618,269.947266 1083.17236,266.773438 C1081.17855,263.599609 1078.23665,262.012695 1074.34668,262.012695 C1070.45671,262.012695 1067.51888,263.599609 1065.5332,266.773438 C1063.54753,269.947266 1062.55469,274.642904 1062.55469,280.860352 C1062.55469,287.077799 1063.54753,291.773438 1065.5332,294.947266 C1067.51888,298.121094 1070.45671,299.708008 1074.34668,299.708008 Z M1067.97461,287.305664 C1067.66536,285.303711 1067.51074,283.155273 1067.51074,280.860352 C1067.51074,275.814779 1068.07633,272.063151 1069.20752,269.605469 C1070.3387,267.147786 1072.05176,265.918945 1074.34668,265.918945 C1076.44629,265.918945 1078.11458,267.001302 1079.35156,269.166016 L1079.35156,269.166016 L1067.97461,287.305664 Z M1074.34668,295.801758 C1072.06803,295.801758 1070.31836,294.458984 1069.09766,291.773438 L1069.09766,291.773438 L1080.71875,273.584961 C1081.04427,275.749674 1081.20703,278.174805 1081.20703,280.860352 C1081.20703,285.905924 1080.64144,289.657552 1079.51025,292.115234 C1078.37907,294.572917 1076.65788,295.801758 1074.34668,295.801758 Z M1098.56543,309.400391 L1098.56543,295.557617 C1099.28158,296.908529 1100.26221,297.937988 1101.50732,298.645996 C1102.75244,299.354004 1104.20508,299.708008 1105.86523,299.708008 C1109.15299,299.708008 1111.74089,298.442546 1113.62891,295.911621 C1115.51693,293.380697 1116.46094,289.893555 1116.46094,285.450195 C1116.46094,280.925456 1115.521,277.385417 1113.64111,274.830078 C1111.76123,272.27474 1109.16927,270.99707 1105.86523,270.99707 C1104.23763,270.99707 1102.80127,271.351074 1101.55615,272.059082 C1100.31104,272.76709 1099.31413,273.796549 1098.56543,275.147461 L1098.56543,275.147461 L1098.56543,271.65625 L1094.04883,271.65625 L1094.04883,309.400391 L1098.56543,309.400391 Z M1105.20605,295.899414 C1103.02507,295.899414 1101.37305,295.004232 1100.25,293.213867 C1099.12695,291.423503 1098.56543,288.80306 1098.56543,285.352539 C1098.56543,281.885742 1099.12695,279.26123 1100.25,277.479004 C1101.37305,275.696777 1103.02507,274.805664 1105.20605,274.805664 C1107.37077,274.805664 1109.00244,275.692708 1110.10107,277.466797 C1111.19971,279.240885 1111.74902,281.869466 1111.74902,285.352539 C1111.74902,288.835612 1111.19971,291.464193 1110.10107,293.238281 C1109.00244,295.01237 1107.37077,295.899414 1105.20605,295.899414 Z M1126.56836,299 L1134.55176,288.038086 L1142.55957,299 L1147.75977,299 L1137.01758,284.742188 L1146.80762,271.65625 L1141.75391,271.65625 L1134.55176,281.543945 L1127.30078,271.65625 L1122.32031,271.65625 L1132.11035,284.742188 L1121.36816,299 L1126.56836,299 Z" id="1400px" fill="#FF8A00" fill-rule="nonzero"></path>
        <g id="Group" transform="translate(20.000000, 159.000000)">
            <rect id="Rectangle-2" stroke="#CBE3FF" fill="#FFFFFF" x="0.5" y="0.5" width="560" height="88" rx="7"></rect>
            <rect id="Rectangle-2" fill="#CBE3FF" x="0" y="75" width="561" height="565"></rect>
            <circle id="Oval" fill="#CBE3FF" cx="47.5" cy="38.5" r="15.5"></circle>
            <circle id="Oval" fill="#CBE3FF" cx="89.5" cy="38.5" r="15.5"></circle>
            <circle id="Oval" fill="#CBE3FF" cx="132.5" cy="38.5" r="15.5"></circle>
        </g>
        <g id="fa-regular:image" transform="translate(60.000000, 300.000000)" fill-rule="nonzero">
            <g id="Icon" transform="translate(0.000000, 37.000000)" fill="#000000">
                <path d="M269.15625,0.181818182 L27.84375,0.181818182 C12.4658789,0.181818182 0,12.6973011 0,28.1363636 L0,195.863636 C0,211.302699 12.4658789,223.818182 27.84375,223.818182 L269.15625,223.818182 C284.534121,223.818182 297,211.302699 297,195.863636 L297,28.1363636 C297,12.6973011 284.534121,0.181818182 269.15625,0.181818182 Z M265.675781,195.863636 L31.3242188,195.863636 C29.4020089,195.863636 27.84375,194.299177 27.84375,192.369318 L27.84375,31.6306818 C27.84375,29.7008232 29.4020089,28.1363636 31.3242188,28.1363636 L265.675781,28.1363636 C267.597991,28.1363636 269.15625,29.7008232 269.15625,31.6306818 L269.15625,192.369318 C269.15625,194.299177 267.597991,195.863636 265.675781,195.863636 L265.675781,195.863636 Z M74.25,51.4318182 C61.4354941,51.4318182 51.046875,61.8617756 51.046875,74.7272727 C51.046875,87.5927699 61.4354941,98.0227273 74.25,98.0227273 C87.0645059,98.0227273 97.453125,87.5927699 97.453125,74.7272727 C97.453125,61.8617756 87.0645059,51.4318182 74.25,51.4318182 Z M55.6875,167.909091 L241.3125,167.909091 L241.3125,121.318182 L190.546963,70.3506392 C187.828717,67.6215767 183.421283,67.6215767 180.702457,70.3506392 L111.375,139.954545 L88.4532129,116.941548 C85.7349668,114.212486 81.3275332,114.212486 78.608707,116.941548 L55.6875,139.954545 L55.6875,167.909091 Z" id="Icon-Shape"></path>
            </g>
            <rect id="ViewBox" x="0" y="0" width="297" height="297"></rect>
        </g>
        <path id="Line" d="M72.1476898,274.388163 L73.1282123,276.131314 L72.2566368,276.621576 L63.583,281.5 L518.483,281.5 L518.483624,275.5 L532.483624,282.5 L518.483624,289.5 L518.483,283.5 L63.583,283.5 L72.2566368,288.378424 L73.1282123,288.868686 L72.1476898,290.611837 L71.2761143,290.121576 L59.2761143,283.371576 L57.7266467,282.5 L59.2761143,281.628424 L71.2761143,274.878424 L72.1476898,274.388163 Z" fill="#979797" fill-rule="nonzero"></path>
        <rect id="Rectangle" fill="#CBE3FF" x="190" y="253" width="220" height="60"></rect>
        <path d="M244.851562,299 L244.851562,290.308594 L249.709961,290.308594 L249.709961,286.304688 L244.851562,286.304688 L244.851562,262.549805 L239.138672,262.549805 L224.490234,285.645508 L224.490234,290.308594 L239.944336,290.308594 L239.944336,299 L244.851562,299 Z M239.944336,286.304688 L228.445312,286.304688 L239.944336,267.041992 L239.944336,286.304688 Z M267.141602,299.708008 C271.031576,299.708008 273.97347,298.121094 275.967285,294.947266 C277.9611,291.773438 278.958008,287.077799 278.958008,280.860352 C278.958008,274.642904 277.9611,269.947266 275.967285,266.773438 C273.97347,263.599609 271.031576,262.012695 267.141602,262.012695 C263.251628,262.012695 260.313802,263.599609 258.328125,266.773438 C256.342448,269.947266 255.349609,274.642904 255.349609,280.860352 C255.349609,287.077799 256.342448,291.773438 258.328125,294.947266 C260.313802,298.121094 263.251628,299.708008 267.141602,299.708008 Z M260.769531,287.305664 C260.460286,285.303711 260.305664,283.155273 260.305664,280.860352 C260.305664,275.814779 260.871257,272.063151 262.002441,269.605469 C263.133626,267.147786 264.84668,265.918945 267.141602,265.918945 C269.241211,265.918945 270.909505,267.001302 272.146484,269.166016 L272.146484,269.166016 L260.769531,287.305664 Z M267.141602,295.801758 C264.862956,295.801758 263.113281,294.458984 261.892578,291.773438 L261.892578,291.773438 L273.513672,273.584961 C273.839193,275.749674 274.001953,278.174805 274.001953,280.860352 C274.001953,285.905924 273.436361,289.657552 272.305176,292.115234 C271.173991,294.572917 269.452799,295.801758 267.141602,295.801758 Z M297.244141,299.708008 C301.134115,299.708008 304.076009,298.121094 306.069824,294.947266 C308.063639,291.773438 309.060547,287.077799 309.060547,280.860352 C309.060547,274.642904 308.063639,269.947266 306.069824,266.773438 C304.076009,263.599609 301.134115,262.012695 297.244141,262.012695 C293.354167,262.012695 290.416341,263.599609 288.430664,266.773438 C286.444987,269.947266 285.452148,274.642904 285.452148,280.860352 C285.452148,287.077799 286.444987,291.773438 288.430664,294.947266 C290.416341,298.121094 293.354167,299.708008 297.244141,299.708008 Z M290.87207,287.305664 C290.562826,285.303711 290.408203,283.155273 290.408203,280.860352 C290.408203,275.814779 290.973796,272.063151 292.10498,269.605469 C293.236165,267.147786 294.949219,265.918945 297.244141,265.918945 C299.34375,265.918945 301.012044,267.001302 302.249023,269.166016 L302.249023,269.166016 L290.87207,287.305664 Z M297.244141,295.801758 C294.965495,295.801758 293.21582,294.458984 291.995117,291.773438 L291.995117,291.773438 L303.616211,273.584961 C303.941732,275.749674 304.104492,278.174805 304.104492,280.860352 C304.104492,285.905924 303.5389,289.657552 302.407715,292.115234 C301.27653,294.572917 299.555339,295.801758 297.244141,295.801758 Z M321.462891,309.400391 L321.462891,295.557617 C322.179036,296.908529 323.159668,297.937988 324.404785,298.645996 C325.649902,299.354004 327.102539,299.708008 328.762695,299.708008 C332.050456,299.708008 334.638346,298.442546 336.526367,295.911621 C338.414388,293.380697 339.358398,289.893555 339.358398,285.450195 C339.358398,280.925456 338.418457,277.385417 336.538574,274.830078 C334.658691,272.27474 332.066732,270.99707 328.762695,270.99707 C327.135091,270.99707 325.69873,271.351074 324.453613,272.059082 C323.208496,272.76709 322.211589,273.796549 321.462891,275.147461 L321.462891,275.147461 L321.462891,271.65625 L316.946289,271.65625 L316.946289,309.400391 L321.462891,309.400391 Z M328.103516,295.899414 C325.922526,295.899414 324.270508,295.004232 323.147461,293.213867 C322.024414,291.423503 321.462891,288.80306 321.462891,285.352539 C321.462891,281.885742 322.024414,279.26123 323.147461,277.479004 C324.270508,275.696777 325.922526,274.805664 328.103516,274.805664 C330.268229,274.805664 331.899902,275.692708 332.998535,277.466797 C334.097168,279.240885 334.646484,281.869466 334.646484,285.352539 C334.646484,288.835612 334.097168,291.464193 332.998535,293.238281 C331.899902,295.01237 330.268229,295.899414 328.103516,295.899414 Z M349.46582,299 L357.449219,288.038086 L365.457031,299 L370.657227,299 L359.915039,284.742188 L369.705078,271.65625 L364.651367,271.65625 L357.449219,281.543945 L350.198242,271.65625 L345.217773,271.65625 L355.007812,284.742188 L344.265625,299 L349.46582,299 Z" id="400px" fill="#FF8A00" fill-rule="nonzero"></path>
        <path d="M700.488281,678.566406 C703.704427,678.566406 706.240234,677.68099 708.095703,675.910156 C709.951172,674.139323 710.878906,671.717448 710.878906,668.644531 C710.878906,665.597656 709.99349,663.182292 708.222656,661.398438 C706.451823,659.614583 704.05599,658.722656 701.035156,658.722656 C700.46224,658.722656 699.892578,658.771484 699.326172,658.869141 C698.759766,658.966797 698.196615,659.119792 697.636719,659.328125 L697.636719,659.328125 L697.636719,652.160156 L708.808594,652.160156 L708.808594,648.839844 L694.042969,648.839844 L694.042969,663.488281 C694.954427,663.00651 695.911458,662.645182 696.914062,662.404297 C697.916667,662.163411 698.945312,662.042969 700,662.042969 C702.174479,662.042969 703.870443,662.622396 705.087891,663.78125 C706.305339,664.940104 706.914062,666.561198 706.914062,668.644531 C706.914062,670.753906 706.32487,672.38151 705.146484,673.527344 C703.968099,674.673177 702.291667,675.246094 700.117188,675.246094 C698.854167,675.246094 697.617188,675.086589 696.40625,674.767578 C695.195312,674.448568 693.990885,673.963542 692.792969,673.3125 L692.792969,673.3125 L692.792969,677.316406 C693.808594,677.733073 694.957682,678.045573 696.240234,678.253906 C697.522786,678.46224 698.938802,678.566406 700.488281,678.566406 Z M726.113281,678.566406 C729.22526,678.566406 731.578776,677.296875 733.173828,674.757812 C734.76888,672.21875 735.566406,668.46224 735.566406,663.488281 C735.566406,658.514323 734.76888,654.757812 733.173828,652.21875 C731.578776,649.679688 729.22526,648.410156 726.113281,648.410156 C723.001302,648.410156 720.651042,649.679688 719.0625,652.21875 C717.473958,654.757812 716.679688,658.514323 716.679688,663.488281 C716.679688,668.46224 717.473958,672.21875 719.0625,674.757812 C720.651042,677.296875 723.001302,678.566406 726.113281,678.566406 Z M721.015625,668.644531 C720.768229,667.042969 720.644531,665.324219 720.644531,663.488281 C720.644531,659.451823 721.097005,656.450521 722.001953,654.484375 C722.906901,652.518229 724.277344,651.535156 726.113281,651.535156 C727.792969,651.535156 729.127604,652.401042 730.117188,654.132812 L730.117188,654.132812 L721.015625,668.644531 Z M726.113281,675.441406 C724.290365,675.441406 722.890625,674.367188 721.914062,672.21875 L721.914062,672.21875 L731.210938,657.667969 C731.471354,659.39974 731.601562,661.339844 731.601562,663.488281 C731.601562,667.52474 731.149089,670.526042 730.244141,672.492188 C729.339193,674.458333 727.96224,675.441406 726.113281,675.441406 Z M745.039062,662.511719 C746.783854,662.511719 748.261719,661.909505 749.472656,660.705078 C750.683594,659.500651 751.289062,658.026042 751.289062,656.28125 C751.289062,655.434896 751.129557,654.630859 750.810547,653.869141 C750.491536,653.107422 750.039062,652.433594 749.453125,651.847656 C748.867188,651.261719 748.193359,650.8125 747.431641,650.5 C746.669922,650.1875 745.872396,650.03125 745.039062,650.03125 C743.28125,650.03125 741.803385,650.633464 740.605469,651.837891 C739.407552,653.042318 738.808594,654.523438 738.808594,656.28125 C738.808594,658.039062 739.407552,659.516927 740.605469,660.714844 C741.803385,661.91276 743.28125,662.511719 745.039062,662.511719 Z M745.039062,659.875 C744.010417,659.875 743.154297,659.533203 742.470703,658.849609 C741.787109,658.166016 741.445312,657.309896 741.445312,656.28125 C741.445312,655.265625 741.79362,654.41276 742.490234,653.722656 C743.186849,653.032552 744.036458,652.6875 745.039062,652.6875 C746.041667,652.6875 746.894531,653.035807 747.597656,653.732422 C748.300781,654.429036 748.652344,655.278646 748.652344,656.28125 C748.652344,657.283854 748.300781,658.133464 747.597656,658.830078 C746.894531,659.526693 746.041667,659.875 745.039062,659.875 Z M739.785156,669.40625 L761.679688,660.695312 L760.703125,658.488281 L738.925781,667.199219 L739.785156,669.40625 Z M755.332031,678 C757.089844,678 758.574219,677.394531 759.785156,676.183594 C760.996094,674.972656 761.601562,673.501302 761.601562,671.769531 C761.601562,670.949219 761.438802,670.161458 761.113281,669.40625 C760.78776,668.651042 760.325521,667.967448 759.726562,667.355469 C759.127604,666.75651 758.453776,666.300781 757.705078,665.988281 C756.95638,665.675781 756.165365,665.519531 755.332031,665.519531 C753.58724,665.519531 752.115885,666.121745 750.917969,667.326172 C749.720052,668.530599 749.121094,670.011719 749.121094,671.769531 C749.121094,673.540365 749.713542,675.021484 750.898438,676.212891 C752.083333,677.404297 753.561198,678 755.332031,678 Z M755.332031,675.363281 C754.316406,675.363281 753.466797,675.018229 752.783203,674.328125 C752.099609,673.638021 751.757812,672.785156 751.757812,671.769531 C751.757812,670.740885 752.099609,669.88151 752.783203,669.191406 C753.466797,668.501302 754.316406,668.15625 755.332031,668.15625 C756.321615,668.15625 757.167969,668.507812 757.871094,669.210938 C758.574219,669.914062 758.925781,670.766927 758.925781,671.769531 C758.925781,672.772135 758.577474,673.621745 757.880859,674.318359 C757.184245,675.014974 756.334635,675.363281 755.332031,675.363281 Z M792.050781,681.710938 L807.402344,648.839844 L803.691406,648.839844 L788.320312,681.710938 L792.050781,681.710938 Z M855.175781,678 L855.175781,674.679688 L841.777344,674.679688 C844.615885,671.697917 846.728516,669.458333 848.115234,667.960938 C849.501953,666.463542 850.559896,665.291667 851.289062,664.445312 C852.591146,662.934896 853.531901,661.554688 854.111328,660.304688 C854.690755,659.054688 854.980469,657.804688 854.980469,656.554688 C854.980469,654.09375 854.111328,652.104818 852.373047,650.587891 C850.634766,649.070964 848.339844,648.3125 845.488281,648.3125 C844.22526,648.3125 842.945964,648.47526 841.650391,648.800781 C840.354818,649.126302 839.036458,649.608073 837.695312,650.246094 L837.695312,650.246094 L837.695312,654.230469 C839.153646,653.358073 840.533854,652.707031 841.835938,652.277344 C843.138021,651.847656 844.38151,651.632812 845.566406,651.632812 C847.233073,651.632812 848.544922,652.095052 849.501953,653.019531 C850.458984,653.94401 850.9375,655.220052 850.9375,656.847656 C850.9375,657.876302 850.709635,658.882161 850.253906,659.865234 C849.798177,660.848307 848.919271,662.134115 847.617188,663.722656 C846.927083,664.529948 845.670573,665.916667 843.847656,667.882812 C842.02474,669.848958 839.895833,672.114583 837.460938,674.679688 L837.460938,674.679688 L837.460938,678 L855.175781,678 Z M905.019531,662.335938 L905.019531,659.035156 L884.375,659.035156 L884.375,662.335938 L905.019531,662.335938 Z M905.019531,671.535156 L905.019531,668.234375 L884.375,668.234375 L884.375,671.535156 L905.019531,671.535156 Z M942.011719,678 L951.894531,652.921875 L951.894531,648.839844 L933.457031,648.839844 L933.457031,653.917969 L945.625,653.917969 L936.132812,678 L942.011719,678 Z M966.933594,678.566406 C970.16276,678.566406 972.578125,677.309896 974.179688,674.796875 C975.78125,672.283854 976.582031,668.501302 976.582031,663.449219 C976.582031,658.384115 975.78125,654.595052 974.179688,652.082031 C972.578125,649.56901 970.16276,648.3125 966.933594,648.3125 C963.717448,648.3125 961.308594,649.572266 959.707031,652.091797 C958.105469,654.611328 957.304688,658.397135 957.304688,663.449219 C957.304688,668.488281 958.105469,672.267578 959.707031,674.787109 C961.308594,677.306641 963.717448,678.566406 966.933594,678.566406 Z M963.183594,666.476562 C963.13151,665.565104 963.105469,664.55599 963.105469,663.449219 C963.105469,659.86849 963.411458,657.264323 964.023438,655.636719 C964.635417,654.009115 965.605469,653.195312 966.933594,653.195312 C968.27474,653.195312 969.251302,654.009115 969.863281,655.636719 L969.863281,655.636719 L969.902344,655.753906 L963.183594,666.476562 Z M966.933594,673.683594 C965.605469,673.683594 964.635417,672.869792 964.023438,671.242188 C963.958333,671.072917 963.893229,670.884115 963.828125,670.675781 L963.828125,670.675781 L970.644531,659.816406 C970.735677,660.884115 970.78125,662.095052 970.78125,663.449219 C970.78125,667.016927 970.47526,669.614583 969.863281,671.242188 C969.251302,672.869792 968.27474,673.683594 966.933594,673.683594 Z M991.015625,678.566406 C994.244792,678.566406 996.660156,677.309896 998.261719,674.796875 C999.863281,672.283854 1000.66406,668.501302 1000.66406,663.449219 C1000.66406,658.384115 999.863281,654.595052 998.261719,652.082031 C996.660156,649.56901 994.244792,648.3125 991.015625,648.3125 C987.799479,648.3125 985.390625,649.572266 983.789062,652.091797 C982.1875,654.611328 981.386719,658.397135 981.386719,663.449219 C981.386719,668.488281 982.1875,672.267578 983.789062,674.787109 C985.390625,677.306641 987.799479,678.566406 991.015625,678.566406 Z M987.265625,666.476562 C987.213542,665.565104 987.1875,664.55599 987.1875,663.449219 C987.1875,659.86849 987.49349,657.264323 988.105469,655.636719 C988.717448,654.009115 989.6875,653.195312 991.015625,653.195312 C992.356771,653.195312 993.333333,654.009115 993.945312,655.636719 C993.958333,655.675781 993.971354,655.714844 993.984375,655.753906 L993.984375,655.753906 L987.265625,666.476562 Z M991.015625,673.683594 C989.6875,673.683594 988.717448,672.869792 988.105469,671.242188 C988.040365,671.072917 987.97526,670.884115 987.910156,670.675781 L987.910156,670.675781 L994.726562,659.816406 C994.817708,660.884115 994.863281,662.095052 994.863281,663.449219 C994.863281,667.016927 994.557292,669.614583 993.945312,671.242188 C993.333333,672.869792 992.356771,673.683594 991.015625,673.683594 Z M1011.69922,686.320312 L1011.69922,674.914062 C1012.40234,676.138021 1013.2194,677.052734 1014.15039,677.658203 C1015.08138,678.263672 1016.13281,678.566406 1017.30469,678.566406 C1019.89583,678.566406 1021.89128,677.576823 1023.29102,675.597656 C1024.69076,673.61849 1025.39062,670.779948 1025.39062,667.082031 C1025.39062,663.436198 1024.70052,660.610677 1023.32031,658.605469 C1021.9401,656.60026 1020,655.597656 1017.5,655.597656 C1016.1849,655.597656 1015.03906,655.916667 1014.0625,656.554688 C1013.08594,657.192708 1012.29818,658.143229 1011.69922,659.40625 L1011.69922,659.40625 L1011.69922,656.125 L1005.99609,656.125 L1005.99609,686.320312 L1011.69922,686.320312 Z M1015.70312,673.800781 C1014.46615,673.800781 1013.48958,673.201823 1012.77344,672.003906 C1012.05729,670.80599 1011.69922,669.152344 1011.69922,667.042969 C1011.69922,664.933594 1012.05729,663.279948 1012.77344,662.082031 C1013.48958,660.884115 1014.46615,660.285156 1015.70312,660.285156 C1016.9401,660.285156 1017.91016,660.884115 1018.61328,662.082031 C1019.31641,663.279948 1019.66797,664.933594 1019.66797,667.042969 C1019.66797,669.152344 1019.31641,670.80599 1018.61328,672.003906 C1017.91016,673.201823 1016.9401,673.800781 1015.70312,673.800781 Z M1034.90234,678 L1039.17969,670.636719 L1043.47656,678 L1050.15625,678 L1042.14844,666.59375 L1049.51172,656.125 L1042.83203,656.125 L1039.17969,662.648438 L1035.54688,656.125 L1028.86719,656.125 L1036.30859,666.59375 L1028.22266,678 L1034.90234,678 Z" id="50%/2=700px" fill="#000000" fill-rule="nonzero"></path>
        <path d="M68.652832,625.467285 C71.3061523,625.467285 73.3981934,624.736816 74.9289551,623.275879 C76.4597168,621.814941 77.2250977,619.816895 77.2250977,617.281738 C77.2250977,614.768066 76.4946289,612.775391 75.0336914,611.303711 C73.5727539,609.832031 71.5961914,609.096191 69.1040039,609.096191 C68.6313477,609.096191 68.161377,609.136475 67.6940918,609.217041 C67.2268066,609.297607 66.762207,609.423828 66.300293,609.595703 L66.300293,609.595703 L66.300293,603.682129 L75.5170898,603.682129 L75.5170898,600.942871 L63.3354492,600.942871 L63.3354492,613.027832 C64.0874023,612.630371 64.8769531,612.332275 65.7041016,612.133545 C66.53125,611.934814 67.3798828,611.835449 68.25,611.835449 C70.0439453,611.835449 71.4431152,612.313477 72.4475098,613.269531 C73.4519043,614.225586 73.9541016,615.562988 73.9541016,617.281738 C73.9541016,619.021973 73.4680176,620.364746 72.4958496,621.310059 C71.5236816,622.255371 70.140625,622.728027 68.3466797,622.728027 C67.3046875,622.728027 66.2841797,622.596436 65.2851562,622.333252 C64.2861328,622.070068 63.2924805,621.669922 62.3041992,621.132812 L62.3041992,621.132812 L62.3041992,624.436035 C63.1420898,624.779785 64.0900879,625.037598 65.1481934,625.209473 C66.2062988,625.381348 67.3745117,625.467285 68.652832,625.467285 Z M89.793457,625.467285 C92.3608398,625.467285 94.3024902,624.419922 95.6184082,622.325195 C96.9343262,620.230469 97.5922852,617.131348 97.5922852,613.027832 C97.5922852,608.924316 96.9343262,605.825195 95.6184082,603.730469 C94.3024902,601.635742 92.3608398,600.588379 89.793457,600.588379 C87.2260742,600.588379 85.2871094,601.635742 83.9765625,603.730469 C82.6660156,605.825195 82.0107422,608.924316 82.0107422,613.027832 C82.0107422,617.131348 82.6660156,620.230469 83.9765625,622.325195 C85.2871094,624.419922 87.2260742,625.467285 89.793457,625.467285 Z M85.5878906,617.281738 C85.3837891,615.960449 85.2817383,614.54248 85.2817383,613.027832 C85.2817383,609.697754 85.6550293,607.22168 86.4016113,605.599609 C87.1481934,603.977539 88.2788086,603.166504 89.793457,603.166504 C91.1791992,603.166504 92.2802734,603.880859 93.0966797,605.30957 L93.0966797,605.30957 L85.5878906,617.281738 Z M89.793457,622.88916 C88.2895508,622.88916 87.1347656,622.00293 86.3291016,620.230469 L86.3291016,620.230469 L93.9990234,608.226074 C94.2138672,609.654785 94.3212891,611.255371 94.3212891,613.027832 C94.3212891,616.35791 93.947998,618.833984 93.201416,620.456055 C92.454834,622.078125 91.3188477,622.88916 89.793457,622.88916 Z M105.407227,612.222168 C106.84668,612.222168 108.065918,611.725342 109.064941,610.731689 C110.063965,609.738037 110.563477,608.521484 110.563477,607.082031 C110.563477,606.383789 110.431885,605.720459 110.168701,605.092041 C109.905518,604.463623 109.532227,603.907715 109.048828,603.424316 C108.56543,602.940918 108.009521,602.570312 107.381104,602.3125 C106.752686,602.054688 106.094727,601.925781 105.407227,601.925781 C103.957031,601.925781 102.737793,602.422607 101.749512,603.41626 C100.76123,604.409912 100.26709,605.631836 100.26709,607.082031 C100.26709,608.532227 100.76123,609.751465 101.749512,610.739746 C102.737793,611.728027 103.957031,612.222168 105.407227,612.222168 Z M105.407227,610.046875 C104.558594,610.046875 103.852295,609.764893 103.28833,609.200928 C102.724365,608.636963 102.442383,607.930664 102.442383,607.082031 C102.442383,606.244141 102.729736,605.540527 103.304443,604.971191 C103.87915,604.401855 104.580078,604.117188 105.407227,604.117188 C106.234375,604.117188 106.937988,604.404541 107.518066,604.979248 C108.098145,605.553955 108.388184,606.254883 108.388184,607.082031 C108.388184,607.90918 108.098145,608.610107 107.518066,609.184814 C106.937988,609.759521 106.234375,610.046875 105.407227,610.046875 Z M101.072754,617.910156 L119.135742,610.723633 L118.330078,608.902832 L100.36377,616.089355 L101.072754,617.910156 Z M113.898926,625 C115.349121,625 116.57373,624.500488 117.572754,623.501465 C118.571777,622.502441 119.071289,621.288574 119.071289,619.859863 C119.071289,619.183105 118.937012,618.533203 118.668457,617.910156 C118.399902,617.287109 118.018555,616.723145 117.524414,616.218262 C117.030273,615.724121 116.474365,615.348145 115.856689,615.090332 C115.239014,614.83252 114.586426,614.703613 113.898926,614.703613 C112.459473,614.703613 111.245605,615.200439 110.257324,616.194092 C109.269043,617.187744 108.774902,618.409668 108.774902,619.859863 C108.774902,621.320801 109.263672,622.542725 110.241211,623.525635 C111.21875,624.508545 112.437988,625 113.898926,625 Z M113.898926,622.824707 C113.061035,622.824707 112.360107,622.540039 111.796143,621.970703 C111.232178,621.401367 110.950195,620.697754 110.950195,619.859863 C110.950195,619.01123 111.232178,618.302246 111.796143,617.73291 C112.360107,617.163574 113.061035,616.878906 113.898926,616.878906 C114.715332,616.878906 115.413574,617.168945 115.993652,617.749023 C116.57373,618.329102 116.86377,619.032715 116.86377,619.859863 C116.86377,620.687012 116.576416,621.387939 116.001709,621.962646 C115.427002,622.537354 114.726074,622.824707 113.898926,622.824707 Z M144.191895,628.061523 L156.856934,600.942871 L153.79541,600.942871 L141.114258,628.061523 L144.191895,628.061523 Z M196.27002,625 L196.27002,622.260742 L185.216309,622.260742 C187.558105,619.800781 189.301025,617.953125 190.445068,616.717773 C191.589111,615.482422 192.461914,614.515625 193.063477,613.817383 C194.137695,612.571289 194.913818,611.432617 195.391846,610.401367 C195.869873,609.370117 196.108887,608.338867 196.108887,607.307617 C196.108887,605.277344 195.391846,603.636475 193.957764,602.38501 C192.523682,601.133545 190.630371,600.507812 188.277832,600.507812 C187.23584,600.507812 186.18042,600.64209 185.111572,600.910645 C184.042725,601.179199 182.955078,601.57666 181.848633,602.103027 L181.848633,602.103027 L181.848633,605.390137 C183.051758,604.67041 184.19043,604.133301 185.264648,603.778809 C186.338867,603.424316 187.364746,603.24707 188.342285,603.24707 C189.717285,603.24707 190.799561,603.628418 191.589111,604.391113 C192.378662,605.153809 192.773438,606.206543 192.773438,607.549316 C192.773438,608.397949 192.585449,609.227783 192.209473,610.038818 C191.833496,610.849854 191.108398,611.910645 190.03418,613.221191 C189.464844,613.887207 188.428223,615.03125 186.924316,616.65332 C185.42041,618.275391 183.664062,620.144531 181.655273,622.260742 L181.655273,622.260742 L181.655273,625 L196.27002,625 Z M237.391113,612.077148 L237.391113,609.354004 L220.359375,609.354004 L220.359375,612.077148 L237.391113,612.077148 Z M237.391113,619.666504 L237.391113,616.943359 L220.359375,616.943359 L220.359375,619.666504 L237.391113,619.666504 Z M275.740723,625 L275.740723,622.260742 L264.687012,622.260742 C267.028809,619.800781 268.771729,617.953125 269.915771,616.717773 C271.059814,615.482422 271.932617,614.515625 272.53418,613.817383 C273.608398,612.571289 274.384521,611.432617 274.862549,610.401367 C275.340576,609.370117 275.57959,608.338867 275.57959,607.307617 C275.57959,605.277344 274.862549,603.636475 273.428467,602.38501 C271.994385,601.133545 270.101074,600.507812 267.748535,600.507812 C266.706543,600.507812 265.651123,600.64209 264.582275,600.910645 C263.513428,601.179199 262.425781,601.57666 261.319336,602.103027 L261.319336,602.103027 L261.319336,605.390137 C262.522461,604.67041 263.661133,604.133301 264.735352,603.778809 C265.80957,603.424316 266.835449,603.24707 267.812988,603.24707 C269.187988,603.24707 270.270264,603.628418 271.059814,604.391113 C271.849365,605.153809 272.244141,606.206543 272.244141,607.549316 C272.244141,608.397949 272.056152,609.227783 271.680176,610.038818 C271.304199,610.849854 270.579102,611.910645 269.504883,613.221191 C268.935547,613.887207 267.898926,615.03125 266.39502,616.65332 C264.891113,618.275391 263.134766,620.144531 261.125977,622.260742 L261.125977,622.260742 L261.125977,625 L275.740723,625 Z M288.470215,625.467285 C291.037598,625.467285 292.979248,624.419922 294.295166,622.325195 C295.611084,620.230469 296.269043,617.131348 296.269043,613.027832 C296.269043,608.924316 295.611084,605.825195 294.295166,603.730469 C292.979248,601.635742 291.037598,600.588379 288.470215,600.588379 C285.902832,600.588379 283.963867,601.635742 282.65332,603.730469 C281.342773,605.825195 280.6875,608.924316 280.6875,613.027832 C280.6875,617.131348 281.342773,620.230469 282.65332,622.325195 C283.963867,624.419922 285.902832,625.467285 288.470215,625.467285 Z M284.264648,617.281738 C284.060547,615.960449 283.958496,614.54248 283.958496,613.027832 C283.958496,609.697754 284.331787,607.22168 285.078369,605.599609 C285.824951,603.977539 286.955566,603.166504 288.470215,603.166504 C289.855957,603.166504 290.957031,603.880859 291.773438,605.30957 L291.773438,605.30957 L284.264648,617.281738 Z M288.470215,622.88916 C286.966309,622.88916 285.811523,622.00293 285.005859,620.230469 L285.005859,620.230469 L292.675781,608.226074 C292.890625,609.654785 292.998047,611.255371 292.998047,613.027832 C292.998047,616.35791 292.624756,618.833984 291.878174,620.456055 C291.131592,622.078125 289.995605,622.88916 288.470215,622.88916 Z M308.337891,625.467285 C310.905273,625.467285 312.846924,624.419922 314.162842,622.325195 C315.47876,620.230469 316.136719,617.131348 316.136719,613.027832 C316.136719,608.924316 315.47876,605.825195 314.162842,603.730469 C312.846924,601.635742 310.905273,600.588379 308.337891,600.588379 C305.770508,600.588379 303.831543,601.635742 302.520996,603.730469 C301.210449,605.825195 300.555176,608.924316 300.555176,613.027832 C300.555176,617.131348 301.210449,620.230469 302.520996,622.325195 C303.831543,624.419922 305.770508,625.467285 308.337891,625.467285 Z M304.132324,617.281738 C303.928223,615.960449 303.826172,614.54248 303.826172,613.027832 C303.826172,609.697754 304.199463,607.22168 304.946045,605.599609 C305.692627,603.977539 306.823242,603.166504 308.337891,603.166504 C309.723633,603.166504 310.824707,603.880859 311.641113,605.30957 L311.641113,605.30957 L304.132324,617.281738 Z M308.337891,622.88916 C306.833984,622.88916 305.679199,622.00293 304.873535,620.230469 L304.873535,620.230469 L312.543457,608.226074 C312.758301,609.654785 312.865723,611.255371 312.865723,613.027832 C312.865723,616.35791 312.492432,618.833984 311.74585,620.456055 C310.999268,622.078125 309.863281,622.88916 308.337891,622.88916 Z M324.322266,631.864258 L324.322266,622.728027 C324.794922,623.619629 325.442139,624.299072 326.263916,624.766357 C327.085693,625.233643 328.044434,625.467285 329.140137,625.467285 C331.310059,625.467285 333.018066,624.63208 334.26416,622.96167 C335.510254,621.29126 336.133301,618.989746 336.133301,616.057129 C336.133301,613.070801 335.512939,610.734375 334.272217,609.047852 C333.031494,607.361328 331.320801,606.518066 329.140137,606.518066 C328.065918,606.518066 327.11792,606.751709 326.296143,607.218994 C325.474365,607.686279 324.816406,608.365723 324.322266,609.257324 L324.322266,609.257324 L324.322266,606.953125 L321.341309,606.953125 L321.341309,631.864258 L324.322266,631.864258 Z M328.705078,622.953613 C327.265625,622.953613 326.175293,622.362793 325.434082,621.181152 C324.692871,619.999512 324.322266,618.27002 324.322266,615.992676 C324.322266,613.70459 324.692871,611.972412 325.434082,610.796143 C326.175293,609.619873 327.265625,609.031738 328.705078,609.031738 C330.133789,609.031738 331.210693,609.617188 331.935791,610.788086 C332.660889,611.958984 333.023438,613.693848 333.023438,615.992676 C333.023438,618.291504 332.660889,620.026367 331.935791,621.197266 C331.210693,622.368164 330.133789,622.953613 328.705078,622.953613 Z M342.804199,625 L348.073242,617.765137 L353.358398,625 L356.790527,625 L349.700684,615.589844 L356.162109,606.953125 L352.82666,606.953125 L348.073242,613.479004 L343.287598,606.953125 L340.000488,606.953125 L346.461914,615.589844 L339.37207,625 L342.804199,625 Z M396.33252,622.728027 L396.33252,619.779297 L382.63623,614.671387 L396.33252,609.515137 L396.33252,606.58252 L379.300781,613.317871 L379.300781,615.992676 L396.33252,622.728027 Z M426.593262,625.467285 C429.439941,625.467285 431.609863,624.85498 433.103027,623.630371 C434.596191,622.405762 435.342773,620.62793 435.342773,618.296875 C435.342773,616.556641 434.891602,615.1521 433.989258,614.083252 C433.086914,613.014404 431.776367,612.32959 430.057617,612.028809 C431.572266,611.749512 432.737793,611.156006 433.554199,610.248291 C434.370605,609.340576 434.778809,608.172363 434.778809,606.743652 C434.778809,604.799316 434.069824,603.273926 432.651855,602.16748 C431.233887,601.061035 429.257324,600.507812 426.722168,600.507812 C425.733887,600.507812 424.702637,600.596436 423.628418,600.773682 C422.554199,600.950928 421.463867,601.206055 420.357422,601.539062 L420.357422,601.539062 L420.357422,605.857422 C421.463867,605.427734 422.532715,605.100098 423.563965,604.874512 C424.595215,604.648926 425.562012,604.536133 426.464355,604.536133 C427.645996,604.536133 428.561768,604.785889 429.21167,605.2854 C429.861572,605.784912 430.186523,606.480469 430.186523,607.37207 C430.186523,608.220703 429.861572,608.878662 429.21167,609.345947 C428.561768,609.813232 427.645996,610.046875 426.464355,610.046875 L426.464355,610.046875 L423.918457,610.046875 L423.918457,614.236328 L426.464355,614.236328 C427.839355,614.236328 428.902832,614.572021 429.654785,615.243408 C430.406738,615.914795 430.782715,616.868164 430.782715,618.103516 C430.782715,619.113281 430.406738,619.91626 429.654785,620.512451 C428.902832,621.108643 427.882324,621.406738 426.593262,621.406738 C425.304199,621.406738 424.074219,621.275146 422.90332,621.011963 C421.732422,620.748779 420.64209,620.364746 419.632324,619.859863 L419.632324,619.859863 L419.632324,624.274902 C420.706543,624.661621 421.831787,624.957031 423.008057,625.161133 C424.184326,625.365234 425.379395,625.467285 426.593262,625.467285 Z M447.411621,625.467285 C450.075684,625.467285 452.068359,624.430664 453.389648,622.357422 C454.710938,620.28418 455.371582,617.163574 455.371582,612.995605 C455.371582,608.816895 454.710938,605.690918 453.389648,603.617676 C452.068359,601.544434 450.075684,600.507812 447.411621,600.507812 C444.758301,600.507812 442.770996,601.547119 441.449707,603.625732 C440.128418,605.704346 439.467773,608.827637 439.467773,612.995605 C439.467773,617.152832 440.128418,620.270752 441.449707,622.349365 C442.770996,624.427979 444.758301,625.467285 447.411621,625.467285 Z M444.317871,615.493164 C444.274902,614.741211 444.253418,613.908691 444.253418,612.995605 C444.253418,610.041504 444.505859,607.893066 445.010742,606.550293 C445.515625,605.20752 446.315918,604.536133 447.411621,604.536133 C448.518066,604.536133 449.32373,605.20752 449.828613,606.550293 L449.828613,606.550293 L449.86084,606.646973 L444.317871,615.493164 Z M447.411621,621.438965 C446.315918,621.438965 445.515625,620.767578 445.010742,619.424805 C444.957031,619.285156 444.90332,619.129395 444.849609,618.95752 L444.849609,618.95752 L450.473145,609.998535 C450.54834,610.879395 450.585938,611.878418 450.585938,612.995605 C450.585938,615.938965 450.333496,618.082031 449.828613,619.424805 C449.32373,620.767578 448.518066,621.438965 447.411621,621.438965 Z M467.279297,625.467285 C469.943359,625.467285 471.936035,624.430664 473.257324,622.357422 C474.578613,620.28418 475.239258,617.163574 475.239258,612.995605 C475.239258,608.816895 474.578613,605.690918 473.257324,603.617676 C471.936035,601.544434 469.943359,600.507812 467.279297,600.507812 C464.625977,600.507812 462.638672,601.547119 461.317383,603.625732 C459.996094,605.704346 459.335449,608.827637 459.335449,612.995605 C459.335449,617.152832 459.996094,620.270752 461.317383,622.349365 C462.638672,624.427979 464.625977,625.467285 467.279297,625.467285 Z M464.185547,615.493164 C464.142578,614.741211 464.121094,613.908691 464.121094,612.995605 C464.121094,610.041504 464.373535,607.893066 464.878418,606.550293 C465.383301,605.20752 466.183594,604.536133 467.279297,604.536133 C468.385742,604.536133 469.191406,605.20752 469.696289,606.550293 L469.696289,606.550293 L469.728516,606.646973 L464.185547,615.493164 Z M467.279297,621.438965 C466.183594,621.438965 465.383301,620.767578 464.878418,619.424805 C464.824707,619.285156 464.770996,619.129395 464.717285,618.95752 L464.717285,618.95752 L470.34082,609.998535 C470.416016,610.879395 470.453613,611.878418 470.453613,612.995605 C470.453613,615.938965 470.201172,618.082031 469.696289,619.424805 C469.191406,620.767578 468.385742,621.438965 467.279297,621.438965 Z M484.343262,631.864258 L484.343262,622.454102 C484.92334,623.463867 485.597412,624.218506 486.365479,624.718018 C487.133545,625.217529 488.000977,625.467285 488.967773,625.467285 C491.105469,625.467285 492.751709,624.650879 493.906494,623.018066 C495.061279,621.385254 495.638672,619.043457 495.638672,615.992676 C495.638672,612.984863 495.069336,610.653809 493.930664,608.999512 C492.791992,607.345215 491.191406,606.518066 489.128906,606.518066 C488.043945,606.518066 487.098633,606.78125 486.292969,607.307617 C485.487305,607.833984 484.837402,608.618164 484.343262,609.660156 L484.343262,609.660156 L484.343262,606.953125 L479.638184,606.953125 L479.638184,631.864258 L484.343262,631.864258 Z M487.646484,621.535645 C486.625977,621.535645 485.820312,621.041504 485.229492,620.053223 C484.638672,619.064941 484.343262,617.700684 484.343262,615.960449 C484.343262,614.220215 484.638672,612.855957 485.229492,611.867676 C485.820312,610.879395 486.625977,610.385254 487.646484,610.385254 C488.666992,610.385254 489.467285,610.879395 490.047363,611.867676 C490.627441,612.855957 490.91748,614.220215 490.91748,615.960449 C490.91748,617.700684 490.627441,619.064941 490.047363,620.053223 C489.467285,621.041504 488.666992,621.535645 487.646484,621.535645 Z M503.48584,625 L507.014648,618.925293 L510.55957,625 L516.070312,625 L509.463867,615.589844 L515.538574,606.953125 L510.027832,606.953125 L507.014648,612.334961 L504.017578,606.953125 L498.506836,606.953125 L504.645996,615.589844 L497.975098,625 L503.48584,625 Z" id="50%/2=200px&lt;300px" fill="#000000" fill-rule="nonzero"></path>
    </g>
</svg>