<svg
  width="1440"
  height="1024"
  viewBox="0 0 1440 1024"
  fill="none"
  xmlns="http://www.w3.org/2000/svg"
>
  <rect
    x="280"
    y="234"
    width="960"
    height="636"
    rx="24"
    fill="black"
  />
  <rect
    x="320"
    y="274"
    width="420"
    height="258"
    rx="24"
    fill="white"
    fill-opacity="0.2"
  />
  <path
    d="M363.571 337.222C363.009 337.222 362.526 337.023 362.122 336.625C361.724 336.222 361.526 335.739 361.526 335.176C361.526 334.619 361.724 334.142 362.122 333.744C362.526 333.347 363.009 333.148 363.571 333.148C364.116 333.148 364.594 333.347 365.003 333.744C365.412 334.142 365.616 334.619 365.616 335.176C365.616 335.551 365.52 335.895 365.327 336.207C365.139 336.514 364.892 336.761 364.585 336.949C364.278 337.131 363.94 337.222 363.571 337.222ZM363.571 328.051C363.009 328.051 362.526 327.852 362.122 327.455C361.724 327.057 361.526 326.574 361.526 326.006C361.526 325.449 361.724 324.974 362.122 324.582C362.526 324.185 363.009 323.986 363.571 323.986C364.116 323.986 364.594 324.185 365.003 324.582C365.412 324.974 365.616 325.449 365.616 326.006C365.616 326.386 365.52 326.733 365.327 327.045C365.139 327.352 364.892 327.597 364.585 327.778C364.278 327.96 363.94 328.051 363.571 328.051ZM375.637 323.909V326.636H367.558V323.909H375.637ZM369.407 337V322.963C369.407 322.014 369.592 321.227 369.961 320.602C370.336 319.977 370.847 319.509 371.495 319.196C372.143 318.884 372.879 318.727 373.702 318.727C374.259 318.727 374.768 318.77 375.228 318.855C375.694 318.94 376.04 319.017 376.268 319.085L375.62 321.812C375.478 321.767 375.302 321.724 375.092 321.685C374.887 321.645 374.677 321.625 374.461 321.625C373.927 321.625 373.555 321.75 373.344 322C373.134 322.244 373.029 322.588 373.029 323.031V337H369.407ZM383.301 337.256C381.977 337.256 380.832 336.974 379.866 336.412C378.906 335.844 378.165 335.054 377.642 334.043C377.119 333.026 376.858 331.847 376.858 330.506C376.858 329.153 377.119 327.972 377.642 326.96C378.165 325.943 378.906 325.153 379.866 324.591C380.832 324.023 381.977 323.739 383.301 323.739C384.625 323.739 385.767 324.023 386.727 324.591C387.693 325.153 388.438 325.943 388.96 326.96C389.483 327.972 389.744 329.153 389.744 330.506C389.744 331.847 389.483 333.026 388.96 334.043C388.438 335.054 387.693 335.844 386.727 336.412C385.767 336.974 384.625 337.256 383.301 337.256ZM383.318 334.443C383.92 334.443 384.423 334.273 384.827 333.932C385.23 333.585 385.534 333.114 385.739 332.517C385.949 331.92 386.054 331.241 386.054 330.48C386.054 329.719 385.949 329.04 385.739 328.443C385.534 327.847 385.23 327.375 384.827 327.028C384.423 326.682 383.92 326.509 383.318 326.509C382.71 326.509 382.199 326.682 381.784 327.028C381.375 327.375 381.065 327.847 380.855 328.443C380.651 329.04 380.548 329.719 380.548 330.48C380.548 331.241 380.651 331.92 380.855 332.517C381.065 333.114 381.375 333.585 381.784 333.932C382.199 334.273 382.71 334.443 383.318 334.443ZM398.02 337.256C396.679 337.256 395.526 336.972 394.56 336.403C393.599 335.83 392.861 335.034 392.344 334.017C391.832 333 391.577 331.83 391.577 330.506C391.577 329.165 391.835 327.989 392.352 326.977C392.875 325.96 393.616 325.168 394.577 324.599C395.537 324.026 396.679 323.739 398.003 323.739C399.145 323.739 400.145 323.946 401.003 324.361C401.861 324.776 402.54 325.358 403.04 326.108C403.54 326.858 403.815 327.739 403.866 328.75H400.44C400.344 328.097 400.088 327.571 399.673 327.173C399.264 326.77 398.727 326.568 398.062 326.568C397.5 326.568 397.009 326.722 396.588 327.028C396.173 327.33 395.849 327.77 395.616 328.349C395.384 328.929 395.267 329.631 395.267 330.455C395.267 331.29 395.381 332 395.608 332.585C395.841 333.17 396.168 333.616 396.588 333.923C397.009 334.23 397.5 334.384 398.062 334.384C398.477 334.384 398.849 334.298 399.179 334.128C399.514 333.957 399.79 333.71 400.006 333.386C400.227 333.057 400.372 332.662 400.44 332.202H403.866C403.81 333.202 403.537 334.082 403.048 334.844C402.565 335.599 401.898 336.19 401.045 336.616C400.193 337.043 399.185 337.256 398.02 337.256ZM414.586 331.426V323.909H418.217V337H414.731V334.622H414.594C414.299 335.389 413.808 336.006 413.12 336.472C412.438 336.937 411.606 337.17 410.623 337.17C409.748 337.17 408.978 336.972 408.313 336.574C407.648 336.176 407.129 335.611 406.754 334.878C406.384 334.145 406.197 333.267 406.191 332.244V323.909H409.822V331.597C409.827 332.369 410.035 332.98 410.444 333.429C410.853 333.878 411.401 334.102 412.089 334.102C412.526 334.102 412.935 334.003 413.316 333.804C413.697 333.599 414.004 333.298 414.237 332.901C414.475 332.503 414.592 332.011 414.586 331.426ZM432.013 327.642L428.689 327.847C428.632 327.562 428.51 327.307 428.322 327.08C428.135 326.847 427.888 326.662 427.581 326.526C427.28 326.384 426.919 326.312 426.499 326.312C425.936 326.312 425.462 326.432 425.075 326.67C424.689 326.903 424.496 327.216 424.496 327.608C424.496 327.92 424.621 328.185 424.871 328.401C425.121 328.616 425.55 328.79 426.158 328.92L428.527 329.398C429.8 329.659 430.749 330.08 431.374 330.659C431.999 331.239 432.311 332 432.311 332.943C432.311 333.801 432.058 334.554 431.553 335.202C431.053 335.849 430.365 336.355 429.49 336.719C428.621 337.077 427.618 337.256 426.482 337.256C424.749 337.256 423.368 336.895 422.339 336.173C421.317 335.446 420.717 334.457 420.541 333.207L424.112 333.02C424.22 333.548 424.482 333.952 424.896 334.23C425.311 334.503 425.842 334.639 426.49 334.639C427.126 334.639 427.638 334.517 428.024 334.273C428.416 334.023 428.615 333.702 428.621 333.31C428.615 332.98 428.476 332.71 428.203 332.5C427.93 332.284 427.51 332.119 426.942 332.006L424.675 331.554C423.396 331.298 422.445 330.855 421.82 330.224C421.2 329.594 420.891 328.79 420.891 327.812C420.891 326.972 421.118 326.247 421.572 325.639C422.033 325.031 422.678 324.562 423.507 324.233C424.342 323.903 425.32 323.739 426.439 323.739C428.092 323.739 429.393 324.088 430.342 324.787C431.297 325.486 431.854 326.437 432.013 327.642Z"
    fill="white"
  />
  <rect
    x="363"
    y="386"
    width="334"
    height="103"
    rx="21"
    fill="white"
    fill-opacity="0.4"
  />
  <rect
    x="363"
    y="386"
    width="334"
    height="103"
    rx="21"
    stroke="var(--color-primary, #6dfdbb)"
    stroke-width="6"
    stroke-linecap="round"
    stroke-linejoin="round"
  />
  <rect
    x="783"
    y="277"
    width="414"
    height="252"
    rx="21"
    fill="white"
    fill-opacity="0.2"
  />
  <path
    d="M823.571 337.222C823.009 337.222 822.526 337.023 822.122 336.625C821.724 336.222 821.526 335.739 821.526 335.176C821.526 334.619 821.724 334.142 822.122 333.744C822.526 333.347 823.009 333.148 823.571 333.148C824.116 333.148 824.594 333.347 825.003 333.744C825.412 334.142 825.616 334.619 825.616 335.176C825.616 335.551 825.52 335.895 825.327 336.207C825.139 336.514 824.892 336.761 824.585 336.949C824.278 337.131 823.94 337.222 823.571 337.222ZM823.571 328.051C823.009 328.051 822.526 327.852 822.122 327.455C821.724 327.057 821.526 326.574 821.526 326.006C821.526 325.449 821.724 324.974 822.122 324.582C822.526 324.185 823.009 323.986 823.571 323.986C824.116 323.986 824.594 324.185 825.003 324.582C825.412 324.974 825.616 325.449 825.616 326.006C825.616 326.386 825.52 326.733 825.327 327.045C825.139 327.352 824.892 327.597 824.585 327.778C824.278 327.96 823.94 328.051 823.571 328.051ZM835.637 323.909V326.636H827.558V323.909H835.637ZM829.407 337V322.963C829.407 322.014 829.592 321.227 829.961 320.602C830.336 319.977 830.847 319.509 831.495 319.196C832.143 318.884 832.879 318.727 833.702 318.727C834.259 318.727 834.768 318.77 835.228 318.855C835.694 318.94 836.04 319.017 836.268 319.085L835.62 321.812C835.478 321.767 835.302 321.724 835.092 321.685C834.887 321.645 834.677 321.625 834.461 321.625C833.927 321.625 833.555 321.75 833.344 322C833.134 322.244 833.029 322.588 833.029 323.031V337H829.407ZM843.301 337.256C841.977 337.256 840.832 336.974 839.866 336.412C838.906 335.844 838.165 335.054 837.642 334.043C837.119 333.026 836.858 331.847 836.858 330.506C836.858 329.153 837.119 327.972 837.642 326.96C838.165 325.943 838.906 325.153 839.866 324.591C840.832 324.023 841.977 323.739 843.301 323.739C844.625 323.739 845.767 324.023 846.727 324.591C847.693 325.153 848.438 325.943 848.96 326.96C849.483 327.972 849.744 329.153 849.744 330.506C849.744 331.847 849.483 333.026 848.96 334.043C848.438 335.054 847.693 335.844 846.727 336.412C845.767 336.974 844.625 337.256 843.301 337.256ZM843.318 334.443C843.92 334.443 844.423 334.273 844.827 333.932C845.23 333.585 845.534 333.114 845.739 332.517C845.949 331.92 846.054 331.241 846.054 330.48C846.054 329.719 845.949 329.04 845.739 328.443C845.534 327.847 845.23 327.375 844.827 327.028C844.423 326.682 843.92 326.509 843.318 326.509C842.71 326.509 842.199 326.682 841.784 327.028C841.375 327.375 841.065 327.847 840.855 328.443C840.651 329.04 840.548 329.719 840.548 330.48C840.548 331.241 840.651 331.92 840.855 332.517C841.065 333.114 841.375 333.585 841.784 333.932C842.199 334.273 842.71 334.443 843.318 334.443ZM858.02 337.256C856.679 337.256 855.526 336.972 854.56 336.403C853.599 335.83 852.861 335.034 852.344 334.017C851.832 333 851.577 331.83 851.577 330.506C851.577 329.165 851.835 327.989 852.352 326.977C852.875 325.96 853.616 325.168 854.577 324.599C855.537 324.026 856.679 323.739 858.003 323.739C859.145 323.739 860.145 323.946 861.003 324.361C861.861 324.776 862.54 325.358 863.04 326.108C863.54 326.858 863.815 327.739 863.866 328.75H860.44C860.344 328.097 860.088 327.571 859.673 327.173C859.264 326.77 858.727 326.568 858.062 326.568C857.5 326.568 857.009 326.722 856.588 327.028C856.173 327.33 855.849 327.77 855.616 328.349C855.384 328.929 855.267 329.631 855.267 330.455C855.267 331.29 855.381 332 855.608 332.585C855.841 333.17 856.168 333.616 856.588 333.923C857.009 334.23 857.5 334.384 858.062 334.384C858.477 334.384 858.849 334.298 859.179 334.128C859.514 333.957 859.79 333.71 860.006 333.386C860.227 333.057 860.372 332.662 860.44 332.202H863.866C863.81 333.202 863.537 334.082 863.048 334.844C862.565 335.599 861.898 336.19 861.045 336.616C860.193 337.043 859.185 337.256 858.02 337.256ZM874.586 331.426V323.909H878.217V337H874.731V334.622H874.594C874.299 335.389 873.808 336.006 873.12 336.472C872.438 336.937 871.606 337.17 870.623 337.17C869.748 337.17 868.978 336.972 868.313 336.574C867.648 336.176 867.129 335.611 866.754 334.878C866.384 334.145 866.197 333.267 866.191 332.244V323.909H869.822V331.597C869.827 332.369 870.035 332.98 870.444 333.429C870.853 333.878 871.401 334.102 872.089 334.102C872.526 334.102 872.935 334.003 873.316 333.804C873.697 333.599 874.004 333.298 874.237 332.901C874.475 332.503 874.592 332.011 874.586 331.426ZM892.013 327.642L888.689 327.847C888.632 327.562 888.51 327.307 888.322 327.08C888.135 326.847 887.888 326.662 887.581 326.526C887.28 326.384 886.919 326.312 886.499 326.312C885.936 326.312 885.462 326.432 885.075 326.67C884.689 326.903 884.496 327.216 884.496 327.608C884.496 327.92 884.621 328.185 884.871 328.401C885.121 328.616 885.55 328.79 886.158 328.92L888.527 329.398C889.8 329.659 890.749 330.08 891.374 330.659C891.999 331.239 892.311 332 892.311 332.943C892.311 333.801 892.058 334.554 891.553 335.202C891.053 335.849 890.365 336.355 889.49 336.719C888.621 337.077 887.618 337.256 886.482 337.256C884.749 337.256 883.368 336.895 882.339 336.173C881.317 335.446 880.717 334.457 880.541 333.207L884.112 333.02C884.22 333.548 884.482 333.952 884.896 334.23C885.311 334.503 885.842 334.639 886.49 334.639C887.126 334.639 887.638 334.517 888.024 334.273C888.416 334.023 888.615 333.702 888.621 333.31C888.615 332.98 888.476 332.71 888.203 332.5C887.93 332.284 887.51 332.119 886.942 332.006L884.675 331.554C883.396 331.298 882.445 330.855 881.82 330.224C881.2 329.594 880.891 328.79 880.891 327.812C880.891 326.972 881.118 326.247 881.572 325.639C882.033 325.031 882.678 324.562 883.507 324.233C884.342 323.903 885.32 323.739 886.439 323.739C888.092 323.739 889.393 324.088 890.342 324.787C891.297 325.486 891.854 326.437 892.013 327.642ZM902.754 328.392V331.273H894.793V328.392H902.754ZM908.43 337L904.867 323.909H908.54L910.569 332.705H910.688L912.802 323.909H916.407L918.555 332.653H918.665L920.66 323.909H924.325L920.771 337H916.927L914.677 328.767H914.515L912.265 337H908.43ZM926.261 337V323.909H929.892V337H926.261ZM928.085 322.222C927.545 322.222 927.082 322.043 926.696 321.685C926.315 321.321 926.125 320.886 926.125 320.381C926.125 319.881 926.315 319.452 926.696 319.094C927.082 318.73 927.545 318.548 928.085 318.548C928.625 318.548 929.085 318.73 929.466 319.094C929.852 319.452 930.045 319.881 930.045 320.381C930.045 320.886 929.852 321.321 929.466 321.685C929.085 322.043 928.625 322.222 928.085 322.222ZM939.763 323.909V326.636H931.88V323.909H939.763ZM933.67 320.773H937.3V332.977C937.3 333.312 937.352 333.574 937.454 333.761C937.556 333.943 937.698 334.071 937.88 334.145C938.067 334.219 938.283 334.256 938.528 334.256C938.698 334.256 938.869 334.241 939.039 334.213C939.21 334.179 939.34 334.153 939.431 334.136L940.002 336.838C939.82 336.895 939.565 336.96 939.235 337.034C938.906 337.114 938.505 337.162 938.033 337.179C937.158 337.213 936.391 337.097 935.732 336.83C935.079 336.562 934.57 336.148 934.207 335.585C933.843 335.023 933.664 334.312 933.67 333.455V320.773ZM946.04 329.432V337H942.41V319.545H945.938V326.219H946.092C946.387 325.446 946.864 324.841 947.523 324.403C948.183 323.96 949.009 323.739 950.004 323.739C950.913 323.739 951.705 323.938 952.381 324.335C953.063 324.727 953.592 325.293 953.967 326.031C954.347 326.764 954.535 327.642 954.529 328.665V337H950.898V329.312C950.904 328.506 950.7 327.878 950.285 327.429C949.876 326.98 949.302 326.756 948.563 326.756C948.069 326.756 947.631 326.861 947.251 327.071C946.876 327.281 946.58 327.588 946.364 327.991C946.154 328.389 946.046 328.869 946.04 329.432ZM957.386 337V323.909H961.017V337H957.386ZM959.21 322.222C958.67 322.222 958.207 322.043 957.821 321.685C957.44 321.321 957.25 320.886 957.25 320.381C957.25 319.881 957.44 319.452 957.821 319.094C958.207 318.73 958.67 318.548 959.21 318.548C959.75 318.548 960.21 318.73 960.591 319.094C960.977 319.452 961.17 319.881 961.17 320.381C961.17 320.886 960.977 321.321 960.591 321.685C960.21 322.043 959.75 322.222 959.21 322.222ZM967.556 329.432V337H963.925V323.909H967.386V326.219H967.539C967.829 325.457 968.315 324.855 968.996 324.412C969.678 323.963 970.505 323.739 971.477 323.739C972.386 323.739 973.178 323.938 973.854 324.335C974.531 324.733 975.056 325.301 975.431 326.04C975.806 326.773 975.994 327.648 975.994 328.665V337H972.363V329.312C972.369 328.511 972.164 327.886 971.749 327.438C971.335 326.983 970.763 326.756 970.036 326.756C969.548 326.756 969.116 326.861 968.741 327.071C968.371 327.281 968.082 327.588 967.871 327.991C967.667 328.389 967.562 328.869 967.556 329.432Z"
    fill="white"
  />
  <rect
    x="820"
    y="383"
    width="340"
    height="109"
    rx="24"
    fill="white"
    fill-opacity="0.4"
  />
  <rect
    x="783"
    y="277"
    width="414"
    height="252"
    rx="21"
    stroke="var(--color-primary, #6dfdbb)"
    stroke-width="6"
    stroke-linecap="round"
  />
  <rect
    x="320"
    y="572"
    width="420"
    height="258"
    rx="24"
    fill="white"
    fill-opacity="0.2"
  />
  <path
    d="M363.571 635.222C363.009 635.222 362.526 635.023 362.122 634.625C361.724 634.222 361.526 633.739 361.526 633.176C361.526 632.619 361.724 632.142 362.122 631.744C362.526 631.347 363.009 631.148 363.571 631.148C364.116 631.148 364.594 631.347 365.003 631.744C365.412 632.142 365.616 632.619 365.616 633.176C365.616 633.551 365.52 633.895 365.327 634.207C365.139 634.514 364.892 634.761 364.585 634.949C364.278 635.131 363.94 635.222 363.571 635.222ZM363.571 626.051C363.009 626.051 362.526 625.852 362.122 625.455C361.724 625.057 361.526 624.574 361.526 624.006C361.526 623.449 361.724 622.974 362.122 622.582C362.526 622.185 363.009 621.986 363.571 621.986C364.116 621.986 364.594 622.185 365.003 622.582C365.412 622.974 365.616 623.449 365.616 624.006C365.616 624.386 365.52 624.733 365.327 625.045C365.139 625.352 364.892 625.597 364.585 625.778C364.278 625.96 363.94 626.051 363.571 626.051ZM375.637 621.909V624.636H367.558V621.909H375.637ZM369.407 635V620.963C369.407 620.014 369.592 619.227 369.961 618.602C370.336 617.977 370.847 617.509 371.495 617.196C372.143 616.884 372.879 616.727 373.702 616.727C374.259 616.727 374.768 616.77 375.228 616.855C375.694 616.94 376.04 617.017 376.268 617.085L375.62 619.812C375.478 619.767 375.302 619.724 375.092 619.685C374.887 619.645 374.677 619.625 374.461 619.625C373.927 619.625 373.555 619.75 373.344 620C373.134 620.244 373.029 620.588 373.029 621.031V635H369.407ZM383.301 635.256C381.977 635.256 380.832 634.974 379.866 634.412C378.906 633.844 378.165 633.054 377.642 632.043C377.119 631.026 376.858 629.847 376.858 628.506C376.858 627.153 377.119 625.972 377.642 624.96C378.165 623.943 378.906 623.153 379.866 622.591C380.832 622.023 381.977 621.739 383.301 621.739C384.625 621.739 385.767 622.023 386.727 622.591C387.693 623.153 388.438 623.943 388.96 624.96C389.483 625.972 389.744 627.153 389.744 628.506C389.744 629.847 389.483 631.026 388.96 632.043C388.438 633.054 387.693 633.844 386.727 634.412C385.767 634.974 384.625 635.256 383.301 635.256ZM383.318 632.443C383.92 632.443 384.423 632.273 384.827 631.932C385.23 631.585 385.534 631.114 385.739 630.517C385.949 629.92 386.054 629.241 386.054 628.48C386.054 627.719 385.949 627.04 385.739 626.443C385.534 625.847 385.23 625.375 384.827 625.028C384.423 624.682 383.92 624.509 383.318 624.509C382.71 624.509 382.199 624.682 381.784 625.028C381.375 625.375 381.065 625.847 380.855 626.443C380.651 627.04 380.548 627.719 380.548 628.48C380.548 629.241 380.651 629.92 380.855 630.517C381.065 631.114 381.375 631.585 381.784 631.932C382.199 632.273 382.71 632.443 383.318 632.443ZM398.02 635.256C396.679 635.256 395.526 634.972 394.56 634.403C393.599 633.83 392.861 633.034 392.344 632.017C391.832 631 391.577 629.83 391.577 628.506C391.577 627.165 391.835 625.989 392.352 624.977C392.875 623.96 393.616 623.168 394.577 622.599C395.537 622.026 396.679 621.739 398.003 621.739C399.145 621.739 400.145 621.946 401.003 622.361C401.861 622.776 402.54 623.358 403.04 624.108C403.54 624.858 403.815 625.739 403.866 626.75H400.44C400.344 626.097 400.088 625.571 399.673 625.173C399.264 624.77 398.727 624.568 398.062 624.568C397.5 624.568 397.009 624.722 396.588 625.028C396.173 625.33 395.849 625.77 395.616 626.349C395.384 626.929 395.267 627.631 395.267 628.455C395.267 629.29 395.381 630 395.608 630.585C395.841 631.17 396.168 631.616 396.588 631.923C397.009 632.23 397.5 632.384 398.062 632.384C398.477 632.384 398.849 632.298 399.179 632.128C399.514 631.957 399.79 631.71 400.006 631.386C400.227 631.057 400.372 630.662 400.44 630.202H403.866C403.81 631.202 403.537 632.082 403.048 632.844C402.565 633.599 401.898 634.19 401.045 634.616C400.193 635.043 399.185 635.256 398.02 635.256ZM414.586 629.426V621.909H418.217V635H414.731V632.622H414.594C414.299 633.389 413.808 634.006 413.12 634.472C412.438 634.937 411.606 635.17 410.623 635.17C409.748 635.17 408.978 634.972 408.313 634.574C407.648 634.176 407.129 633.611 406.754 632.878C406.384 632.145 406.197 631.267 406.191 630.244V621.909H409.822V629.597C409.827 630.369 410.035 630.98 410.444 631.429C410.853 631.878 411.401 632.102 412.089 632.102C412.526 632.102 412.935 632.003 413.316 631.804C413.697 631.599 414.004 631.298 414.237 630.901C414.475 630.503 414.592 630.011 414.586 629.426ZM432.013 625.642L428.689 625.847C428.632 625.562 428.51 625.307 428.322 625.08C428.135 624.847 427.888 624.662 427.581 624.526C427.28 624.384 426.919 624.312 426.499 624.312C425.936 624.312 425.462 624.432 425.075 624.67C424.689 624.903 424.496 625.216 424.496 625.608C424.496 625.92 424.621 626.185 424.871 626.401C425.121 626.616 425.55 626.79 426.158 626.92L428.527 627.398C429.8 627.659 430.749 628.08 431.374 628.659C431.999 629.239 432.311 630 432.311 630.943C432.311 631.801 432.058 632.554 431.553 633.202C431.053 633.849 430.365 634.355 429.49 634.719C428.621 635.077 427.618 635.256 426.482 635.256C424.749 635.256 423.368 634.895 422.339 634.173C421.317 633.446 420.717 632.457 420.541 631.207L424.112 631.02C424.22 631.548 424.482 631.952 424.896 632.23C425.311 632.503 425.842 632.639 426.49 632.639C427.126 632.639 427.638 632.517 428.024 632.273C428.416 632.023 428.615 631.702 428.621 631.31C428.615 630.98 428.476 630.71 428.203 630.5C427.93 630.284 427.51 630.119 426.942 630.006L424.675 629.554C423.396 629.298 422.445 628.855 421.82 628.224C421.2 627.594 420.891 626.79 420.891 625.812C420.891 624.972 421.118 624.247 421.572 623.639C422.033 623.031 422.678 622.562 423.507 622.233C424.342 621.903 425.32 621.739 426.439 621.739C428.092 621.739 429.393 622.088 430.342 622.787C431.297 623.486 431.854 624.437 432.013 625.642ZM442.754 626.392V629.273H434.793V626.392H442.754ZM458.052 621.909L453.475 635H449.384L444.808 621.909H448.643L451.362 631.276H451.498L454.208 621.909H458.052ZM459.91 635V621.909H463.54V635H459.91ZM461.734 620.222C461.194 620.222 460.731 620.043 460.344 619.685C459.964 619.321 459.773 618.886 459.773 618.381C459.773 617.881 459.964 617.452 460.344 617.094C460.731 616.73 461.194 616.548 461.734 616.548C462.273 616.548 462.734 616.73 463.114 617.094C463.501 617.452 463.694 617.881 463.694 618.381C463.694 618.886 463.501 619.321 463.114 619.685C462.734 620.043 462.273 620.222 461.734 620.222ZM477.341 625.642L474.017 625.847C473.96 625.562 473.838 625.307 473.651 625.08C473.463 624.847 473.216 624.662 472.909 624.526C472.608 624.384 472.247 624.312 471.827 624.312C471.264 624.312 470.79 624.432 470.403 624.67C470.017 624.903 469.824 625.216 469.824 625.608C469.824 625.92 469.949 626.185 470.199 626.401C470.449 626.616 470.878 626.79 471.486 626.92L473.855 627.398C475.128 627.659 476.077 628.08 476.702 628.659C477.327 629.239 477.639 630 477.639 630.943C477.639 631.801 477.386 632.554 476.881 633.202C476.381 633.849 475.693 634.355 474.818 634.719C473.949 635.077 472.946 635.256 471.81 635.256C470.077 635.256 468.696 634.895 467.668 634.173C466.645 633.446 466.045 632.457 465.869 631.207L469.44 631.02C469.548 631.548 469.81 631.952 470.224 632.23C470.639 632.503 471.17 632.639 471.818 632.639C472.455 632.639 472.966 632.517 473.352 632.273C473.744 632.023 473.943 631.702 473.949 631.31C473.943 630.98 473.804 630.71 473.531 630.5C473.259 630.284 472.838 630.119 472.27 630.006L470.003 629.554C468.724 629.298 467.773 628.855 467.148 628.224C466.528 627.594 466.219 626.79 466.219 625.812C466.219 624.972 466.446 624.247 466.901 623.639C467.361 623.031 468.006 622.562 468.835 622.233C469.67 621.903 470.648 621.739 471.767 621.739C473.42 621.739 474.722 622.088 475.67 622.787C476.625 623.486 477.182 624.437 477.341 625.642ZM479.925 635V621.909H483.556V635H479.925ZM481.749 620.222C481.21 620.222 480.746 620.043 480.36 619.685C479.979 619.321 479.789 618.886 479.789 618.381C479.789 617.881 479.979 617.452 480.36 617.094C480.746 616.73 481.21 616.548 481.749 616.548C482.289 616.548 482.749 616.73 483.13 617.094C483.516 617.452 483.71 617.881 483.71 618.381C483.71 618.886 483.516 619.321 483.13 619.685C482.749 620.043 482.289 620.222 481.749 620.222ZM486.533 635V617.545H490.163V624.108H490.274C490.433 623.756 490.663 623.398 490.964 623.034C491.271 622.665 491.669 622.358 492.158 622.114C492.652 621.864 493.266 621.739 493.999 621.739C494.953 621.739 495.834 621.989 496.641 622.489C497.447 622.983 498.092 623.73 498.575 624.73C499.058 625.724 499.3 626.972 499.3 628.472C499.3 629.932 499.064 631.165 498.592 632.17C498.126 633.17 497.49 633.929 496.683 634.446C495.882 634.957 494.984 635.213 493.99 635.213C493.286 635.213 492.686 635.097 492.192 634.864C491.703 634.631 491.303 634.338 490.99 633.986C490.678 633.628 490.439 633.267 490.274 632.903H490.112V635H486.533ZM490.087 628.455C490.087 629.233 490.195 629.912 490.411 630.491C490.626 631.071 490.939 631.523 491.348 631.847C491.757 632.165 492.254 632.324 492.839 632.324C493.43 632.324 493.93 632.162 494.339 631.838C494.749 631.509 495.058 631.054 495.268 630.474C495.484 629.889 495.592 629.216 495.592 628.455C495.592 627.699 495.487 627.034 495.277 626.46C495.067 625.886 494.757 625.437 494.348 625.114C493.939 624.79 493.436 624.628 492.839 624.628C492.249 624.628 491.749 624.784 491.339 625.097C490.936 625.409 490.626 625.852 490.411 626.426C490.195 627 490.087 627.676 490.087 628.455ZM505.353 617.545V635H501.722V617.545H505.353ZM514.227 635.256C512.881 635.256 511.722 634.983 510.75 634.438C509.784 633.886 509.04 633.108 508.517 632.102C507.994 631.091 507.733 629.895 507.733 628.514C507.733 627.168 507.994 625.986 508.517 624.969C509.04 623.952 509.776 623.159 510.724 622.591C511.679 622.023 512.798 621.739 514.082 621.739C514.946 621.739 515.75 621.878 516.494 622.156C517.244 622.429 517.898 622.841 518.455 623.392C519.017 623.943 519.455 624.636 519.767 625.472C520.08 626.301 520.236 627.273 520.236 628.386V629.384H509.182V627.134H516.818C516.818 626.611 516.705 626.148 516.477 625.744C516.25 625.341 515.935 625.026 515.531 624.798C515.134 624.565 514.67 624.449 514.142 624.449C513.591 624.449 513.102 624.577 512.676 624.832C512.256 625.082 511.926 625.42 511.688 625.847C511.449 626.267 511.327 626.736 511.321 627.253V629.392C511.321 630.04 511.44 630.599 511.679 631.071C511.923 631.543 512.267 631.906 512.71 632.162C513.153 632.418 513.679 632.545 514.287 632.545C514.69 632.545 515.06 632.489 515.395 632.375C515.73 632.261 516.017 632.091 516.256 631.864C516.494 631.636 516.676 631.358 516.801 631.028L520.159 631.25C519.989 632.057 519.639 632.761 519.111 633.364C518.588 633.96 517.912 634.426 517.082 634.761C516.259 635.091 515.307 635.256 514.227 635.256Z"
    fill="white"
  />
  <rect
    x="363"
    y="684"
    width="334"
    height="103"
    rx="21"
    fill="white"
    fill-opacity="0.4"
  />
  <rect
    x="363"
    y="684"
    width="334"
    height="103"
    rx="21"
    stroke="var(--color-primary, #6dfdbb)"
    stroke-width="6"
    stroke-linecap="round"
    stroke-linejoin="round"
    stroke-dasharray="6 26"
  />
  <rect
    x="783"
    y="575"
    width="414"
    height="252"
    rx="21"
    fill="white"
    fill-opacity="0.2"
  />
  <path
    d="M823.571 635.222C823.009 635.222 822.526 635.023 822.122 634.625C821.724 634.222 821.526 633.739 821.526 633.176C821.526 632.619 821.724 632.142 822.122 631.744C822.526 631.347 823.009 631.148 823.571 631.148C824.116 631.148 824.594 631.347 825.003 631.744C825.412 632.142 825.616 632.619 825.616 633.176C825.616 633.551 825.52 633.895 825.327 634.207C825.139 634.514 824.892 634.761 824.585 634.949C824.278 635.131 823.94 635.222 823.571 635.222ZM823.571 626.051C823.009 626.051 822.526 625.852 822.122 625.455C821.724 625.057 821.526 624.574 821.526 624.006C821.526 623.449 821.724 622.974 822.122 622.582C822.526 622.185 823.009 621.986 823.571 621.986C824.116 621.986 824.594 622.185 825.003 622.582C825.412 622.974 825.616 623.449 825.616 624.006C825.616 624.386 825.52 624.733 825.327 625.045C825.139 625.352 824.892 625.597 824.585 625.778C824.278 625.96 823.94 626.051 823.571 626.051ZM835.637 621.909V624.636H827.558V621.909H835.637ZM829.407 635V620.963C829.407 620.014 829.592 619.227 829.961 618.602C830.336 617.977 830.847 617.509 831.495 617.196C832.143 616.884 832.879 616.727 833.702 616.727C834.259 616.727 834.768 616.77 835.228 616.855C835.694 616.94 836.04 617.017 836.268 617.085L835.62 619.812C835.478 619.767 835.302 619.724 835.092 619.685C834.887 619.645 834.677 619.625 834.461 619.625C833.927 619.625 833.555 619.75 833.344 620C833.134 620.244 833.029 620.588 833.029 621.031V635H829.407ZM843.301 635.256C841.977 635.256 840.832 634.974 839.866 634.412C838.906 633.844 838.165 633.054 837.642 632.043C837.119 631.026 836.858 629.847 836.858 628.506C836.858 627.153 837.119 625.972 837.642 624.96C838.165 623.943 838.906 623.153 839.866 622.591C840.832 622.023 841.977 621.739 843.301 621.739C844.625 621.739 845.767 622.023 846.727 622.591C847.693 623.153 848.438 623.943 848.96 624.96C849.483 625.972 849.744 627.153 849.744 628.506C849.744 629.847 849.483 631.026 848.96 632.043C848.438 633.054 847.693 633.844 846.727 634.412C845.767 634.974 844.625 635.256 843.301 635.256ZM843.318 632.443C843.92 632.443 844.423 632.273 844.827 631.932C845.23 631.585 845.534 631.114 845.739 630.517C845.949 629.92 846.054 629.241 846.054 628.48C846.054 627.719 845.949 627.04 845.739 626.443C845.534 625.847 845.23 625.375 844.827 625.028C844.423 624.682 843.92 624.509 843.318 624.509C842.71 624.509 842.199 624.682 841.784 625.028C841.375 625.375 841.065 625.847 840.855 626.443C840.651 627.04 840.548 627.719 840.548 628.48C840.548 629.241 840.651 629.92 840.855 630.517C841.065 631.114 841.375 631.585 841.784 631.932C842.199 632.273 842.71 632.443 843.318 632.443ZM858.02 635.256C856.679 635.256 855.526 634.972 854.56 634.403C853.599 633.83 852.861 633.034 852.344 632.017C851.832 631 851.577 629.83 851.577 628.506C851.577 627.165 851.835 625.989 852.352 624.977C852.875 623.96 853.616 623.168 854.577 622.599C855.537 622.026 856.679 621.739 858.003 621.739C859.145 621.739 860.145 621.946 861.003 622.361C861.861 622.776 862.54 623.358 863.04 624.108C863.54 624.858 863.815 625.739 863.866 626.75H860.44C860.344 626.097 860.088 625.571 859.673 625.173C859.264 624.77 858.727 624.568 858.062 624.568C857.5 624.568 857.009 624.722 856.588 625.028C856.173 625.33 855.849 625.77 855.616 626.349C855.384 626.929 855.267 627.631 855.267 628.455C855.267 629.29 855.381 630 855.608 630.585C855.841 631.17 856.168 631.616 856.588 631.923C857.009 632.23 857.5 632.384 858.062 632.384C858.477 632.384 858.849 632.298 859.179 632.128C859.514 631.957 859.79 631.71 860.006 631.386C860.227 631.057 860.372 630.662 860.44 630.202H863.866C863.81 631.202 863.537 632.082 863.048 632.844C862.565 633.599 861.898 634.19 861.045 634.616C860.193 635.043 859.185 635.256 858.02 635.256ZM874.586 629.426V621.909H878.217V635H874.731V632.622H874.594C874.299 633.389 873.808 634.006 873.12 634.472C872.438 634.937 871.606 635.17 870.623 635.17C869.748 635.17 868.978 634.972 868.313 634.574C867.648 634.176 867.129 633.611 866.754 632.878C866.384 632.145 866.197 631.267 866.191 630.244V621.909H869.822V629.597C869.827 630.369 870.035 630.98 870.444 631.429C870.853 631.878 871.401 632.102 872.089 632.102C872.526 632.102 872.935 632.003 873.316 631.804C873.697 631.599 874.004 631.298 874.237 630.901C874.475 630.503 874.592 630.011 874.586 629.426ZM892.013 625.642L888.689 625.847C888.632 625.562 888.51 625.307 888.322 625.08C888.135 624.847 887.888 624.662 887.581 624.526C887.28 624.384 886.919 624.312 886.499 624.312C885.936 624.312 885.462 624.432 885.075 624.67C884.689 624.903 884.496 625.216 884.496 625.608C884.496 625.92 884.621 626.185 884.871 626.401C885.121 626.616 885.55 626.79 886.158 626.92L888.527 627.398C889.8 627.659 890.749 628.08 891.374 628.659C891.999 629.239 892.311 630 892.311 630.943C892.311 631.801 892.058 632.554 891.553 633.202C891.053 633.849 890.365 634.355 889.49 634.719C888.621 635.077 887.618 635.256 886.482 635.256C884.749 635.256 883.368 634.895 882.339 634.173C881.317 633.446 880.717 632.457 880.541 631.207L884.112 631.02C884.22 631.548 884.482 631.952 884.896 632.23C885.311 632.503 885.842 632.639 886.49 632.639C887.126 632.639 887.638 632.517 888.024 632.273C888.416 632.023 888.615 631.702 888.621 631.31C888.615 630.98 888.476 630.71 888.203 630.5C887.93 630.284 887.51 630.119 886.942 630.006L884.675 629.554C883.396 629.298 882.445 628.855 881.82 628.224C881.2 627.594 880.891 626.79 880.891 625.812C880.891 624.972 881.118 624.247 881.572 623.639C882.033 623.031 882.678 622.562 883.507 622.233C884.342 621.903 885.32 621.739 886.439 621.739C888.092 621.739 889.393 622.088 890.342 622.787C891.297 623.486 891.854 624.437 892.013 625.642ZM902.754 626.392V629.273H894.793V626.392H902.754ZM918.052 621.909L913.475 635H909.384L904.808 621.909H908.643L911.362 631.276H911.498L914.208 621.909H918.052ZM919.91 635V621.909H923.54V635H919.91ZM921.734 620.222C921.194 620.222 920.731 620.043 920.344 619.685C919.964 619.321 919.773 618.886 919.773 618.381C919.773 617.881 919.964 617.452 920.344 617.094C920.731 616.73 921.194 616.548 921.734 616.548C922.273 616.548 922.734 616.73 923.114 617.094C923.501 617.452 923.694 617.881 923.694 618.381C923.694 618.886 923.501 619.321 923.114 619.685C922.734 620.043 922.273 620.222 921.734 620.222ZM937.341 625.642L934.017 625.847C933.96 625.562 933.838 625.307 933.651 625.08C933.463 624.847 933.216 624.662 932.909 624.526C932.608 624.384 932.247 624.312 931.827 624.312C931.264 624.312 930.79 624.432 930.403 624.67C930.017 624.903 929.824 625.216 929.824 625.608C929.824 625.92 929.949 626.185 930.199 626.401C930.449 626.616 930.878 626.79 931.486 626.92L933.855 627.398C935.128 627.659 936.077 628.08 936.702 628.659C937.327 629.239 937.639 630 937.639 630.943C937.639 631.801 937.386 632.554 936.881 633.202C936.381 633.849 935.693 634.355 934.818 634.719C933.949 635.077 932.946 635.256 931.81 635.256C930.077 635.256 928.696 634.895 927.668 634.173C926.645 633.446 926.045 632.457 925.869 631.207L929.44 631.02C929.548 631.548 929.81 631.952 930.224 632.23C930.639 632.503 931.17 632.639 931.818 632.639C932.455 632.639 932.966 632.517 933.352 632.273C933.744 632.023 933.943 631.702 933.949 631.31C933.943 630.98 933.804 630.71 933.531 630.5C933.259 630.284 932.838 630.119 932.27 630.006L930.003 629.554C928.724 629.298 927.773 628.855 927.148 628.224C926.528 627.594 926.219 626.79 926.219 625.812C926.219 624.972 926.446 624.247 926.901 623.639C927.361 623.031 928.006 622.562 928.835 622.233C929.67 621.903 930.648 621.739 931.767 621.739C933.42 621.739 934.722 622.088 935.67 622.787C936.625 623.486 937.182 624.437 937.341 625.642ZM939.925 635V621.909H943.556V635H939.925ZM941.749 620.222C941.21 620.222 940.746 620.043 940.36 619.685C939.979 619.321 939.789 618.886 939.789 618.381C939.789 617.881 939.979 617.452 940.36 617.094C940.746 616.73 941.21 616.548 941.749 616.548C942.289 616.548 942.749 616.73 943.13 617.094C943.516 617.452 943.71 617.881 943.71 618.381C943.71 618.886 943.516 619.321 943.13 619.685C942.749 620.043 942.289 620.222 941.749 620.222ZM946.533 635V617.545H950.163V624.108H950.274C950.433 623.756 950.663 623.398 950.964 623.034C951.271 622.665 951.669 622.358 952.158 622.114C952.652 621.864 953.266 621.739 953.999 621.739C954.953 621.739 955.834 621.989 956.641 622.489C957.447 622.983 958.092 623.73 958.575 624.73C959.058 625.724 959.3 626.972 959.3 628.472C959.3 629.932 959.064 631.165 958.592 632.17C958.126 633.17 957.49 633.929 956.683 634.446C955.882 634.957 954.984 635.213 953.99 635.213C953.286 635.213 952.686 635.097 952.192 634.864C951.703 634.631 951.303 634.338 950.99 633.986C950.678 633.628 950.439 633.267 950.274 632.903H950.112V635H946.533ZM950.087 628.455C950.087 629.233 950.195 629.912 950.411 630.491C950.626 631.071 950.939 631.523 951.348 631.847C951.757 632.165 952.254 632.324 952.839 632.324C953.43 632.324 953.93 632.162 954.339 631.838C954.749 631.509 955.058 631.054 955.268 630.474C955.484 629.889 955.592 629.216 955.592 628.455C955.592 627.699 955.487 627.034 955.277 626.46C955.067 625.886 954.757 625.437 954.348 625.114C953.939 624.79 953.436 624.628 952.839 624.628C952.249 624.628 951.749 624.784 951.339 625.097C950.936 625.409 950.626 625.852 950.411 626.426C950.195 627 950.087 627.676 950.087 628.455ZM965.353 617.545V635H961.722V617.545H965.353ZM974.227 635.256C972.881 635.256 971.722 634.983 970.75 634.438C969.784 633.886 969.04 633.108 968.517 632.102C967.994 631.091 967.733 629.895 967.733 628.514C967.733 627.168 967.994 625.986 968.517 624.969C969.04 623.952 969.776 623.159 970.724 622.591C971.679 622.023 972.798 621.739 974.082 621.739C974.946 621.739 975.75 621.878 976.494 622.156C977.244 622.429 977.898 622.841 978.455 623.392C979.017 623.943 979.455 624.636 979.767 625.472C980.08 626.301 980.236 627.273 980.236 628.386V629.384H969.182V627.134H976.818C976.818 626.611 976.705 626.148 976.477 625.744C976.25 625.341 975.935 625.026 975.531 624.798C975.134 624.565 974.67 624.449 974.142 624.449C973.591 624.449 973.102 624.577 972.676 624.832C972.256 625.082 971.926 625.42 971.688 625.847C971.449 626.267 971.327 626.736 971.321 627.253V629.392C971.321 630.04 971.44 630.599 971.679 631.071C971.923 631.543 972.267 631.906 972.71 632.162C973.153 632.418 973.679 632.545 974.287 632.545C974.69 632.545 975.06 632.489 975.395 632.375C975.73 632.261 976.017 632.091 976.256 631.864C976.494 631.636 976.676 631.358 976.801 631.028L980.159 631.25C979.989 632.057 979.639 632.761 979.111 633.364C978.588 633.96 977.912 634.426 977.082 634.761C976.259 635.091 975.307 635.256 974.227 635.256ZM990.761 626.392V629.273H982.801V626.392H990.761ZM996.438 635L992.875 621.909H996.548L998.577 630.705H998.696L1000.81 621.909H1004.41L1006.56 630.653H1006.67L1008.67 621.909H1012.33L1008.78 635H1004.93L1002.68 626.767H1002.52L1000.27 635H996.438ZM1014.27 635V621.909H1017.9V635H1014.27ZM1016.09 620.222C1015.55 620.222 1015.09 620.043 1014.7 619.685C1014.32 619.321 1014.13 618.886 1014.13 618.381C1014.13 617.881 1014.32 617.452 1014.7 617.094C1015.09 616.73 1015.55 616.548 1016.09 616.548C1016.63 616.548 1017.09 616.73 1017.47 617.094C1017.86 617.452 1018.05 617.881 1018.05 618.381C1018.05 618.886 1017.86 619.321 1017.47 619.685C1017.09 620.043 1016.63 620.222 1016.09 620.222ZM1027.77 621.909V624.636H1019.89V621.909H1027.77ZM1021.68 618.773H1025.31V630.977C1025.31 631.312 1025.36 631.574 1025.46 631.761C1025.56 631.943 1025.71 632.071 1025.89 632.145C1026.08 632.219 1026.29 632.256 1026.54 632.256C1026.71 632.256 1026.88 632.241 1027.05 632.213C1027.22 632.179 1027.35 632.153 1027.44 632.136L1028.01 634.838C1027.83 634.895 1027.57 634.96 1027.24 635.034C1026.91 635.114 1026.51 635.162 1026.04 635.179C1025.17 635.213 1024.4 635.097 1023.74 634.83C1023.09 634.562 1022.58 634.148 1022.21 633.585C1021.85 633.023 1021.67 632.312 1021.68 631.455V618.773ZM1034.05 627.432V635H1030.42V617.545H1033.95V624.219H1034.1C1034.39 623.446 1034.87 622.841 1035.53 622.403C1036.19 621.96 1037.02 621.739 1038.01 621.739C1038.92 621.739 1039.71 621.938 1040.39 622.335C1041.07 622.727 1041.6 623.293 1041.97 624.031C1042.36 624.764 1042.54 625.642 1042.54 626.665V635H1038.91V627.312C1038.91 626.506 1038.71 625.878 1038.29 625.429C1037.88 624.98 1037.31 624.756 1036.57 624.756C1036.08 624.756 1035.64 624.861 1035.26 625.071C1034.88 625.281 1034.59 625.588 1034.37 625.991C1034.16 626.389 1034.05 626.869 1034.05 627.432ZM1045.39 635V621.909H1049.02V635H1045.39ZM1047.22 620.222C1046.68 620.222 1046.22 620.043 1045.83 619.685C1045.45 619.321 1045.26 618.886 1045.26 618.381C1045.26 617.881 1045.45 617.452 1045.83 617.094C1046.22 616.73 1046.68 616.548 1047.22 616.548C1047.76 616.548 1048.22 616.73 1048.6 617.094C1048.99 617.452 1049.18 617.881 1049.18 618.381C1049.18 618.886 1048.99 619.321 1048.6 619.685C1048.22 620.043 1047.76 620.222 1047.22 620.222ZM1055.56 627.432V635H1051.93V621.909H1055.39V624.219H1055.55C1055.84 623.457 1056.32 622.855 1057 622.412C1057.69 621.963 1058.51 621.739 1059.48 621.739C1060.39 621.739 1061.19 621.938 1061.86 622.335C1062.54 622.733 1063.06 623.301 1063.44 624.04C1063.81 624.773 1064 625.648 1064 626.665V635H1060.37V627.312C1060.38 626.511 1060.17 625.886 1059.76 625.438C1059.34 624.983 1058.77 624.756 1058.04 624.756C1057.56 624.756 1057.12 624.861 1056.75 625.071C1056.38 625.281 1056.09 625.588 1055.88 625.991C1055.67 626.389 1055.57 626.869 1055.56 627.432Z"
    fill="white"
  />
  <rect
    x="820"
    y="681"
    width="340"
    height="109"
    rx="24"
    fill="white"
    fill-opacity="0.4"
  />
  <rect
    x="783"
    y="575"
    width="414"
    height="252"
    rx="21"
    stroke="var(--color-primary, #6dfdbb)"
    stroke-width="6"
    stroke-linecap="round"
    stroke-dasharray="6 26"
  />
</svg>