<svg width="354" height="400" viewBox="0 0 354 400" fill="none" xmlns="http://www.w3.org/2000/svg">
<rect x="169.5" y="0.5" width="15" height="399" fill="#EFEFEF" stroke="#DDDDDD"/>
<rect x="172" y="3" width="10" height="150" rx="5" fill="#C4C4C4"/>
<path d="M37.7852 26.8906V24.1953H51.6484V26.8906H46.1758V41H43.2578V26.8906H37.7852ZM54.1328 41V23.5977H56.8984V30.3477C57.8594 29.4336 58.9883 28.9766 60.2852 28.9766C61.043 28.9766 61.7422 29.1367 62.3828 29.457C63.0312 29.7773 63.5703 30.2734 64 30.9453C64.4297 31.6094 64.6445 32.3867 64.6445 33.2773V41H61.8906V33.9688C61.8906 33.2266 61.6602 32.6445 61.1992 32.2227C60.7461 31.7852 60.1836 31.5664 59.5117 31.5664C58.4727 31.5664 57.6016 32.0234 56.8984 32.9375V41H54.1328ZM67.6562 37.0625V29.3633H70.4219V36.3711C70.4219 37.1055 70.6445 37.6953 71.0898 38.1406C71.5352 38.5781 72.0859 38.7969 72.7422 38.7969C73.7656 38.7969 74.6211 38.3398 75.3086 37.4258V29.3633H78.0742V41H75.3672V39.9688C74.4688 40.8984 73.3398 41.3633 71.9805 41.3633C70.8555 41.3633 69.8594 41 68.9922 40.2734C68.5859 39.9141 68.2617 39.4609 68.0195 38.9141C67.7773 38.3594 67.6562 37.7422 67.6562 37.0625ZM81.3203 41V29.3633H84.0391V30.3945C84.8984 29.4492 86 28.9766 87.3438 28.9766C88.0234 28.9766 88.6523 29.1172 89.2305 29.3984C89.8086 29.6797 90.2852 30.0898 90.6602 30.6289C91.6914 29.5273 92.9727 28.9766 94.5039 28.9766C95.2539 28.9766 95.9414 29.1367 96.5664 29.457C97.1914 29.7773 97.707 30.2695 98.1133 30.9336C98.5195 31.5898 98.7227 32.3711 98.7227 33.2773V41H95.9688V33.9688C95.9688 33.2188 95.7773 32.6328 95.3945 32.2109C95.0117 31.7812 94.4961 31.5664 93.8477 31.5664C92.8789 31.5664 92.0547 32 91.375 32.8672C91.3984 33.0078 91.4102 33.1445 91.4102 33.2773V41H88.668V33.9688C88.668 33.2188 88.4805 32.6328 88.1055 32.2109C87.7305 31.7812 87.2227 31.5664 86.582 31.5664C85.6133 31.5664 84.7812 32.0234 84.0859 32.9375V41H81.3203ZM101.852 41V23.5977H104.617V30.3945C105.586 29.4492 106.762 28.9766 108.145 28.9766C109.246 28.9766 110.219 29.2578 111.062 29.8203C111.922 30.375 112.566 31.1172 112.996 32.0469C113.441 32.9688 113.664 34 113.664 35.1406C113.664 36.2891 113.441 37.332 112.996 38.2695C112.559 39.1992 111.914 39.9492 111.062 40.5195C110.219 41.082 109.246 41.3633 108.145 41.3633C106.777 41.3633 105.602 40.8906 104.617 39.9453V41H101.852ZM104.617 37.1562C105.453 38.2344 106.438 38.7734 107.57 38.7734C108.547 38.7734 109.324 38.4492 109.902 37.8008C110.488 37.1367 110.781 36.25 110.781 35.1406C110.781 34.0469 110.488 33.1836 109.902 32.5508C109.324 31.9102 108.547 31.5898 107.57 31.5898C106.398 31.5898 105.414 32.1094 104.617 33.1484V37.1562Z" fill="black"/>
<path d="M176 96C176 96 96.7602 145.486 75.0002 112C62.02 92.025 80.5 69.5 75.0002 51" stroke="black" stroke-width="2" stroke-linecap="round"/>
<path d="M257.785 221.891V219.195H271.648V221.891H266.176V236H263.258V221.891H257.785ZM271.719 236V224.363H274.438V226.227C274.742 225.516 275.188 224.965 275.773 224.574C276.359 224.176 277.023 223.977 277.766 223.977C278.109 223.977 278.391 224.008 278.609 224.07V226.953C278.094 226.891 277.711 226.859 277.461 226.859C276.711 226.859 276.066 227.07 275.527 227.492C274.988 227.914 274.641 228.422 274.484 229.016V236H271.719ZM280.18 232.332C280.211 231.16 280.652 230.246 281.504 229.59C282.363 228.926 283.395 228.598 284.598 228.605C285.785 228.605 286.816 228.848 287.691 229.332V228.324C287.691 227.777 287.484 227.324 287.07 226.965C286.656 226.605 286.047 226.426 285.242 226.426C283.805 226.426 282.34 226.875 280.848 227.773V225.055C282.293 224.336 283.816 223.977 285.418 223.977C286.566 223.977 287.512 224.172 288.254 224.562C288.996 224.953 289.547 225.469 289.906 226.109C290.273 226.742 290.457 227.438 290.457 228.195V236H287.832V235.133C286.957 235.953 285.855 236.363 284.527 236.363C283.238 236.363 282.191 236.008 281.387 235.297C280.582 234.57 280.18 233.582 280.18 232.332ZM282.969 232.285C282.969 232.855 283.176 233.309 283.59 233.645C284.012 233.98 284.539 234.148 285.172 234.148C285.703 234.148 286.191 234.047 286.637 233.844C287.098 233.641 287.449 233.414 287.691 233.164V231.395C287.441 231.184 287.086 231 286.625 230.844C286.172 230.68 285.688 230.598 285.172 230.598C284.555 230.598 284.031 230.75 283.602 231.055C283.18 231.359 282.969 231.77 282.969 232.285ZM292.59 230.164C292.59 228.344 293.18 226.859 294.359 225.711C295.555 224.555 297.059 223.977 298.871 223.977C300.113 223.977 301.312 224.25 302.469 224.797V227.738C301.469 227.004 300.293 226.637 298.941 226.637C297.996 226.637 297.184 226.945 296.504 227.562C295.824 228.18 295.484 229.047 295.484 230.164C295.484 231.273 295.824 232.145 296.504 232.777C297.184 233.402 297.996 233.715 298.941 233.715C300.184 233.715 301.359 233.348 302.469 232.613V235.543C301.312 236.09 300.113 236.363 298.871 236.363C297.059 236.363 295.555 235.785 294.359 234.629C293.18 233.465 292.59 231.977 292.59 230.164ZM305.234 236V218.598H308V228.922L312.699 224.363H316.402L311.762 228.852L316.566 236H313.203L309.723 230.844L308 232.496V236H305.234Z" fill="black"/>
<path d="M177 273.487C177 273.487 290.745 349.269 298.636 298.476C301.887 277.551 282.199 263.992 285.486 246" stroke="black" stroke-width="2" stroke-linecap="round"/>
</svg>
