<svg width="600" height="600" viewBox="0 0 600 600" fill="none" xmlns="http://www.w3.org/2000/svg">
<rect width="600" height="600" fill="white"/>
<rect x="102.5" y="102.5" width="395" height="395" fill="white" stroke="#2B3637" stroke-width="5"/>
<path d="M125.402 63.766V73H123.17V63.766H125.402ZM125.708 61.075C125.708 61.267 125.669 61.447 125.591 61.615C125.513 61.783 125.408 61.93 125.276 62.056C125.15 62.182 125 62.284 124.826 62.362C124.652 62.434 124.466 62.47 124.268 62.47C124.076 62.47 123.893 62.434 123.719 62.362C123.551 62.284 123.404 62.182 123.278 62.056C123.152 61.93 123.05 61.783 122.972 61.615C122.9 61.447 122.864 61.267 122.864 61.075C122.864 60.877 122.9 60.691 122.972 60.517C123.05 60.343 123.152 60.193 123.278 60.067C123.404 59.941 123.551 59.842 123.719 59.77C123.893 59.692 124.076 59.653 124.268 59.653C124.466 59.653 124.652 59.692 124.826 59.77C125 59.842 125.15 59.941 125.276 60.067C125.408 60.193 125.513 60.343 125.591 60.517C125.669 60.691 125.708 60.877 125.708 61.075ZM133.302 65.566C133.242 65.662 133.179 65.731 133.113 65.773C133.047 65.809 132.963 65.827 132.861 65.827C132.753 65.827 132.636 65.797 132.51 65.737C132.39 65.677 132.249 65.611 132.087 65.539C131.925 65.461 131.739 65.392 131.529 65.332C131.325 65.272 131.082 65.242 130.8 65.242C130.362 65.242 130.017 65.335 129.765 65.521C129.519 65.707 129.396 65.95 129.396 66.25C129.396 66.448 129.459 66.616 129.585 66.754C129.717 66.886 129.888 67.003 130.098 67.105C130.314 67.207 130.557 67.3 130.827 67.384C131.097 67.462 131.37 67.549 131.646 67.645C131.928 67.741 132.204 67.852 132.474 67.978C132.744 68.098 132.984 68.254 133.194 68.446C133.41 68.632 133.581 68.857 133.707 69.121C133.839 69.385 133.905 69.703 133.905 70.075C133.905 70.519 133.824 70.93 133.662 71.308C133.506 71.68 133.272 72.004 132.96 72.28C132.648 72.55 132.261 72.763 131.799 72.919C131.343 73.069 130.815 73.144 130.215 73.144C129.897 73.144 129.585 73.114 129.279 73.054C128.979 73 128.688 72.922 128.406 72.82C128.13 72.718 127.872 72.598 127.632 72.46C127.398 72.322 127.191 72.172 127.011 72.01L127.524 71.164C127.59 71.062 127.668 70.984 127.758 70.93C127.848 70.876 127.962 70.849 128.1 70.849C128.238 70.849 128.367 70.888 128.487 70.966C128.613 71.044 128.757 71.128 128.919 71.218C129.081 71.308 129.27 71.392 129.486 71.47C129.708 71.548 129.987 71.587 130.323 71.587C130.587 71.587 130.812 71.557 130.998 71.497C131.19 71.431 131.346 71.347 131.466 71.245C131.592 71.143 131.682 71.026 131.736 70.894C131.796 70.756 131.826 70.615 131.826 70.471C131.826 70.255 131.76 70.078 131.628 69.94C131.502 69.802 131.331 69.682 131.115 69.58C130.905 69.478 130.662 69.388 130.386 69.31C130.116 69.226 129.837 69.136 129.549 69.04C129.267 68.944 128.988 68.833 128.712 68.707C128.442 68.575 128.199 68.41 127.983 68.212C127.773 68.014 127.602 67.771 127.47 67.483C127.344 67.195 127.281 66.847 127.281 66.439C127.281 66.061 127.356 65.701 127.506 65.359C127.656 65.017 127.875 64.72 128.163 64.468C128.457 64.21 128.82 64.006 129.252 63.856C129.69 63.7 130.194 63.622 130.764 63.622C131.4 63.622 131.979 63.727 132.501 63.937C133.023 64.147 133.458 64.423 133.806 64.765L133.302 65.566ZM139.664 63.622C140.348 63.622 140.969 63.733 141.527 63.955C142.091 64.177 142.571 64.492 142.967 64.9C143.369 65.308 143.678 65.806 143.894 66.394C144.11 66.982 144.218 67.639 144.218 68.365C144.218 69.097 144.11 69.757 143.894 70.345C143.678 70.933 143.369 71.434 142.967 71.848C142.571 72.262 142.091 72.58 141.527 72.802C140.969 73.024 140.348 73.135 139.664 73.135C138.974 73.135 138.347 73.024 137.783 72.802C137.219 72.58 136.736 72.262 136.334 71.848C135.938 71.434 135.629 70.933 135.407 70.345C135.191 69.757 135.083 69.097 135.083 68.365C135.083 67.639 135.191 66.982 135.407 66.394C135.629 65.806 135.938 65.308 136.334 64.9C136.736 64.492 137.219 64.177 137.783 63.955C138.347 63.733 138.974 63.622 139.664 63.622ZM139.664 71.425C140.432 71.425 140.999 71.167 141.365 70.651C141.737 70.135 141.923 69.379 141.923 68.383C141.923 67.387 141.737 66.628 141.365 66.106C140.999 65.584 140.432 65.323 139.664 65.323C138.884 65.323 138.305 65.587 137.927 66.115C137.555 66.637 137.369 67.393 137.369 68.383C137.369 69.373 137.555 70.129 137.927 70.651C138.305 71.167 138.884 71.425 139.664 71.425ZM148.164 59.626V73H145.941V59.626H148.164ZM155.257 69.058C154.615 69.088 154.075 69.145 153.637 69.229C153.199 69.307 152.848 69.409 152.584 69.535C152.32 69.661 152.131 69.808 152.017 69.976C151.903 70.144 151.846 70.327 151.846 70.525C151.846 70.915 151.96 71.194 152.188 71.362C152.422 71.53 152.725 71.614 153.097 71.614C153.553 71.614 153.946 71.533 154.276 71.371C154.612 71.203 154.939 70.951 155.257 70.615V69.058ZM150.163 65.053C151.225 64.081 152.503 63.595 153.997 63.595C154.537 63.595 155.02 63.685 155.446 63.865C155.872 64.039 156.232 64.285 156.526 64.603C156.82 64.915 157.042 65.29 157.192 65.728C157.348 66.166 157.426 66.646 157.426 67.168V73H156.418C156.208 73 156.046 72.97 155.932 72.91C155.818 72.844 155.728 72.715 155.662 72.523L155.464 71.857C155.23 72.067 155.002 72.253 154.78 72.415C154.558 72.571 154.327 72.703 154.087 72.811C153.847 72.919 153.589 73 153.313 73.054C153.043 73.114 152.743 73.144 152.413 73.144C152.023 73.144 151.663 73.093 151.333 72.991C151.003 72.883 150.718 72.724 150.478 72.514C150.238 72.304 150.052 72.043 149.92 71.731C149.788 71.419 149.722 71.056 149.722 70.642C149.722 70.408 149.761 70.177 149.839 69.949C149.917 69.715 150.043 69.493 150.217 69.283C150.397 69.073 150.628 68.875 150.91 68.689C151.192 68.503 151.537 68.341 151.945 68.203C152.359 68.065 152.839 67.954 153.385 67.87C153.931 67.78 154.555 67.726 155.257 67.708V67.168C155.257 66.55 155.125 66.094 154.861 65.8C154.597 65.5 154.216 65.35 153.718 65.35C153.358 65.35 153.058 65.392 152.818 65.476C152.584 65.56 152.377 65.656 152.197 65.764C152.017 65.866 151.852 65.959 151.702 66.043C151.558 66.127 151.396 66.169 151.216 66.169C151.06 66.169 150.928 66.13 150.82 66.052C150.712 65.968 150.625 65.872 150.559 65.764L150.163 65.053ZM168.712 73H166.489V65.431H162.205V70.435C162.205 70.723 162.274 70.948 162.412 71.11C162.556 71.272 162.751 71.353 162.997 71.353C163.135 71.353 163.249 71.338 163.339 71.308C163.435 71.272 163.516 71.236 163.582 71.2C163.654 71.164 163.717 71.131 163.771 71.101C163.825 71.065 163.879 71.047 163.933 71.047C163.999 71.047 164.053 71.065 164.095 71.101C164.137 71.131 164.182 71.179 164.23 71.245L164.896 72.325C164.572 72.595 164.2 72.799 163.78 72.937C163.36 73.075 162.925 73.144 162.475 73.144C161.671 73.144 161.053 72.919 160.621 72.469C160.195 72.013 159.982 71.386 159.982 70.588V65.431H159.037C158.917 65.431 158.815 65.392 158.731 65.314C158.647 65.236 158.605 65.119 158.605 64.963V64.081L160.09 63.829L160.558 61.318C160.588 61.198 160.645 61.105 160.729 61.039C160.813 60.973 160.921 60.94 161.053 60.94H162.205V63.847H168.712V73ZM169.099 61.039C169.099 61.231 169.06 61.414 168.982 61.588C168.904 61.756 168.799 61.903 168.667 62.029C168.541 62.155 168.388 62.257 168.208 62.335C168.034 62.407 167.848 62.443 167.65 62.443C167.458 62.443 167.278 62.407 167.11 62.335C166.942 62.257 166.795 62.155 166.669 62.029C166.543 61.903 166.441 61.756 166.363 61.588C166.291 61.414 166.255 61.231 166.255 61.039C166.255 60.841 166.291 60.658 166.363 60.49C166.441 60.316 166.543 60.166 166.669 60.04C166.795 59.908 166.942 59.806 167.11 59.734C167.278 59.656 167.458 59.617 167.65 59.617C167.848 59.617 168.034 59.656 168.208 59.734C168.388 59.806 168.541 59.908 168.667 60.04C168.799 60.166 168.904 60.316 168.982 60.49C169.06 60.658 169.099 60.841 169.099 61.039ZM175.067 63.622C175.751 63.622 176.372 63.733 176.93 63.955C177.494 64.177 177.974 64.492 178.37 64.9C178.772 65.308 179.081 65.806 179.297 66.394C179.513 66.982 179.621 67.639 179.621 68.365C179.621 69.097 179.513 69.757 179.297 70.345C179.081 70.933 178.772 71.434 178.37 71.848C177.974 72.262 177.494 72.58 176.93 72.802C176.372 73.024 175.751 73.135 175.067 73.135C174.377 73.135 173.75 73.024 173.186 72.802C172.622 72.58 172.139 72.262 171.737 71.848C171.341 71.434 171.032 70.933 170.81 70.345C170.594 69.757 170.486 69.097 170.486 68.365C170.486 67.639 170.594 66.982 170.81 66.394C171.032 65.806 171.341 65.308 171.737 64.9C172.139 64.492 172.622 64.177 173.186 63.955C173.75 63.733 174.377 63.622 175.067 63.622ZM175.067 71.425C175.835 71.425 176.402 71.167 176.768 70.651C177.14 70.135 177.326 69.379 177.326 68.383C177.326 67.387 177.14 66.628 176.768 66.106C176.402 65.584 175.835 65.323 175.067 65.323C174.287 65.323 173.708 65.587 173.33 66.115C172.958 66.637 172.772 67.393 172.772 68.383C172.772 69.373 172.958 70.129 173.33 70.651C173.708 71.167 174.287 71.425 175.067 71.425ZM183.396 64.9C183.582 64.714 183.777 64.543 183.981 64.387C184.191 64.225 184.41 64.09 184.638 63.982C184.872 63.868 185.121 63.781 185.385 63.721C185.649 63.655 185.937 63.622 186.249 63.622C186.753 63.622 187.2 63.709 187.59 63.883C187.98 64.051 188.304 64.291 188.562 64.603C188.826 64.909 189.024 65.278 189.156 65.71C189.294 66.136 189.363 66.607 189.363 67.123V73H187.14V67.123C187.14 66.559 187.011 66.124 186.753 65.818C186.495 65.506 186.102 65.35 185.574 65.35C185.19 65.35 184.83 65.437 184.494 65.611C184.158 65.785 183.84 66.022 183.54 66.322V73H181.317V63.766H182.676C182.964 63.766 183.153 63.901 183.243 64.171L183.396 64.9ZM191.333 71.776C191.333 71.59 191.366 71.413 191.432 71.245C191.504 71.077 191.6 70.933 191.72 70.813C191.84 70.693 191.984 70.597 192.152 70.525C192.32 70.453 192.5 70.417 192.692 70.417C192.884 70.417 193.061 70.453 193.223 70.525C193.391 70.597 193.535 70.693 193.655 70.813C193.781 70.933 193.88 71.077 193.952 71.245C194.024 71.413 194.06 71.59 194.06 71.776C194.06 71.968 194.024 72.148 193.952 72.316C193.88 72.478 193.781 72.619 193.655 72.739C193.535 72.859 193.391 72.952 193.223 73.018C193.061 73.09 192.884 73.126 192.692 73.126C192.5 73.126 192.32 73.09 192.152 73.018C191.984 72.952 191.84 72.859 191.72 72.739C191.6 72.619 191.504 72.478 191.432 72.316C191.366 72.148 191.333 71.968 191.333 71.776ZM191.333 65.359C191.333 65.173 191.366 64.996 191.432 64.828C191.504 64.66 191.6 64.516 191.72 64.396C191.84 64.276 191.984 64.18 192.152 64.108C192.32 64.036 192.5 64 192.692 64C192.884 64 193.061 64.036 193.223 64.108C193.391 64.18 193.535 64.276 193.655 64.396C193.781 64.516 193.88 64.66 193.952 64.828C194.024 64.996 194.06 65.173 194.06 65.359C194.06 65.551 194.024 65.731 193.952 65.899C193.88 66.061 193.781 66.202 193.655 66.322C193.535 66.442 193.391 66.538 193.223 66.61C193.061 66.676 192.884 66.709 192.692 66.709C192.5 66.709 192.32 66.676 192.152 66.61C191.984 66.538 191.84 66.442 191.72 66.322C191.6 66.202 191.504 66.061 191.432 65.899C191.366 65.731 191.333 65.551 191.333 65.359ZM202.798 63.766V73H200.566V63.766H202.798ZM203.104 61.075C203.104 61.267 203.065 61.447 202.987 61.615C202.909 61.783 202.804 61.93 202.672 62.056C202.546 62.182 202.396 62.284 202.222 62.362C202.048 62.434 201.862 62.47 201.664 62.47C201.472 62.47 201.289 62.434 201.115 62.362C200.947 62.284 200.8 62.182 200.674 62.056C200.548 61.93 200.446 61.783 200.368 61.615C200.296 61.447 200.26 61.267 200.26 61.075C200.26 60.877 200.296 60.691 200.368 60.517C200.446 60.343 200.548 60.193 200.674 60.067C200.8 59.941 200.947 59.842 201.115 59.77C201.289 59.692 201.472 59.653 201.664 59.653C201.862 59.653 202.048 59.692 202.222 59.77C202.396 59.842 202.546 59.941 202.672 60.067C202.804 60.193 202.909 60.343 202.987 60.517C203.065 60.691 203.104 60.877 203.104 61.075ZM210.699 65.566C210.639 65.662 210.576 65.731 210.51 65.773C210.444 65.809 210.36 65.827 210.258 65.827C210.15 65.827 210.033 65.797 209.907 65.737C209.787 65.677 209.646 65.611 209.484 65.539C209.322 65.461 209.136 65.392 208.926 65.332C208.722 65.272 208.479 65.242 208.197 65.242C207.759 65.242 207.414 65.335 207.162 65.521C206.916 65.707 206.793 65.95 206.793 66.25C206.793 66.448 206.856 66.616 206.982 66.754C207.114 66.886 207.285 67.003 207.495 67.105C207.711 67.207 207.954 67.3 208.224 67.384C208.494 67.462 208.767 67.549 209.043 67.645C209.325 67.741 209.601 67.852 209.871 67.978C210.141 68.098 210.381 68.254 210.591 68.446C210.807 68.632 210.978 68.857 211.104 69.121C211.236 69.385 211.302 69.703 211.302 70.075C211.302 70.519 211.221 70.93 211.059 71.308C210.903 71.68 210.669 72.004 210.357 72.28C210.045 72.55 209.658 72.763 209.196 72.919C208.74 73.069 208.212 73.144 207.612 73.144C207.294 73.144 206.982 73.114 206.676 73.054C206.376 73 206.085 72.922 205.803 72.82C205.527 72.718 205.269 72.598 205.029 72.46C204.795 72.322 204.588 72.172 204.408 72.01L204.921 71.164C204.987 71.062 205.065 70.984 205.155 70.93C205.245 70.876 205.359 70.849 205.497 70.849C205.635 70.849 205.764 70.888 205.884 70.966C206.01 71.044 206.154 71.128 206.316 71.218C206.478 71.308 206.667 71.392 206.883 71.47C207.105 71.548 207.384 71.587 207.72 71.587C207.984 71.587 208.209 71.557 208.395 71.497C208.587 71.431 208.743 71.347 208.863 71.245C208.989 71.143 209.079 71.026 209.133 70.894C209.193 70.756 209.223 70.615 209.223 70.471C209.223 70.255 209.157 70.078 209.025 69.94C208.899 69.802 208.728 69.682 208.512 69.58C208.302 69.478 208.059 69.388 207.783 69.31C207.513 69.226 207.234 69.136 206.946 69.04C206.664 68.944 206.385 68.833 206.109 68.707C205.839 68.575 205.596 68.41 205.38 68.212C205.17 68.014 204.999 67.771 204.867 67.483C204.741 67.195 204.678 66.847 204.678 66.439C204.678 66.061 204.753 65.701 204.903 65.359C205.053 65.017 205.272 64.72 205.56 64.468C205.854 64.21 206.217 64.006 206.649 63.856C207.087 63.7 207.591 63.622 208.161 63.622C208.797 63.622 209.376 63.727 209.898 63.937C210.42 64.147 210.855 64.423 211.203 64.765L210.699 65.566ZM217.061 63.622C217.745 63.622 218.366 63.733 218.924 63.955C219.488 64.177 219.968 64.492 220.364 64.9C220.766 65.308 221.075 65.806 221.291 66.394C221.507 66.982 221.615 67.639 221.615 68.365C221.615 69.097 221.507 69.757 221.291 70.345C221.075 70.933 220.766 71.434 220.364 71.848C219.968 72.262 219.488 72.58 218.924 72.802C218.366 73.024 217.745 73.135 217.061 73.135C216.371 73.135 215.744 73.024 215.18 72.802C214.616 72.58 214.133 72.262 213.731 71.848C213.335 71.434 213.026 70.933 212.804 70.345C212.588 69.757 212.48 69.097 212.48 68.365C212.48 67.639 212.588 66.982 212.804 66.394C213.026 65.806 213.335 65.308 213.731 64.9C214.133 64.492 214.616 64.177 215.18 63.955C215.744 63.733 216.371 63.622 217.061 63.622ZM217.061 71.425C217.829 71.425 218.396 71.167 218.762 70.651C219.134 70.135 219.32 69.379 219.32 68.383C219.32 67.387 219.134 66.628 218.762 66.106C218.396 65.584 217.829 65.323 217.061 65.323C216.281 65.323 215.702 65.587 215.324 66.115C214.952 66.637 214.766 67.393 214.766 68.383C214.766 69.373 214.952 70.129 215.324 70.651C215.702 71.167 216.281 71.425 217.061 71.425ZM225.561 59.626V73H223.338V59.626H225.561ZM232.654 69.058C232.012 69.088 231.472 69.145 231.034 69.229C230.596 69.307 230.245 69.409 229.981 69.535C229.717 69.661 229.528 69.808 229.414 69.976C229.3 70.144 229.243 70.327 229.243 70.525C229.243 70.915 229.357 71.194 229.585 71.362C229.819 71.53 230.122 71.614 230.494 71.614C230.95 71.614 231.343 71.533 231.673 71.371C232.009 71.203 232.336 70.951 232.654 70.615V69.058ZM227.56 65.053C228.622 64.081 229.9 63.595 231.394 63.595C231.934 63.595 232.417 63.685 232.843 63.865C233.269 64.039 233.629 64.285 233.923 64.603C234.217 64.915 234.439 65.29 234.589 65.728C234.745 66.166 234.823 66.646 234.823 67.168V73H233.815C233.605 73 233.443 72.97 233.329 72.91C233.215 72.844 233.125 72.715 233.059 72.523L232.861 71.857C232.627 72.067 232.399 72.253 232.177 72.415C231.955 72.571 231.724 72.703 231.484 72.811C231.244 72.919 230.986 73 230.71 73.054C230.44 73.114 230.14 73.144 229.81 73.144C229.42 73.144 229.06 73.093 228.73 72.991C228.4 72.883 228.115 72.724 227.875 72.514C227.635 72.304 227.449 72.043 227.317 71.731C227.185 71.419 227.119 71.056 227.119 70.642C227.119 70.408 227.158 70.177 227.236 69.949C227.314 69.715 227.44 69.493 227.614 69.283C227.794 69.073 228.025 68.875 228.307 68.689C228.589 68.503 228.934 68.341 229.342 68.203C229.756 68.065 230.236 67.954 230.782 67.87C231.328 67.78 231.952 67.726 232.654 67.708V67.168C232.654 66.55 232.522 66.094 232.258 65.8C231.994 65.5 231.613 65.35 231.115 65.35C230.755 65.35 230.455 65.392 230.215 65.476C229.981 65.56 229.774 65.656 229.594 65.764C229.414 65.866 229.249 65.959 229.099 66.043C228.955 66.127 228.793 66.169 228.613 66.169C228.457 66.169 228.325 66.13 228.217 66.052C228.109 65.968 228.022 65.872 227.956 65.764L227.56 65.053ZM239.871 73.144C239.067 73.144 238.449 72.919 238.017 72.469C237.591 72.013 237.378 71.386 237.378 70.588V65.431H236.433C236.313 65.431 236.211 65.392 236.127 65.314C236.043 65.236 236.001 65.119 236.001 64.963V64.081L237.486 63.838L237.954 61.318C237.984 61.198 238.041 61.105 238.125 61.039C238.209 60.973 238.317 60.94 238.449 60.94H239.601V63.847H242.067V65.431H239.601V70.435C239.601 70.723 239.67 70.948 239.808 71.11C239.952 71.272 240.147 71.353 240.393 71.353C240.531 71.353 240.645 71.338 240.735 71.308C240.831 71.272 240.912 71.236 240.978 71.2C241.05 71.164 241.113 71.131 241.167 71.101C241.221 71.065 241.275 71.047 241.329 71.047C241.395 71.047 241.449 71.065 241.491 71.101C241.533 71.131 241.578 71.179 241.626 71.245L242.292 72.325C241.968 72.595 241.596 72.799 241.176 72.937C240.756 73.075 240.321 73.144 239.871 73.144ZM249.369 67.321C249.369 67.033 249.327 66.763 249.243 66.511C249.165 66.253 249.045 66.028 248.883 65.836C248.721 65.644 248.514 65.494 248.262 65.386C248.016 65.272 247.728 65.215 247.398 65.215C246.756 65.215 246.249 65.398 245.877 65.764C245.511 66.13 245.277 66.649 245.175 67.321H249.369ZM245.13 68.662C245.166 69.136 245.25 69.547 245.382 69.895C245.514 70.237 245.688 70.522 245.904 70.75C246.12 70.972 246.375 71.14 246.669 71.254C246.969 71.362 247.299 71.416 247.659 71.416C248.019 71.416 248.328 71.374 248.586 71.29C248.85 71.206 249.078 71.113 249.27 71.011C249.468 70.909 249.639 70.816 249.783 70.732C249.933 70.648 250.077 70.606 250.215 70.606C250.401 70.606 250.539 70.675 250.629 70.813L251.268 71.623C251.022 71.911 250.746 72.154 250.44 72.352C250.134 72.544 249.813 72.7 249.477 72.82C249.147 72.934 248.808 73.015 248.46 73.063C248.118 73.111 247.785 73.135 247.461 73.135C246.819 73.135 246.222 73.03 245.67 72.82C245.118 72.604 244.638 72.289 244.23 71.875C243.822 71.455 243.501 70.939 243.267 70.327C243.033 69.709 242.916 68.995 242.916 68.185C242.916 67.555 243.018 66.964 243.222 66.412C243.426 65.854 243.717 65.371 244.095 64.963C244.479 64.549 244.944 64.222 245.49 63.982C246.042 63.742 246.663 63.622 247.353 63.622C247.935 63.622 248.472 63.715 248.964 63.901C249.456 64.087 249.879 64.36 250.233 64.72C250.587 65.074 250.863 65.512 251.061 66.034C251.265 66.55 251.367 67.141 251.367 67.807C251.367 68.143 251.331 68.371 251.259 68.491C251.187 68.605 251.049 68.662 250.845 68.662H245.13ZM253.342 75.205C253.234 75.115 253.18 75.004 253.18 74.872C253.18 74.824 253.195 74.77 253.225 74.71C253.261 74.65 253.303 74.596 253.351 74.548C253.417 74.476 253.498 74.386 253.594 74.278C253.69 74.176 253.786 74.056 253.882 73.918C253.978 73.786 254.065 73.639 254.143 73.477C254.227 73.321 254.29 73.153 254.332 72.973C254.14 72.973 253.966 72.94 253.81 72.874C253.654 72.802 253.519 72.706 253.405 72.586C253.297 72.466 253.21 72.325 253.144 72.163C253.084 72.001 253.054 71.824 253.054 71.632C253.054 71.464 253.084 71.308 253.144 71.164C253.21 71.014 253.3 70.885 253.414 70.777C253.528 70.663 253.666 70.576 253.828 70.516C253.99 70.45 254.167 70.417 254.359 70.417C254.587 70.417 254.785 70.459 254.953 70.543C255.127 70.621 255.268 70.732 255.376 70.876C255.49 71.014 255.574 71.176 255.628 71.362C255.688 71.542 255.718 71.734 255.718 71.938C255.718 72.226 255.673 72.529 255.583 72.847C255.499 73.165 255.373 73.483 255.205 73.801C255.037 74.119 254.827 74.428 254.575 74.728C254.329 75.028 254.047 75.304 253.729 75.556L253.342 75.205ZM252.991 65.359C252.991 65.173 253.024 64.996 253.09 64.828C253.162 64.66 253.258 64.516 253.378 64.396C253.498 64.276 253.642 64.18 253.81 64.108C253.978 64.036 254.158 64 254.35 64C254.542 64 254.719 64.036 254.881 64.108C255.049 64.18 255.193 64.276 255.313 64.396C255.439 64.516 255.538 64.66 255.61 64.828C255.682 64.996 255.718 65.173 255.718 65.359C255.718 65.551 255.682 65.731 255.61 65.899C255.538 66.061 255.439 66.202 255.313 66.322C255.193 66.442 255.049 66.538 254.881 66.61C254.719 66.676 254.542 66.709 254.35 66.709C254.158 66.709 253.978 66.676 253.81 66.61C253.642 66.538 253.498 66.442 253.378 66.322C253.258 66.202 253.162 66.061 253.09 65.899C253.024 65.731 252.991 65.551 252.991 65.359Z" fill="#2B3637"/>
<path d="M273.42 128.986V142H272.178C271.986 142 271.824 141.97 271.692 141.91C271.566 141.844 271.443 141.736 271.323 141.586L264.528 132.91C264.564 133.306 264.582 133.672 264.582 134.008V142H262.449V128.986H263.718C263.82 128.986 263.907 128.992 263.979 129.004C264.057 129.01 264.123 129.028 264.177 129.058C264.237 129.082 264.294 129.121 264.348 129.175C264.402 129.223 264.462 129.289 264.528 129.373L271.35 138.085C271.332 137.875 271.317 137.668 271.305 137.464C271.293 137.26 271.287 137.071 271.287 136.897V128.986H273.42ZM281.635 136.321C281.635 136.033 281.593 135.763 281.509 135.511C281.431 135.253 281.311 135.028 281.149 134.836C280.987 134.644 280.78 134.494 280.528 134.386C280.282 134.272 279.994 134.215 279.664 134.215C279.022 134.215 278.515 134.398 278.143 134.764C277.777 135.13 277.543 135.649 277.441 136.321H281.635ZM277.396 137.662C277.432 138.136 277.516 138.547 277.648 138.895C277.78 139.237 277.954 139.522 278.17 139.75C278.386 139.972 278.641 140.14 278.935 140.254C279.235 140.362 279.565 140.416 279.925 140.416C280.285 140.416 280.594 140.374 280.852 140.29C281.116 140.206 281.344 140.113 281.536 140.011C281.734 139.909 281.905 139.816 282.049 139.732C282.199 139.648 282.343 139.606 282.481 139.606C282.667 139.606 282.805 139.675 282.895 139.813L283.534 140.623C283.288 140.911 283.012 141.154 282.706 141.352C282.4 141.544 282.079 141.7 281.743 141.82C281.413 141.934 281.074 142.015 280.726 142.063C280.384 142.111 280.051 142.135 279.727 142.135C279.085 142.135 278.488 142.03 277.936 141.82C277.384 141.604 276.904 141.289 276.496 140.875C276.088 140.455 275.767 139.939 275.533 139.327C275.299 138.709 275.182 137.995 275.182 137.185C275.182 136.555 275.284 135.964 275.488 135.412C275.692 134.854 275.983 134.371 276.361 133.963C276.745 133.549 277.21 133.222 277.756 132.982C278.308 132.742 278.929 132.622 279.619 132.622C280.201 132.622 280.738 132.715 281.23 132.901C281.722 133.087 282.145 133.36 282.499 133.72C282.853 134.074 283.129 134.512 283.327 135.034C283.531 135.55 283.633 136.141 283.633 136.807C283.633 137.143 283.597 137.371 283.525 137.491C283.453 137.605 283.315 137.662 283.111 137.662H277.396ZM298.363 132.766L295.429 142H293.647C293.443 142 293.302 141.868 293.224 141.604L291.568 136.267C291.514 136.087 291.463 135.91 291.415 135.736C291.373 135.556 291.337 135.376 291.307 135.196C291.271 135.376 291.229 135.559 291.181 135.745C291.139 135.925 291.091 136.105 291.037 136.285L289.354 141.604C289.282 141.868 289.123 142 288.877 142H287.167L284.242 132.766H286.015C286.177 132.766 286.315 132.805 286.429 132.883C286.543 132.961 286.618 133.06 286.654 133.18L287.977 138.112C288.043 138.382 288.1 138.646 288.148 138.904C288.202 139.162 288.247 139.42 288.283 139.678C288.349 139.42 288.418 139.162 288.49 138.904C288.568 138.646 288.649 138.382 288.733 138.112L290.263 133.162C290.299 133.042 290.368 132.943 290.47 132.865C290.578 132.787 290.707 132.748 290.857 132.748H291.838C291.994 132.748 292.126 132.787 292.234 132.865C292.348 132.943 292.423 133.042 292.459 133.162L293.944 138.112C294.022 138.382 294.094 138.649 294.16 138.913C294.232 139.171 294.301 139.429 294.367 139.687C294.445 139.177 294.556 138.652 294.7 138.112L296.059 133.18C296.101 133.06 296.176 132.961 296.284 132.883C296.392 132.805 296.521 132.766 296.671 132.766H298.363ZM310.916 131.353C310.844 131.479 310.766 131.572 310.682 131.632C310.604 131.686 310.505 131.713 310.385 131.713C310.259 131.713 310.121 131.668 309.971 131.578C309.827 131.482 309.653 131.377 309.449 131.263C309.245 131.149 309.005 131.047 308.729 130.957C308.459 130.861 308.138 130.813 307.766 130.813C307.43 130.813 307.136 130.855 306.884 130.939C306.632 131.017 306.419 131.128 306.245 131.272C306.077 131.416 305.951 131.59 305.867 131.794C305.783 131.992 305.741 132.211 305.741 132.451C305.741 132.757 305.825 133.012 305.993 133.216C306.167 133.42 306.395 133.594 306.677 133.738C306.959 133.882 307.28 134.011 307.64 134.125C308 134.239 308.369 134.362 308.747 134.494C309.125 134.62 309.494 134.77 309.854 134.944C310.214 135.112 310.535 135.328 310.817 135.592C311.099 135.85 311.324 136.168 311.492 136.546C311.666 136.924 311.753 137.383 311.753 137.923C311.753 138.511 311.651 139.063 311.447 139.579C311.249 140.089 310.955 140.536 310.565 140.92C310.181 141.298 309.71 141.598 309.152 141.82C308.594 142.036 307.955 142.144 307.235 142.144C306.821 142.144 306.413 142.102 306.011 142.018C305.609 141.94 305.222 141.826 304.85 141.676C304.484 141.526 304.139 141.346 303.815 141.136C303.491 140.926 303.203 140.692 302.951 140.434L303.662 139.273C303.722 139.189 303.8 139.12 303.896 139.066C303.992 139.006 304.094 138.976 304.202 138.976C304.352 138.976 304.514 139.039 304.688 139.165C304.862 139.285 305.069 139.42 305.309 139.57C305.549 139.72 305.828 139.858 306.146 139.984C306.47 140.104 306.857 140.164 307.307 140.164C307.997 140.164 308.531 140.002 308.909 139.678C309.287 139.348 309.476 138.877 309.476 138.265C309.476 137.923 309.389 137.644 309.215 137.428C309.047 137.212 308.822 137.032 308.54 136.888C308.258 136.738 307.937 136.612 307.577 136.51C307.217 136.408 306.851 136.297 306.479 136.177C306.107 136.057 305.741 135.913 305.381 135.745C305.021 135.577 304.7 135.358 304.418 135.088C304.136 134.818 303.908 134.482 303.734 134.08C303.566 133.672 303.482 133.171 303.482 132.577C303.482 132.103 303.575 131.641 303.761 131.191C303.953 130.741 304.229 130.342 304.589 129.994C304.949 129.646 305.393 129.367 305.921 129.157C306.449 128.947 307.055 128.842 307.739 128.842C308.507 128.842 309.215 128.962 309.863 129.202C310.511 129.442 311.063 129.778 311.519 130.21L310.916 131.353ZM316.188 142.144C315.384 142.144 314.766 141.919 314.334 141.469C313.908 141.013 313.695 140.386 313.695 139.588V134.431H312.75C312.63 134.431 312.528 134.392 312.444 134.314C312.36 134.236 312.318 134.119 312.318 133.963V133.081L313.803 132.838L314.271 130.318C314.301 130.198 314.358 130.105 314.442 130.039C314.526 129.973 314.634 129.94 314.766 129.94H315.918V132.847H318.384V134.431H315.918V139.435C315.918 139.723 315.987 139.948 316.125 140.11C316.269 140.272 316.464 140.353 316.71 140.353C316.848 140.353 316.962 140.338 317.052 140.308C317.148 140.272 317.229 140.236 317.295 140.2C317.367 140.164 317.43 140.131 317.484 140.101C317.538 140.065 317.592 140.047 317.646 140.047C317.712 140.047 317.766 140.065 317.808 140.101C317.85 140.131 317.895 140.179 317.943 140.245L318.609 141.325C318.285 141.595 317.913 141.799 317.493 141.937C317.073 142.075 316.638 142.144 316.188 142.144ZM324.685 138.058C324.043 138.088 323.503 138.145 323.065 138.229C322.627 138.307 322.276 138.409 322.012 138.535C321.748 138.661 321.559 138.808 321.445 138.976C321.331 139.144 321.274 139.327 321.274 139.525C321.274 139.915 321.388 140.194 321.616 140.362C321.85 140.53 322.153 140.614 322.525 140.614C322.981 140.614 323.374 140.533 323.704 140.371C324.04 140.203 324.367 139.951 324.685 139.615V138.058ZM319.591 134.053C320.653 133.081 321.931 132.595 323.425 132.595C323.965 132.595 324.448 132.685 324.874 132.865C325.3 133.039 325.66 133.285 325.954 133.603C326.248 133.915 326.47 134.29 326.62 134.728C326.776 135.166 326.854 135.646 326.854 136.168V142H325.846C325.636 142 325.474 141.97 325.36 141.91C325.246 141.844 325.156 141.715 325.09 141.523L324.892 140.857C324.658 141.067 324.43 141.253 324.208 141.415C323.986 141.571 323.755 141.703 323.515 141.811C323.275 141.919 323.017 142 322.741 142.054C322.471 142.114 322.171 142.144 321.841 142.144C321.451 142.144 321.091 142.093 320.761 141.991C320.431 141.883 320.146 141.724 319.906 141.514C319.666 141.304 319.48 141.043 319.348 140.731C319.216 140.419 319.15 140.056 319.15 139.642C319.15 139.408 319.189 139.177 319.267 138.949C319.345 138.715 319.471 138.493 319.645 138.283C319.825 138.073 320.056 137.875 320.338 137.689C320.62 137.503 320.965 137.341 321.373 137.203C321.787 137.065 322.267 136.954 322.813 136.87C323.359 136.78 323.983 136.726 324.685 136.708V136.168C324.685 135.55 324.553 135.094 324.289 134.8C324.025 134.5 323.644 134.35 323.146 134.35C322.786 134.35 322.486 134.392 322.246 134.476C322.012 134.56 321.805 134.656 321.625 134.764C321.445 134.866 321.28 134.959 321.13 135.043C320.986 135.127 320.824 135.169 320.644 135.169C320.488 135.169 320.356 135.13 320.248 135.052C320.14 134.968 320.053 134.872 319.987 134.764L319.591 134.053ZM335.563 134.719C335.497 134.803 335.431 134.869 335.365 134.917C335.305 134.965 335.215 134.989 335.095 134.989C334.981 134.989 334.87 134.956 334.762 134.89C334.654 134.818 334.525 134.74 334.375 134.656C334.225 134.566 334.045 134.488 333.835 134.422C333.631 134.35 333.376 134.314 333.07 134.314C332.68 134.314 332.338 134.386 332.044 134.53C331.75 134.668 331.504 134.869 331.306 135.133C331.114 135.397 330.97 135.718 330.874 136.096C330.778 136.468 330.73 136.891 330.73 137.365C330.73 137.857 330.781 138.295 330.883 138.679C330.991 139.063 331.144 139.387 331.342 139.651C331.54 139.909 331.78 140.107 332.062 140.245C332.344 140.377 332.662 140.443 333.016 140.443C333.37 140.443 333.655 140.401 333.871 140.317C334.093 140.227 334.279 140.131 334.429 140.029C334.579 139.921 334.708 139.825 334.816 139.741C334.93 139.651 335.056 139.606 335.194 139.606C335.374 139.606 335.509 139.675 335.599 139.813L336.238 140.623C335.992 140.911 335.725 141.154 335.437 141.352C335.149 141.544 334.849 141.7 334.537 141.82C334.231 141.934 333.913 142.015 333.583 142.063C333.259 142.111 332.935 142.135 332.611 142.135C332.041 142.135 331.504 142.03 331 141.82C330.496 141.604 330.055 141.292 329.677 140.884C329.299 140.476 328.999 139.978 328.777 139.39C328.561 138.796 328.453 138.121 328.453 137.365C328.453 136.687 328.549 136.06 328.741 135.484C328.939 134.902 329.227 134.401 329.605 133.981C329.983 133.555 330.451 133.222 331.009 132.982C331.567 132.742 332.209 132.622 332.935 132.622C333.625 132.622 334.228 132.733 334.744 132.955C335.266 133.177 335.734 133.495 336.148 133.909L335.563 134.719ZM339.854 128.626V136.285H340.268C340.418 136.285 340.535 136.267 340.619 136.231C340.709 136.189 340.799 136.108 340.889 135.988L343.184 133.153C343.28 133.027 343.385 132.931 343.499 132.865C343.619 132.799 343.772 132.766 343.958 132.766H345.992L343.121 136.195C342.917 136.465 342.695 136.672 342.455 136.816C342.581 136.906 342.692 137.011 342.788 137.131C342.89 137.251 342.986 137.38 343.076 137.518L346.154 142H344.147C343.973 142 343.823 141.973 343.697 141.919C343.571 141.859 343.466 141.754 343.382 141.604L341.024 138.103C340.94 137.965 340.853 137.875 340.763 137.833C340.673 137.791 340.538 137.77 340.358 137.77H339.854V142H337.631V128.626H339.854ZM349.55 132.766V142H347.318V132.766H349.55ZM349.856 130.075C349.856 130.267 349.817 130.447 349.739 130.615C349.661 130.783 349.556 130.93 349.424 131.056C349.298 131.182 349.148 131.284 348.974 131.362C348.8 131.434 348.614 131.47 348.416 131.47C348.224 131.47 348.041 131.434 347.867 131.362C347.699 131.284 347.552 131.182 347.426 131.056C347.3 130.93 347.198 130.783 347.12 130.615C347.048 130.447 347.012 130.267 347.012 130.075C347.012 129.877 347.048 129.691 347.12 129.517C347.198 129.343 347.3 129.193 347.426 129.067C347.552 128.941 347.699 128.842 347.867 128.77C348.041 128.692 348.224 128.653 348.416 128.653C348.614 128.653 348.8 128.692 348.974 128.77C349.148 128.842 349.298 128.941 349.424 129.067C349.556 129.193 349.661 129.343 349.739 129.517C349.817 129.691 349.856 129.877 349.856 130.075ZM353.896 133.9C354.082 133.714 354.277 133.543 354.481 133.387C354.691 133.225 354.91 133.09 355.138 132.982C355.372 132.868 355.621 132.781 355.885 132.721C356.149 132.655 356.437 132.622 356.749 132.622C357.253 132.622 357.7 132.709 358.09 132.883C358.48 133.051 358.804 133.291 359.062 133.603C359.326 133.909 359.524 134.278 359.656 134.71C359.794 135.136 359.863 135.607 359.863 136.123V142H357.64V136.123C357.64 135.559 357.511 135.124 357.253 134.818C356.995 134.506 356.602 134.35 356.074 134.35C355.69 134.35 355.33 134.437 354.994 134.611C354.658 134.785 354.34 135.022 354.04 135.322V142H351.817V132.766H353.176C353.464 132.766 353.653 132.901 353.743 133.171L353.896 133.9ZM365.352 137.158C365.628 137.158 365.868 137.122 366.072 137.05C366.276 136.972 366.444 136.867 366.576 136.735C366.714 136.603 366.816 136.444 366.882 136.258C366.954 136.072 366.99 135.868 366.99 135.646C366.99 135.19 366.852 134.83 366.576 134.566C366.306 134.296 365.898 134.161 365.352 134.161C364.806 134.161 364.395 134.296 364.119 134.566C363.849 134.83 363.714 135.19 363.714 135.646C363.714 135.862 363.747 136.063 363.813 136.249C363.885 136.435 363.987 136.597 364.119 136.735C364.257 136.867 364.428 136.972 364.632 137.05C364.842 137.122 365.082 137.158 365.352 137.158ZM367.863 142.414C367.863 142.234 367.809 142.087 367.701 141.973C367.593 141.859 367.446 141.772 367.26 141.712C367.074 141.646 366.855 141.598 366.603 141.568C366.357 141.538 366.093 141.517 365.811 141.505C365.535 141.487 365.247 141.472 364.947 141.46C364.653 141.448 364.365 141.424 364.083 141.388C363.837 141.526 363.636 141.688 363.48 141.874C363.33 142.06 363.255 142.276 363.255 142.522C363.255 142.684 363.294 142.834 363.372 142.972C363.456 143.116 363.585 143.239 363.759 143.341C363.939 143.443 364.17 143.521 364.452 143.575C364.734 143.635 365.079 143.665 365.487 143.665C365.901 143.665 366.258 143.632 366.558 143.566C366.858 143.506 367.104 143.419 367.296 143.305C367.494 143.197 367.638 143.065 367.728 142.909C367.818 142.759 367.863 142.594 367.863 142.414ZM370.077 133.081V133.909C370.077 134.173 369.918 134.335 369.6 134.395L368.772 134.548C368.898 134.866 368.961 135.214 368.961 135.592C368.961 136.048 368.868 136.462 368.682 136.834C368.502 137.2 368.25 137.512 367.926 137.77C367.602 138.028 367.218 138.229 366.774 138.373C366.336 138.511 365.862 138.58 365.352 138.58C365.172 138.58 364.998 138.571 364.83 138.553C364.662 138.535 364.497 138.511 364.335 138.481C364.047 138.655 363.903 138.85 363.903 139.066C363.903 139.252 363.987 139.39 364.155 139.48C364.329 139.564 364.557 139.624 364.839 139.66C365.121 139.696 365.442 139.72 365.802 139.732C366.162 139.738 366.531 139.756 366.909 139.786C367.287 139.816 367.656 139.87 368.016 139.948C368.376 140.02 368.697 140.137 368.979 140.299C369.261 140.461 369.486 140.683 369.654 140.965C369.828 141.241 369.915 141.598 369.915 142.036C369.915 142.444 369.813 142.84 369.609 143.224C369.411 143.608 369.12 143.95 368.736 144.25C368.358 144.55 367.89 144.79 367.332 144.97C366.78 145.156 366.15 145.249 365.442 145.249C364.746 145.249 364.14 145.18 363.624 145.042C363.108 144.91 362.679 144.73 362.337 144.502C361.995 144.28 361.74 144.022 361.572 143.728C361.404 143.434 361.32 143.128 361.32 142.81C361.32 142.378 361.449 142.018 361.707 141.73C361.971 141.436 362.331 141.202 362.787 141.028C362.541 140.902 362.346 140.734 362.202 140.524C362.058 140.314 361.986 140.038 361.986 139.696C361.986 139.558 362.01 139.417 362.058 139.273C362.112 139.123 362.187 138.976 362.283 138.832C362.385 138.688 362.511 138.553 362.661 138.427C362.811 138.295 362.988 138.178 363.192 138.076C362.724 137.824 362.355 137.488 362.085 137.068C361.821 136.648 361.689 136.156 361.689 135.592C361.689 135.136 361.779 134.725 361.959 134.359C362.145 133.987 362.4 133.672 362.724 133.414C363.054 133.15 363.441 132.949 363.885 132.811C364.335 132.673 364.824 132.604 365.352 132.604C365.748 132.604 366.12 132.646 366.468 132.73C366.816 132.808 367.134 132.925 367.422 133.081H370.077ZM385.152 138.931C385.284 138.931 385.401 138.982 385.503 139.084L386.457 140.119C385.929 140.773 385.278 141.274 384.504 141.622C383.736 141.97 382.812 142.144 381.732 142.144C380.766 142.144 379.896 141.979 379.122 141.649C378.354 141.319 377.697 140.86 377.151 140.272C376.605 139.684 376.185 138.982 375.891 138.166C375.603 137.35 375.459 136.459 375.459 135.493C375.459 134.515 375.615 133.621 375.927 132.811C376.239 131.995 376.677 131.293 377.241 130.705C377.811 130.117 378.489 129.661 379.275 129.337C380.061 129.007 380.931 128.842 381.885 128.842C382.833 128.842 383.673 128.998 384.405 129.31C385.143 129.622 385.77 130.03 386.286 130.534L385.476 131.659C385.428 131.731 385.365 131.794 385.287 131.848C385.215 131.902 385.113 131.929 384.981 131.929C384.891 131.929 384.798 131.905 384.702 131.857C384.606 131.803 384.501 131.74 384.387 131.668C384.273 131.59 384.141 131.506 383.991 131.416C383.841 131.326 383.667 131.245 383.469 131.173C383.271 131.095 383.04 131.032 382.776 130.984C382.518 130.93 382.218 130.903 381.876 130.903C381.294 130.903 380.76 131.008 380.274 131.218C379.794 131.422 379.38 131.722 379.032 132.118C378.684 132.508 378.414 132.988 378.222 133.558C378.03 134.122 377.934 134.767 377.934 135.493C377.934 136.225 378.036 136.876 378.24 137.446C378.45 138.016 378.732 138.496 379.086 138.886C379.44 139.276 379.857 139.576 380.337 139.786C380.817 139.99 381.333 140.092 381.885 140.092C382.215 140.092 382.512 140.074 382.776 140.038C383.046 140.002 383.292 139.945 383.514 139.867C383.742 139.789 383.955 139.69 384.153 139.57C384.357 139.444 384.558 139.291 384.756 139.111C384.816 139.057 384.879 139.015 384.945 138.985C385.011 138.949 385.08 138.931 385.152 138.931ZM391.657 132.622C392.341 132.622 392.962 132.733 393.52 132.955C394.084 133.177 394.564 133.492 394.96 133.9C395.362 134.308 395.671 134.806 395.887 135.394C396.103 135.982 396.211 136.639 396.211 137.365C396.211 138.097 396.103 138.757 395.887 139.345C395.671 139.933 395.362 140.434 394.96 140.848C394.564 141.262 394.084 141.58 393.52 141.802C392.962 142.024 392.341 142.135 391.657 142.135C390.967 142.135 390.34 142.024 389.776 141.802C389.212 141.58 388.729 141.262 388.327 140.848C387.931 140.434 387.622 139.933 387.4 139.345C387.184 138.757 387.076 138.097 387.076 137.365C387.076 136.639 387.184 135.982 387.4 135.394C387.622 134.806 387.931 134.308 388.327 133.9C388.729 133.492 389.212 133.177 389.776 132.955C390.34 132.733 390.967 132.622 391.657 132.622ZM391.657 140.425C392.425 140.425 392.992 140.167 393.358 139.651C393.73 139.135 393.916 138.379 393.916 137.383C393.916 136.387 393.73 135.628 393.358 135.106C392.992 134.584 392.425 134.323 391.657 134.323C390.877 134.323 390.298 134.587 389.92 135.115C389.548 135.637 389.362 136.393 389.362 137.383C389.362 138.373 389.548 139.129 389.92 139.651C390.298 140.167 390.877 140.425 391.657 140.425ZM399.986 133.9C400.172 133.714 400.367 133.543 400.571 133.387C400.781 133.225 401 133.09 401.228 132.982C401.462 132.868 401.711 132.781 401.975 132.721C402.239 132.655 402.527 132.622 402.839 132.622C403.343 132.622 403.79 132.709 404.18 132.883C404.57 133.051 404.894 133.291 405.152 133.603C405.416 133.909 405.614 134.278 405.746 134.71C405.884 135.136 405.953 135.607 405.953 136.123V142H403.73V136.123C403.73 135.559 403.601 135.124 403.343 134.818C403.085 134.506 402.692 134.35 402.164 134.35C401.78 134.35 401.42 134.437 401.084 134.611C400.748 134.785 400.43 135.022 400.13 135.322V142H397.907V132.766H399.266C399.554 132.766 399.743 132.901 399.833 133.171L399.986 133.9ZM411.022 142.144C410.218 142.144 409.6 141.919 409.168 141.469C408.742 141.013 408.529 140.386 408.529 139.588V134.431H407.584C407.464 134.431 407.362 134.392 407.278 134.314C407.194 134.236 407.152 134.119 407.152 133.963V133.081L408.637 132.838L409.105 130.318C409.135 130.198 409.192 130.105 409.276 130.039C409.36 129.973 409.468 129.94 409.6 129.94H410.752V132.847H413.218V134.431H410.752V139.435C410.752 139.723 410.821 139.948 410.959 140.11C411.103 140.272 411.298 140.353 411.544 140.353C411.682 140.353 411.796 140.338 411.886 140.308C411.982 140.272 412.063 140.236 412.129 140.2C412.201 140.164 412.264 140.131 412.318 140.101C412.372 140.065 412.426 140.047 412.48 140.047C412.546 140.047 412.6 140.065 412.642 140.101C412.684 140.131 412.729 140.179 412.777 140.245L413.443 141.325C413.119 141.595 412.747 141.799 412.327 141.937C411.907 142.075 411.472 142.144 411.022 142.144ZM420.52 136.321C420.52 136.033 420.478 135.763 420.394 135.511C420.316 135.253 420.196 135.028 420.034 134.836C419.872 134.644 419.665 134.494 419.413 134.386C419.167 134.272 418.879 134.215 418.549 134.215C417.907 134.215 417.4 134.398 417.028 134.764C416.662 135.13 416.428 135.649 416.326 136.321H420.52ZM416.281 137.662C416.317 138.136 416.401 138.547 416.533 138.895C416.665 139.237 416.839 139.522 417.055 139.75C417.271 139.972 417.526 140.14 417.82 140.254C418.12 140.362 418.45 140.416 418.81 140.416C419.17 140.416 419.479 140.374 419.737 140.29C420.001 140.206 420.229 140.113 420.421 140.011C420.619 139.909 420.79 139.816 420.934 139.732C421.084 139.648 421.228 139.606 421.366 139.606C421.552 139.606 421.69 139.675 421.78 139.813L422.419 140.623C422.173 140.911 421.897 141.154 421.591 141.352C421.285 141.544 420.964 141.7 420.628 141.82C420.298 141.934 419.959 142.015 419.611 142.063C419.269 142.111 418.936 142.135 418.612 142.135C417.97 142.135 417.373 142.03 416.821 141.82C416.269 141.604 415.789 141.289 415.381 140.875C414.973 140.455 414.652 139.939 414.418 139.327C414.184 138.709 414.067 137.995 414.067 137.185C414.067 136.555 414.169 135.964 414.373 135.412C414.577 134.854 414.868 134.371 415.246 133.963C415.63 133.549 416.095 133.222 416.641 132.982C417.193 132.742 417.814 132.622 418.504 132.622C419.086 132.622 419.623 132.715 420.115 132.901C420.607 133.087 421.03 133.36 421.384 133.72C421.738 134.074 422.014 134.512 422.212 135.034C422.416 135.55 422.518 136.141 422.518 136.807C422.518 137.143 422.482 137.371 422.41 137.491C422.338 137.605 422.2 137.662 421.996 137.662H416.281ZM432.289 142H430.147C429.985 142 429.853 141.958 429.751 141.874C429.655 141.79 429.574 141.694 429.508 141.586L427.555 138.373C427.525 138.475 427.489 138.571 427.447 138.661C427.411 138.751 427.369 138.835 427.321 138.913L425.593 141.586C425.527 141.688 425.446 141.784 425.35 141.874C425.254 141.958 425.134 142 424.99 142H423.001L426.169 137.239L423.127 132.766H425.269C425.431 132.766 425.551 132.79 425.629 132.838C425.707 132.88 425.776 132.952 425.836 133.054L427.771 136.132C427.837 135.928 427.93 135.727 428.05 135.529L429.607 133.099C429.739 132.877 429.91 132.766 430.12 132.766H432.163L429.13 137.14L432.289 142ZM436.528 142.144C435.724 142.144 435.106 141.919 434.674 141.469C434.248 141.013 434.035 140.386 434.035 139.588V134.431H433.09C432.97 134.431 432.868 134.392 432.784 134.314C432.7 134.236 432.658 134.119 432.658 133.963V133.081L434.143 132.838L434.611 130.318C434.641 130.198 434.698 130.105 434.782 130.039C434.866 129.973 434.974 129.94 435.106 129.94H436.258V132.847H438.724V134.431H436.258V139.435C436.258 139.723 436.327 139.948 436.465 140.11C436.609 140.272 436.804 140.353 437.05 140.353C437.188 140.353 437.302 140.338 437.392 140.308C437.488 140.272 437.569 140.236 437.635 140.2C437.707 140.164 437.77 140.131 437.824 140.101C437.878 140.065 437.932 140.047 437.986 140.047C438.052 140.047 438.106 140.065 438.148 140.101C438.19 140.131 438.235 140.179 438.283 140.245L438.949 141.325C438.625 141.595 438.253 141.799 437.833 141.937C437.413 142.075 436.978 142.144 436.528 142.144Z" fill="black"/>
<rect x="165" y="194" width="129.268" height="129.268" fill="#E0E9E8"/>
<rect x="205" y="228" width="129.268" height="129.268" fill="#9DBEBB"/>
<rect x="245" y="262" width="129.268" height="129.268" fill="#77ACA2"/>
<rect x="285" y="296" width="129.268" height="129.268" fill="#468189"/>
<line x1="195.5" y1="100" x2="195.5" y2="82" stroke="#2B3637" stroke-width="5"/>
<path d="M123 79.9979L256 79.9987" stroke="#2B3637" stroke-width="5"/>
<path d="M431.939 287.061C432.525 287.646 433.475 287.646 434.061 287.061L443.607 277.515C444.192 276.929 444.192 275.979 443.607 275.393C443.021 274.808 442.071 274.808 441.485 275.393L433 283.879L424.515 275.393C423.929 274.808 422.979 274.808 422.393 275.393C421.808 275.979 421.808 276.929 422.393 277.515L431.939 287.061ZM431.5 144L431.5 286L434.5 286L434.5 144L431.5 144Z" fill="#2B3637"/>
</svg>
