<svg xmlns="http://www.w3.org/2000/svg" viewBox="0 0 216.361 39.712" height="150.091" width="817.743"><path d="M0 15.077h216.361v9.401H0z" opacity=".995" fill="#1c1b22" paint-order="markers fill stroke"/><g style="line-height:1.25;-inkscape-font-specification:'Proxima Nova Bold'" aria-label="https://" font-weight="400" font-size="7.056" font-family="Proxima Nova" letter-spacing="0" word-spacing="0" stroke-width=".265" fill="#ff7878"><path style="-inkscape-font-specification:'Proxima Nova'" d="M5.507 21.612v-2.064c0-.636-.32-.932-.932-.932-.442 0-.842.248-1.041.496v-1.538H3.08v4.038h.454v-2.137c.169-.236.508-.454.86-.454.399 0 .659.145.659.666v1.925zM7.164 21.685c.26 0 .424-.079.539-.188l-.133-.345a.43.43 0 01-.31.127c-.193 0-.29-.157-.29-.375v-1.816h.594v-.4H6.97v-.799h-.46v.8h-.484v.399h.484V21c0 .436.218.684.654.684zM8.95 21.685c.26 0 .423-.079.538-.188l-.133-.345a.43.43 0 01-.309.127c-.193 0-.29-.157-.29-.375v-1.816h.593v-.4h-.593v-.799h-.46v.8H7.81v.399h.485V21c0 .436.218.684.653.684zM11.43 21.685c.77 0 1.302-.594 1.302-1.538 0-.95-.532-1.531-1.301-1.531-.412 0-.775.211-.987.508v-.436H9.99v4.038h.454V21.17c.242.321.587.515.987.515zm-.114-.406c-.357 0-.715-.218-.872-.472v-1.32c.157-.254.515-.466.872-.466.587 0 .938.478.938 1.126 0 .648-.351 1.132-.938 1.132zM14.387 21.685c.75 0 1.144-.394 1.144-.884 0-1.138-1.81-.72-1.81-1.356 0-.26.248-.46.647-.46.382 0 .697.157.872.37l.212-.316c-.23-.236-.581-.423-1.084-.423-.696 0-1.083.38-1.083.841 0 1.084 1.81.648 1.81 1.356 0 .29-.248.502-.696.502-.4 0-.77-.193-.963-.417l-.23.327c.297.308.696.46 1.18.46zM16.51 19.312a.34.34 0 00.333-.333.336.336 0 00-.333-.333.336.336 0 00-.333.333.34.34 0 00.333.333zm0 2.36a.336.336 0 00.333-.332.336.336 0 00-.333-.333.336.336 0 00-.333.333c0 .181.152.333.333.333zM17.531 21.733l1.435-4.28h-.357l-1.435 4.28zM19.328 21.733l1.435-4.28h-.357l-1.435 4.28z"/></g><g transform="translate(-2.827 -99.893)"><rect width="25.944" height="7.945" x="3.837" y="100.88" ry="3.892" opacity=".995" fill="none" stroke="#f77" stroke-width="1.716" stroke-dashoffset="56.693" stroke-opacity=".996" paint-order="markers fill stroke"/><g style="line-height:1.25;-inkscape-font-specification:'Proxima Nova Bold'" aria-label="protocol" font-weight="700" font-size="6.35" font-family="Proxima Nova" letter-spacing="0" word-spacing="0" fill="#1c1b22" fill-opacity=".996" stroke-width=".265"><path d="M8.427 106.233c.675 0 1.166-.506 1.166-1.384 0-.877-.49-1.378-1.166-1.378-.322 0-.61.142-.812.398v-.333h-.692v3.634h.692v-1.34c.218.273.501.403.812.403zm-.218-.615a.78.78 0 01-.594-.305v-.927c.12-.174.37-.3.594-.3.397 0 .67.311.67.763 0 .458-.273.769-.67.769zM10.797 106.168v-1.738c.114-.169.419-.3.648-.3.082 0 .142.005.19.017v-.676c-.326 0-.648.19-.838.42v-.355h-.692v2.632zM13.283 106.233c.872 0 1.395-.637 1.395-1.384 0-.746-.523-1.378-1.395-1.378-.866 0-1.39.632-1.39 1.378 0 .747.524 1.384 1.39 1.384zm0-.615c-.43 0-.67-.354-.67-.769 0-.408.24-.762.67-.762.436 0 .676.354.676.762 0 .415-.24.769-.676.769zM16.074 106.233c.288 0 .474-.076.577-.169l-.147-.528c-.038.044-.136.082-.24.082-.152 0-.24-.126-.24-.295v-1.182h.534v-.605h-.533v-.719h-.692v.72h-.436v.604h.436v1.368c0 .474.256.724.74.724zM18.252 106.233c.872 0 1.395-.637 1.395-1.384 0-.746-.523-1.378-1.395-1.378-.866 0-1.389.632-1.389 1.378 0 .747.523 1.384 1.39 1.384zm0-.615c-.43 0-.67-.354-.67-.769 0-.408.24-.762.67-.762.436 0 .676.354.676.762 0 .415-.24.769-.676.769zM21.386 106.233c.54 0 .866-.24 1.04-.48l-.451-.424a.655.655 0 01-.556.289c-.42 0-.714-.31-.714-.769 0-.457.294-.762.714-.762.24 0 .43.098.556.283l.452-.425c-.175-.24-.501-.474-1.04-.474-.807 0-1.396.572-1.396 1.378 0 .812.589 1.384 1.395 1.384zM24.094 106.233c.872 0 1.395-.637 1.395-1.384 0-.746-.523-1.378-1.395-1.378-.866 0-1.39.632-1.39 1.378 0 .747.524 1.384 1.39 1.384zm0-.615c-.43 0-.67-.354-.67-.769 0-.408.24-.762.67-.762.436 0 .676.354.676.762 0 .415-.24.769-.676.769zM26.694 106.168v-3.634h-.692v3.634z"/></g><rect ry=".631" y="108.047" x="16.178" height="8.083" width="1.261" opacity=".995" fill="#ff7878" fill-opacity=".996" paint-order="markers fill stroke"/></g><g style="line-height:1.25;-inkscape-font-specification:'Proxima Nova Bold'" aria-label="video." font-weight="400" font-size="7.056" font-family="Proxima Nova" letter-spacing="0" word-spacing="0" stroke-width=".265" fill="#f7ee61"><path style="-inkscape-font-specification:'Proxima Nova'" d="M22.559 21.693l1.217-2.924h-.49l-.975 2.397-.969-2.397h-.496l1.217 2.924zM24.48 18.352a.3.3 0 00.302-.303.305.305 0 00-.303-.309.31.31 0 00-.308.309c0 .17.139.303.308.303zm.223 3.341V18.77h-.454v2.924zM28.182 21.693v-4.038h-.454v1.556a1.222 1.222 0 00-.987-.514c-.763 0-1.301.599-1.301 1.537 0 .95.538 1.532 1.301 1.532.412 0 .769-.212.987-.509v.436zm-1.326-.333c-.593 0-.944-.478-.944-1.126 0-.647.35-1.132.944-1.132.357 0 .714.218.872.472v1.32c-.158.254-.515.466-.872.466zM30.41 21.766c.473 0 .866-.164 1.163-.454l-.218-.297a1.272 1.272 0 01-.908.375c-.63 0-1.01-.46-1.047-1.01h2.36v-.115c0-.878-.52-1.568-1.404-1.568-.835 0-1.44.684-1.44 1.531 0 .914.623 1.538 1.495 1.538zm.903-1.725h-1.92c.025-.442.334-.969.957-.969.666 0 .957.539.963.969zM33.767 21.766c.89 0 1.447-.69 1.447-1.538 0-.847-.557-1.531-1.447-1.531s-1.446.684-1.446 1.531c0 .848.557 1.538 1.446 1.538zm0-.406c-.623 0-.968-.533-.968-1.132 0-.593.345-1.126.968-1.126.624 0 .969.533.969 1.126 0 .6-.345 1.132-.969 1.132zM36.15 21.754a.336.336 0 00.332-.333.336.336 0 00-.333-.333.336.336 0 00-.333.333c0 .181.152.333.333.333z"/></g><g transform="translate(-2.827 -99.893)"><rect rx="3.567" width="33.321" height="7.945" x="13.414" y="130.668" ry="3.567" opacity=".995" fill="none" stroke="#f7ee61" stroke-width="1.716" stroke-dashoffset="56.693" paint-order="markers fill stroke"/><g style="line-height:1.25;-inkscape-font-specification:'Proxima Nova Bold'" aria-label="subdomain" font-weight="700" font-size="6.35" font-family="Proxima Nova" letter-spacing="0" word-spacing="0" fill="#1c1b22" fill-opacity=".996" stroke-width=".265"><path d="M17.775 136.542c.73 0 1.144-.354 1.144-.839 0-1.062-1.564-.735-1.564-1.122 0-.147.164-.256.414-.256.322 0 .621.141.78.305l.277-.49a1.676 1.676 0 00-1.057-.36c-.697 0-1.078.387-1.078.828 0 1.035 1.558.681 1.558 1.111 0 .164-.142.278-.441.278-.327 0-.714-.18-.91-.365l-.3.501c.278.257.72.41 1.177.41zM21.891 136.477v-2.632H21.2v1.782a.775.775 0 01-.599.3c-.294 0-.485-.12-.485-.485v-1.597h-.692v1.869c0 .512.273.828.85.828.43 0 .747-.201.926-.398v.333zM23.265 135.632v-.931a.774.774 0 01.6-.305c.397 0 .664.31.664.762 0 .458-.267.768-.665.768a.781.781 0 01-.6-.294zm0 .845v-.338c.207.261.496.403.812.403.664 0 1.166-.501 1.166-1.384 0-.855-.496-1.378-1.166-1.378-.31 0-.605.13-.812.403v-1.34h-.692v3.634zM28.271 136.477v-3.634h-.697v1.34a.998.998 0 00-.812-.403c-.67 0-1.166.523-1.166 1.378 0 .883.507 1.384 1.166 1.384.322 0 .605-.142.812-.403v.338zm-1.29-.55c-.399 0-.67-.311-.67-.769 0-.452.271-.762.67-.762.228 0 .479.125.593.3v.93c-.114.175-.365.3-.594.3zM30.178 136.542c.872 0 1.395-.637 1.395-1.384 0-.746-.523-1.378-1.395-1.378-.866 0-1.39.632-1.39 1.378 0 .747.524 1.384 1.39 1.384zm0-.616c-.43 0-.67-.354-.67-.768 0-.408.24-.762.67-.762.436 0 .675.354.675.762 0 .414-.24.768-.675.768zM36.047 136.477v-1.902c0-.54-.289-.795-.774-.795-.403 0-.752.24-.904.474-.093-.294-.343-.474-.73-.474-.403 0-.747.25-.861.403v-.338h-.692v2.632h.692V134.7c.103-.142.305-.305.545-.305.283 0 .392.174.392.419v1.662h.697V134.7c.098-.142.3-.305.545-.305.283 0 .392.174.392.419v1.662zM39.013 136.477v-1.7c0-.757-.55-.997-1.155-.997-.414 0-.828.125-1.15.414l.273.485c.218-.202.48-.31.758-.31.348 0 .577.174.577.44v.333c-.174-.207-.48-.322-.834-.322-.419 0-.91.23-.91.85 0 .589.491.872.91.872.344 0 .654-.125.834-.343v.278zm-1.253-.403c-.272 0-.495-.142-.495-.393 0-.25.223-.397.495-.397.224 0 .442.081.556.234v.327c-.114.152-.332.229-.556.229zM40.037 133.562a.414.414 0 00.415-.414.41.41 0 00-.415-.409.408.408 0 00-.408.409c0 .229.185.414.408.414zm.35 2.915v-2.632h-.693v2.632zM43.551 136.477v-1.858c0-.512-.278-.84-.86-.84a1.23 1.23 0 00-.922.404v-.338h-.691v2.632h.691V134.7a.77.77 0 01.6-.305c.294 0 .485.125.485.49v1.59z"/></g><rect ry=".631" y="123.373" x="29.444" height="8.083" width="1.261" opacity=".995" fill="#f7ee61" paint-order="markers fill stroke"/></g><g style="line-height:1.25;-inkscape-font-specification:'Proxima Nova Bold'" aria-label="google.co.uk" font-weight="400" font-size="7.056" font-family="Proxima Nova" letter-spacing="0" word-spacing="0" stroke-width=".265" fill="#ff6fe8"><path style="-inkscape-font-specification:'Proxima Nova'" d="M38.8 22.88c.715 0 1.399-.303 1.399-1.23v-2.88h-.454v.441a1.222 1.222 0 00-.987-.514c-.769 0-1.301.58-1.301 1.52 0 .943.538 1.512 1.301 1.512.412 0 .769-.224.987-.52v.442c0 .617-.46.853-.944.853-.418 0-.709-.109-.95-.393l-.23.327c.35.345.69.442 1.18.442zm.073-1.556c-.593 0-.944-.466-.944-1.108 0-.648.351-1.114.944-1.114.357 0 .708.218.872.466v1.284a1.095 1.095 0 01-.872.472zM42.38 21.766c.89 0 1.446-.69 1.446-1.538 0-.847-.557-1.531-1.446-1.531-.89 0-1.447.684-1.447 1.531 0 .848.557 1.538 1.447 1.538zm0-.406c-.624 0-.969-.533-.969-1.132 0-.593.345-1.126.969-1.126.623 0 .968.533.968 1.126 0 .6-.345 1.132-.968 1.132zM45.844 21.766c.89 0 1.447-.69 1.447-1.538 0-.847-.557-1.531-1.447-1.531s-1.447.684-1.447 1.531c0 .848.557 1.538 1.447 1.538zm0-.406c-.624 0-.969-.533-.969-1.132 0-.593.345-1.126.969-1.126.623 0 .968.533.968 1.126 0 .6-.345 1.132-.968 1.132zM49.205 22.88c.714 0 1.398-.303 1.398-1.23v-2.88h-.454v.441a1.222 1.222 0 00-.986-.514c-.77 0-1.302.58-1.302 1.52 0 .943.539 1.512 1.302 1.512.411 0 .768-.224.986-.52v.442c0 .617-.46.853-.944.853-.418 0-.708-.109-.95-.393l-.23.327c.35.345.69.442 1.18.442zm.073-1.556c-.594 0-.945-.466-.945-1.108 0-.648.351-1.114.945-1.114.357 0 .708.218.871.466v1.284a1.095 1.095 0 01-.871.472zM51.96 21.693v-4.038h-.453v4.038zM54.192 21.766c.472 0 .866-.164 1.162-.454l-.218-.297a1.272 1.272 0 01-.908.375c-.63 0-1.01-.46-1.047-1.01h2.361v-.115c0-.878-.52-1.568-1.404-1.568-.836 0-1.441.684-1.441 1.531 0 .914.623 1.538 1.495 1.538zm.902-1.725h-1.919c.024-.442.333-.969.957-.969.665 0 .956.539.962.969zM56.466 21.754a.336.336 0 00.333-.333.336.336 0 00-.333-.333.336.336 0 00-.333.333c0 .181.152.333.333.333zM58.861 21.766c.533 0 .848-.218 1.072-.509l-.303-.278a.882.882 0 01-.744.381c-.618 0-1.011-.484-1.011-1.132 0-.648.393-1.126 1.01-1.126.303 0 .552.11.745.376l.303-.273c-.224-.29-.539-.508-1.072-.508-.871 0-1.458.666-1.458 1.531 0 .866.587 1.538 1.458 1.538zM61.852 21.766c.89 0 1.447-.69 1.447-1.538 0-.847-.557-1.531-1.447-1.531s-1.446.684-1.446 1.531c0 .848.557 1.538 1.446 1.538zm0-.406c-.623 0-.968-.533-.968-1.132 0-.593.345-1.126.968-1.126.624 0 .97.533.97 1.126 0 .6-.346 1.132-.97 1.132zM64.234 21.754a.336.336 0 00.333-.333.336.336 0 00-.333-.333.336.336 0 00-.333.333c0 .181.152.333.333.333zM67.815 21.693V18.77h-.454v2.15c-.17.235-.509.441-.86.441-.4 0-.66-.151-.66-.666V18.77h-.454v2.065c0 .63.321.932.933.932.435 0 .817-.23 1.04-.484v.411zM71.294 21.693l-1.301-1.598 1.295-1.326h-.575l-1.538 1.556v-2.67h-.454v4.038h.454v-.835l.49-.478 1.048 1.313z"/></g><g transform="translate(-2.827 -99.893)"><rect ry="3.892" y="100.751" x="39.002" height="7.831" width="38.441" opacity=".995" fill="none" stroke="#ff6fe8" stroke-width="1.716" stroke-dashoffset="56.693" paint-order="markers fill stroke"/><g style="line-height:1.25;-inkscape-font-specification:'Proxima Nova Bold'" aria-label="domain name" font-weight="700" font-size="6.35" font-family="Proxima Nova" letter-spacing="0" word-spacing="0" fill="#1c1b22" fill-opacity=".996" stroke-width=".265"><path d="M44.492 106.268v-3.634h-.697v1.34a.998.998 0 00-.812-.403c-.67 0-1.166.523-1.166 1.379 0 .882.507 1.384 1.166 1.384.321 0 .605-.142.812-.404v.338zm-1.291-.55c-.398 0-.67-.31-.67-.768 0-.452.272-.763.67-.763.229 0 .48.125.594.3v.931c-.115.175-.365.3-.594.3zM46.399 106.334c.871 0 1.394-.638 1.394-1.384 0-.747-.523-1.379-1.394-1.379-.867 0-1.39.632-1.39 1.379 0 .746.523 1.384 1.39 1.384zm0-.616c-.43 0-.67-.354-.67-.768 0-.409.24-.763.67-.763.435 0 .675.354.675.763 0 .414-.24.768-.675.768zM52.267 106.268v-1.901c0-.54-.288-.796-.773-.796-.403 0-.752.24-.905.474-.092-.294-.343-.474-.73-.474-.403 0-.746.251-.86.404v-.338h-.692v2.631h.692v-1.776c.103-.141.305-.305.544-.305.284 0 .393.174.393.42v1.661h.697v-1.776c.098-.141.3-.305.545-.305.283 0 .392.174.392.42v1.661zM55.234 106.268v-1.7c0-.757-.55-.997-1.155-.997-.414 0-.828.126-1.15.415l.273.484c.218-.201.48-.31.757-.31.349 0 .578.174.578.441v.332c-.175-.207-.48-.321-.834-.321-.42 0-.91.229-.91.85 0 .588.49.872.91.872.343 0 .654-.126.834-.344v.278zm-1.253-.403c-.272 0-.496-.142-.496-.392s.224-.398.496-.398c.223 0 .441.082.556.234v.327c-.115.153-.333.23-.556.23zM56.258 103.354a.414.414 0 00.414-.415.41.41 0 00-.414-.408.408.408 0 00-.408.408c0 .23.185.415.408.415zm.349 2.914v-2.631h-.692v2.631zM59.772 106.268v-1.858c0-.512-.278-.839-.861-.839a1.23 1.23 0 00-.92.404v-.338h-.693v2.631h.692v-1.776a.77.77 0 01.6-.305c.294 0 .484.125.484.49v1.591zM64.326 106.268v-1.858c0-.512-.278-.839-.86-.839a1.23 1.23 0 00-.922.404v-.338h-.691v2.631h.691v-1.776a.77.77 0 01.6-.305c.294 0 .485.125.485.49v1.591zM67.28 106.268v-1.7c0-.757-.55-.997-1.155-.997-.414 0-.829.126-1.15.415l.272.484c.218-.201.48-.31.758-.31.348 0 .577.174.577.441v.332c-.174-.207-.48-.321-.833-.321-.42 0-.91.229-.91.85 0 .588.49.872.91.872.343 0 .653-.126.833-.344v.278zm-1.253-.403c-.273 0-.496-.142-.496-.392s.223-.398.496-.398c.223 0 .44.082.555.234v.327c-.114.153-.332.23-.555.23zM71.921 106.268v-1.901c0-.54-.288-.796-.773-.796-.404 0-.752.24-.905.474-.092-.294-.343-.474-.73-.474-.403 0-.746.251-.86.404v-.338h-.693v2.631h.692v-1.776c.104-.141.305-.305.545-.305.284 0 .392.174.392.42v1.661h.698v-1.776c.098-.141.3-.305.545-.305.283 0 .392.174.392.42v1.661zM73.847 106.334c.409 0 .823-.126 1.084-.365l-.31-.458c-.169.163-.474.256-.697.256-.447 0-.709-.267-.758-.588h1.956v-.164c0-.855-.528-1.444-1.318-1.444-.796 0-1.362.616-1.362 1.379 0 .844.604 1.384 1.405 1.384zm.61-1.635h-1.296a.607.607 0 01.643-.56c.457 0 .632.31.653.56z"/></g><rect width="1.261" height="8.083" x="57.879" y="108.372" ry=".631" opacity=".995" fill="#ff6fe8" paint-order="markers fill stroke"/></g><g style="line-height:1.25;-inkscape-font-specification:'Proxima Nova Bold'" aria-label=":80" font-weight="400" font-size="7.056" font-family="Proxima Nova" letter-spacing="0" word-spacing="0" stroke-width=".265" fill="#1dce01"><path style="-inkscape-font-specification:'Proxima Nova'" d="M72.373 19.393a.34.34 0 00.333-.333.336.336 0 00-.333-.333.336.336 0 00-.333.333.34.34 0 00.333.333zm0 2.36a.336.336 0 00.333-.332.336.336 0 00-.333-.333.336.336 0 00-.333.333c0 .181.152.333.333.333zM74.798 21.766c.794 0 1.447-.412 1.447-1.096 0-.539-.46-.908-.962-1.06.466-.132.902-.441.902-.968 0-.726-.72-1.047-1.387-1.047-.671 0-1.38.32-1.38 1.047 0 .527.43.836.896.969-.502.151-.962.52-.962 1.06 0 .69.647 1.095 1.446 1.095zm0-2.361c-.242-.042-.871-.206-.871-.696 0-.418.381-.666.871-.666.485 0 .878.248.878.666 0 .49-.63.654-.878.696zm0 1.913c-.502 0-.938-.267-.938-.702 0-.527.69-.751.938-.781.249.03.939.254.939.78 0 .436-.442.703-.939.703zM78.413 21.766c1.101 0 1.543-1.108 1.543-2.089 0-.986-.442-2.082-1.543-2.082-1.108 0-1.544 1.096-1.544 2.082 0 .981.436 2.089 1.544 2.089zm0-.448c-.77 0-1.03-.836-1.03-1.64 0-.806.26-1.635 1.03-1.635.768 0 1.029.83 1.029 1.634 0 .805-.26 1.64-1.03 1.64z"/></g><g transform="translate(-2.827 -99.893)"><rect ry="3.567" y="130.858" x="70.323" height="7.888" width="17.957" rx="3.567" opacity=".995" fill="none" stroke="#1dce01" stroke-width="1.716" stroke-dashoffset="56.693" paint-order="markers fill stroke"/><g style="line-height:1.25;-inkscape-font-specification:'Proxima Nova Bold'" aria-label="port" font-weight="700" font-size="6.35" font-family="Proxima Nova" letter-spacing="0" word-spacing="0" fill="#1c1b22" fill-opacity=".996" stroke-width=".265"><path d="M75.897 136.437c.676 0 1.166-.507 1.166-1.384 0-.877-.49-1.378-1.166-1.378-.321 0-.61.141-.812.397v-.332h-.692v3.634h.692v-1.34c.218.272.501.403.812.403zm-.218-.616a.78.78 0 01-.594-.305v-.926c.12-.175.37-.3.594-.3.398 0 .67.31.67.763 0 .458-.272.768-.67.768zM78.795 136.437c.872 0 1.395-.638 1.395-1.384 0-.746-.523-1.378-1.395-1.378-.866 0-1.389.632-1.389 1.378 0 .746.523 1.384 1.39 1.384zm0-.616c-.43 0-.67-.354-.67-.768 0-.409.24-.763.67-.763.436 0 .676.354.676.763 0 .414-.24.768-.676.768zM81.395 136.371v-1.738c.115-.168.42-.3.649-.3.081 0 .141.006.19.017v-.676c-.327 0-.648.191-.839.42v-.354h-.692v2.631zM83.544 136.437c.289 0 .474-.077.577-.17l-.147-.528c-.038.044-.136.082-.24.082-.152 0-.24-.125-.24-.294v-1.182h.535v-.605h-.534v-.72h-.692v.72h-.436v.605h.436v1.367c0 .474.256.725.74.725z"/></g><rect width="1.261" height="8.083" x="78.671" y="123.211" ry=".631" opacity=".995" fill="#1dce01" paint-order="markers fill stroke"/></g><g style="line-height:1.25;-inkscape-font-specification:'Proxima Nova Bold'" aria-label="/videoplay" font-weight="400" font-size="7.056" font-family="Proxima Nova" letter-spacing="0" word-spacing="0" stroke-width=".265" fill="#39ffe8"><path style="-inkscape-font-specification:'Proxima Nova'" d="M80.726 21.652l1.434-4.28h-.357l-1.435 4.28zM83.897 21.531l1.217-2.924h-.49l-.975 2.397-.969-2.397h-.496l1.216 2.924zM85.817 18.19a.3.3 0 00.303-.303.305.305 0 00-.303-.309.31.31 0 00-.309.309c0 .17.14.302.31.302zm.224 3.341v-2.924h-.454v2.924zM89.52 21.531v-4.038h-.454v1.556a1.222 1.222 0 00-.987-.514c-.763 0-1.302.599-1.302 1.537 0 .95.54 1.532 1.302 1.532.411 0 .769-.212.987-.509v.436zm-1.326-.333c-.593 0-.944-.478-.944-1.126 0-.648.35-1.132.944-1.132.357 0 .714.218.872.472v1.32c-.158.254-.515.466-.872.466zM91.749 21.604c.472 0 .865-.164 1.162-.454l-.218-.297a1.272 1.272 0 01-.908.375c-.63 0-1.011-.46-1.047-1.01h2.36v-.116c0-.877-.52-1.567-1.404-1.567-.835 0-1.44.684-1.44 1.531 0 .914.623 1.538 1.495 1.538zm.902-1.726h-1.92c.025-.442.334-.968.957-.968.666 0 .957.539.963.968zM95.105 21.604c.89 0 1.447-.69 1.447-1.538 0-.847-.557-1.531-1.447-1.531s-1.447.684-1.447 1.531c0 .848.557 1.538 1.447 1.538zm0-.406c-.623 0-.968-.533-.968-1.132 0-.593.345-1.126.968-1.126.624 0 .969.533.969 1.126 0 .6-.345 1.132-.969 1.132zM98.733 21.604c.769 0 1.301-.594 1.301-1.538 0-.95-.532-1.531-1.301-1.531-.412 0-.775.211-.987.508v-.436h-.454v4.038h.454v-1.556c.242.32.587.515.987.515zm-.115-.406c-.357 0-.714-.218-.872-.472v-1.32c.158-.254.515-.466.872-.466.587 0 .938.478.938 1.126 0 .648-.35 1.132-.938 1.132zM101.21 21.531v-4.038h-.454v4.038zM104.398 21.531v-2.01c0-.708-.508-.986-1.132-.986-.478 0-.853.157-1.168.484l.212.315c.26-.285.545-.406.896-.406.423 0 .738.224.738.611v.527c-.236-.266-.569-.393-.968-.393-.497 0-1.017.302-1.017.962 0 .636.526.969 1.017.969.393 0 .732-.14.968-.406v.333zm-1.253-.254c-.43 0-.726-.267-.726-.642 0-.37.296-.636.726-.636.315 0 .624.122.8.358v.557c-.176.242-.485.363-.8.363zM105.151 22.675c.079.024.23.043.327.043.387-.006.684-.17.86-.594l1.464-3.517h-.49l-.975 2.397-.968-2.397h-.496l1.222 2.954-.193.442c-.103.242-.236.309-.436.309a.698.698 0 01-.248-.048z"/></g><g transform="translate(-2.827 -99.893)"><path d="M94.167 100.8h10.708a3.883 3.883 0 013.892 3.892v.162a3.883 3.883 0 01-3.892 3.891H94.167a3.883 3.883 0 01-3.892-3.891v-.162a3.883 3.883 0 013.892-3.892z" opacity=".995" fill="none" stroke="#39ffe8" stroke-width="1.716" stroke-dashoffset="56.693" paint-order="markers fill stroke"/><g style="line-height:1.25;-inkscape-font-specification:'Proxima Nova Bold'" aria-label="path" font-weight="700" font-size="6.35" font-family="Proxima Nova" letter-spacing="0" word-spacing="0" fill="#1c1b22" fill-opacity=".996" stroke-width=".265"><path d="M96.127 106.154c.675 0 1.166-.507 1.166-1.384 0-.877-.49-1.379-1.166-1.379-.322 0-.61.142-.812.398v-.332h-.692v3.634h.692v-1.34c.218.272.501.403.812.403zm-.218-.616a.78.78 0 01-.594-.305v-.926c.12-.175.37-.3.594-.3.397 0 .67.31.67.763 0 .458-.273.768-.67.768zM100.082 106.088v-1.7c0-.757-.55-.997-1.155-.997-.414 0-.828.126-1.15.415l.273.484c.218-.201.48-.31.757-.31.349 0 .578.174.578.441v.333c-.175-.208-.48-.322-.834-.322-.42 0-.91.229-.91.85 0 .588.49.872.91.872.343 0 .654-.126.834-.344v.278zm-1.253-.403c-.273 0-.496-.141-.496-.392 0-.25.223-.398.496-.398.223 0 .441.082.556.234v.327c-.115.153-.333.23-.556.23zM101.645 106.154c.29 0 .474-.077.578-.17l-.147-.528c-.038.044-.136.082-.24.082-.152 0-.24-.125-.24-.294v-1.182h.534v-.605h-.534v-.72h-.692v.72h-.435v.605h.435v1.367c0 .474.256.725.741.725zM105.077 106.088v-1.868c0-.513-.278-.829-.855-.829-.43 0-.752.208-.921.404v-1.34h-.697v3.633h.697v-1.776a.76.76 0 01.6-.305c.294 0 .484.115.484.48v1.601z"/></g><rect width="1.261" height="8.083" x="98.718" y="107.967" ry=".631" opacity=".995" fill="#39ffe8" paint-order="markers fill stroke"/></g><g style="line-height:1.25;-inkscape-font-specification:'Proxima Nova Bold'"><path style="-inkscape-font-specification:'Proxima Nova'" d="M109.292 20.411l.37-.163a.375.375 0 01-.158-.29c0-.594 1.168-.673 1.168-1.587 0-.52-.448-.938-1.186-.938-.575 0-1.023.236-1.314.617l.303.327c.224-.303.508-.496.968-.496.473 0 .709.26.709.563 0 .641-1.09.702-1.09 1.47 0 .188.067.358.23.497zm.127 1.18a.336.336 0 00.333-.332.336.336 0 00-.333-.333.336.336 0 00-.333.333c0 .181.152.333.333.333z" font-weight="400" font-size="7.056" fill="#ff5726" aria-label="?" font-family="Proxima Nova" letter-spacing="0" word-spacing="0" stroke-width=".265"/></g><g transform="translate(-2.827 -99.893)"><rect rx="3.567" width="21.168" height="7.888" x="102.065" y="130.665" ry="3.567" opacity=".995" fill="none" stroke="#ff5726" stroke-width="1.716" stroke-dashoffset="56.693" paint-order="markers fill stroke"/><g style="line-height:1.25;-inkscape-font-specification:'Proxima Nova Bold'" aria-label="query" font-weight="700" font-size="6.35" font-family="Proxima Nova" letter-spacing="0" word-spacing="0" fill="#1c1b22" fill-opacity=".996" stroke-width=".265"><path d="M107.014 135.399c-.392 0-.664-.31-.664-.768 0-.453.272-.763.664-.763.23 0 .48.125.594.3v.926a.771.771 0 01-.594.305zm-.218.615c.316 0 .6-.13.812-.403v1.34h.698v-3.633h-.698v.332a1.017 1.017 0 00-.812-.398c-.67 0-1.16.501-1.16 1.379 0 .877.49 1.383 1.16 1.383zM111.46 135.95v-2.632h-.692v1.781a.775.775 0 01-.6.3c-.293 0-.484-.12-.484-.485v-1.596h-.692v1.868c0 .512.272.828.85.828.43 0 .746-.201.926-.397v.332zM113.378 136.014c.409 0 .823-.125 1.085-.365l-.31-.457c-.17.163-.475.256-.698.256-.447 0-.709-.267-.758-.589h1.956v-.163c0-.855-.528-1.444-1.318-1.444-.796 0-1.362.616-1.362 1.379 0 .844.605 1.383 1.405 1.383zm.61-1.634h-1.296a.607.607 0 01.643-.561c.457 0 .632.31.654.561zM115.845 135.95v-1.739c.114-.169.42-.3.648-.3.082 0 .142.006.191.017v-.676c-.327 0-.648.19-.839.42v-.354h-.692v2.631zM117.024 136.973c.082.028.261.044.338.044.452-.01.8-.142.997-.637l1.236-3.062h-.74l-.692 1.83-.687-1.83h-.74l1.067 2.664-.098.229c-.066.141-.185.19-.365.19a.597.597 0 01-.218-.043z"/></g><rect ry=".631" y="123.472" x="111.904" height="8.083" width="1.261" opacity=".995" fill="#ff5726" paint-order="markers fill stroke"/></g><g style="line-height:1.25;-inkscape-font-specification:'Proxima Nova Bold'" aria-label="docid=-72078230&amp;hl=en" font-weight="400" font-size="7.056" font-family="Proxima Nova" letter-spacing="0" word-spacing="0" stroke-width=".265" fill="silver"><path style="-inkscape-font-specification:'Proxima Nova'" d="M114.722 21.531v-4.038h-.454v1.556a1.222 1.222 0 00-.987-.514c-.762 0-1.301.599-1.301 1.537 0 .95.539 1.532 1.301 1.532.412 0 .77-.212.987-.509v.436zm-1.326-.333c-.593 0-.944-.478-.944-1.126 0-.648.351-1.132.944-1.132.358 0 .715.218.872.472v1.32c-.157.254-.514.466-.872.466zM116.903 21.604c.89 0 1.446-.69 1.446-1.538 0-.847-.556-1.531-1.446-1.531-.89 0-1.447.684-1.447 1.531 0 .848.557 1.538 1.447 1.538zm0-.406c-.624 0-.969-.533-.969-1.132 0-.593.345-1.126.969-1.126.623 0 .968.533.968 1.126 0 .6-.345 1.132-.968 1.132zM120.379 21.604c.533 0 .847-.218 1.071-.509l-.302-.278a.882.882 0 01-.745.381c-.617 0-1.01-.484-1.01-1.132 0-.648.393-1.126 1.01-1.126.303 0 .551.11.745.375l.302-.272c-.224-.29-.538-.508-1.071-.508-.872 0-1.459.665-1.459 1.531 0 .866.587 1.538 1.459 1.538zM122.323 18.19a.3.3 0 00.302-.303.305.305 0 00-.302-.309.31.31 0 00-.309.309c0 .17.14.302.309.302zm.224 3.341v-2.924h-.454v2.924zM126.025 21.531v-4.038h-.454v1.556a1.222 1.222 0 00-.987-.514c-.762 0-1.301.599-1.301 1.537 0 .95.539 1.532 1.301 1.532.412 0 .77-.212.987-.509v.436zm-1.326-.333c-.593 0-.944-.478-.944-1.126 0-.648.351-1.132.944-1.132.358 0 .715.218.872.472v1.32c-.157.254-.514.466-.872.466zM129.32 19.085v-.32h-2.67v.32zm0 1.169v-.321h-2.67v.32zM131.124 20.266v-.4h-1.453v.4zM132.6 21.531l1.652-3.693v-.345h-2.754v.448h2.173l-1.628 3.59zM137.53 21.531v-.448h-1.979c1.126-.89 1.962-1.64 1.962-2.464 0-.805-.684-1.186-1.356-1.186-.57 0-1.096.224-1.405.635l.31.321c.235-.302.61-.508 1.095-.508.417 0 .847.218.847.738 0 .696-.793 1.368-2.246 2.506v.406zM139.843 21.604c1.101 0 1.543-1.108 1.543-2.089 0-.987-.442-2.082-1.543-2.082-1.108 0-1.544 1.095-1.544 2.082 0 .98.436 2.089 1.544 2.089zm0-.448c-.77 0-1.03-.836-1.03-1.64 0-.806.26-1.635 1.03-1.635.768 0 1.029.83 1.029 1.634 0 .805-.26 1.64-1.03 1.64zM142.98 21.531l1.653-3.693v-.345h-2.754v.448h2.173l-1.629 3.59zM146.574 21.604c.793 0 1.447-.412 1.447-1.096 0-.539-.46-.908-.963-1.06.466-.133.902-.441.902-.968 0-.726-.72-1.047-1.386-1.047-.672 0-1.38.32-1.38 1.047 0 .527.43.835.896.969-.503.15-.963.52-.963 1.059 0 .69.648 1.096 1.447 1.096zm0-2.361c-.242-.043-.872-.206-.872-.696 0-.418.382-.666.872-.666.484 0 .878.248.878.666 0 .49-.63.653-.878.696zm0 1.913c-.503 0-.938-.267-.938-.703 0-.526.69-.75.938-.78.248.03.938.254.938.78 0 .436-.442.703-.938.703zM151.435 21.531v-.448h-1.98c1.127-.89 1.962-1.64 1.962-2.464 0-.805-.684-1.186-1.356-1.186-.57 0-1.096.224-1.404.635l.308.321c.236-.302.612-.508 1.096-.508.418 0 .847.218.847.738 0 .696-.793 1.368-2.245 2.506v.406zM153.505 21.604c.89 0 1.434-.49 1.434-1.163 0-.653-.569-.962-.932-.998.375-.061.866-.352.866-.939 0-.678-.587-1.071-1.362-1.071-.63 0-1.096.266-1.386.623l.278.315c.297-.32.624-.49 1.065-.49.49 0 .902.242.902.69 0 .466-.43.666-.938.666-.163 0-.351 0-.418-.006v.46c.061-.006.249-.006.418-.006.593 0 1.005.212 1.005.714 0 .46-.357.757-.944.757-.479 0-.89-.218-1.126-.533l-.297.315c.248.363.75.666 1.435.666zM157.117 21.604c1.101 0 1.543-1.108 1.543-2.089 0-.987-.442-2.082-1.543-2.082-1.108 0-1.544 1.095-1.544 2.082 0 .98.436 2.089 1.544 2.089zm0-.448c-.77 0-1.03-.836-1.03-1.64 0-.806.26-1.635 1.03-1.635.768 0 1.029.83 1.029 1.634 0 .805-.26 1.64-1.03 1.64zM162.676 21.531a19.48 19.48 0 01-.787-.763c.242-.339.417-.72.55-1.04l-.387-.176a4.067 4.067 0 01-.436.926c-.157-.17-.315-.345-.478-.54a9.736 9.736 0 01-.472-.574c.514-.267 1.029-.533 1.029-1.138 0-.509-.387-.793-.908-.793-.575 0-1.017.4-1.017.932 0 .285.127.6.309.908-.466.254-.89.575-.89 1.205 0 .744.563 1.126 1.253 1.126.49 0 .866-.2 1.162-.497.164.164.321.321.442.424zm-2.186-.303c-.43 0-.817-.278-.817-.78 0-.418.26-.666.6-.872.157.23.332.448.502.641.115.14.327.37.557.612-.23.236-.509.4-.842.4zm-.254-2.85c0-.352.254-.594.563-.594.272 0 .478.163.478.46 0 .406-.369.617-.799.83-.139-.237-.242-.485-.242-.697zM165.742 21.531v-2.064c0-.636-.32-.932-.932-.932-.442 0-.841.248-1.041.496v-1.538h-.454v4.038h.454v-2.137c.17-.236.508-.454.86-.454.399 0 .66.145.66.666v1.925zM167.109 21.531v-4.038h-.454v4.038zM170.406 19.085v-.32h-2.67v.32zm0 1.169v-.321h-2.67v.32zM172.355 21.604c.472 0 .866-.164 1.162-.454l-.218-.297a1.272 1.272 0 01-.908.375c-.63 0-1.01-.46-1.047-1.01h2.361v-.116c0-.877-.52-1.567-1.404-1.567-.836 0-1.441.684-1.441 1.531 0 .914.623 1.538 1.495 1.538zm.902-1.726h-1.919c.024-.442.333-.968.956-.968.666 0 .957.539.963.968zM176.862 21.531v-2.052c0-.636-.321-.944-.926-.944a1.43 1.43 0 00-1.048.496v-.424h-.454v2.924h.454v-2.137c.176-.236.509-.454.866-.454.394 0 .66.157.66.678v1.913z"/></g><g transform="translate(-2.827 -99.893)"><rect width="34.084" height="7.831" x="134.797" y="100.836" ry="3.892" opacity=".995" fill="none" stroke="silver" stroke-width="1.716" stroke-dashoffset="56.693" paint-order="markers fill stroke"/><g style="line-height:1.25;-inkscape-font-specification:'Proxima Nova Bold'" aria-label="parameters" font-weight="700" font-size="6.35" font-family="Proxima Nova" letter-spacing="0" word-spacing="0" fill="#1c1b22" fill-opacity=".996" stroke-width=".265"><path d="M139.112 106.19c.676 0 1.166-.507 1.166-1.384 0-.877-.49-1.379-1.166-1.379-.321 0-.61.142-.811.398v-.332h-.692v3.634h.692v-1.34c.217.272.5.403.811.403zm-.218-.616a.78.78 0 01-.593-.305v-.926c.12-.175.37-.3.593-.3.398 0 .67.31.67.763 0 .457-.272.768-.67.768zM143.068 106.124v-1.7c0-.757-.55-.997-1.155-.997-.414 0-.829.126-1.15.415l.272.484c.218-.201.48-.31.758-.31.348 0 .577.174.577.441v.332c-.174-.207-.48-.32-.833-.32-.42 0-.91.228-.91.849 0 .588.49.872.91.872.343 0 .653-.126.833-.344v.278zm-1.253-.403c-.273 0-.496-.142-.496-.392s.223-.398.496-.398c.223 0 .44.082.555.234v.327c-.114.153-.332.23-.555.23zM144.44 106.124v-1.738c.115-.169.42-.3.649-.3.081 0 .141.006.19.017v-.676c-.326 0-.648.191-.839.42v-.354h-.692v2.631zM147.984 106.124v-1.7c0-.757-.55-.997-1.155-.997-.414 0-.828.126-1.15.415l.273.484c.217-.201.479-.31.757-.31.349 0 .577.174.577.441v.332c-.174-.207-.48-.32-.833-.32-.42 0-.91.228-.91.849 0 .588.49.872.91.872.343 0 .654-.126.833-.344v.278zm-1.253-.403c-.273 0-.496-.142-.496-.392s.223-.398.496-.398c.223 0 .441.082.555.234v.327c-.114.153-.332.23-.555.23zM152.625 106.124v-1.901c0-.54-.288-.796-.773-.796-.403 0-.752.24-.905.474-.092-.294-.343-.474-.73-.474-.403 0-.746.251-.86.404v-.338h-.692v2.631h.692v-1.776c.103-.141.305-.305.544-.305.284 0 .393.174.393.42v1.661h.697v-1.776c.098-.141.3-.305.545-.305.283 0 .392.174.392.42v1.661zM154.551 106.19c.409 0 .823-.126 1.085-.365l-.31-.458c-.17.163-.475.256-.698.256-.447 0-.709-.267-.758-.588h1.956v-.164c0-.855-.528-1.444-1.318-1.444-.796 0-1.362.616-1.362 1.379 0 .844.605 1.384 1.405 1.384zm.61-1.635h-1.296a.607.607 0 01.643-.56c.457 0 .632.31.654.56zM157.209 106.19c.288 0 .474-.077.577-.17l-.147-.528c-.038.044-.136.082-.24.082-.152 0-.24-.125-.24-.294v-1.182h.535v-.605h-.534v-.72h-.692v.72h-.436v.605h.436v1.367c0 .474.256.725.74.725zM159.404 106.19c.408 0 .822-.126 1.084-.365l-.31-.458c-.17.163-.475.256-.698.256-.447 0-.708-.267-.757-.588h1.956v-.164c0-.855-.529-1.444-1.319-1.444-.795 0-1.362.616-1.362 1.379 0 .844.605 1.384 1.406 1.384zm.61-1.635h-1.297a.607.607 0 01.643-.56c.458 0 .632.31.654.56zM161.87 106.124v-1.738c.115-.169.42-.3.649-.3.081 0 .141.006.19.017v-.676c-.327 0-.648.191-.839.42v-.354h-.692v2.631zM164.084 106.19c.73 0 1.144-.354 1.144-.84 0-1.062-1.563-.735-1.563-1.122 0-.147.163-.256.414-.256.321 0 .62.142.779.305l.278-.49a1.676 1.676 0 00-1.057-.36c-.698 0-1.079.387-1.079.829 0 1.035 1.558.68 1.558 1.111 0 .163-.141.278-.441.278-.327 0-.714-.18-.91-.365l-.3.501c.278.256.72.409 1.177.409z"/></g><rect ry=".631" y="108.003" x="150.95" height="8.083" width="1.261" opacity=".995" fill="silver" paint-order="markers fill stroke"/></g><g font-family="Proxima Nova" letter-spacing="0" word-spacing="0" stroke-width=".265"><g style="line-height:1.25;-inkscape-font-specification:'Proxima Nova Bold'" aria-label="#00h02m30s" font-weight="400" font-size="7.056" fill="#405dff"><path style="-inkscape-font-specification:'Proxima Nova'" d="M179.343 21.531l.364-1.096h.684l.097-.32h-.672l.405-1.205h.66l.09-.315h-.647l.37-1.102h-.37l-.363 1.102h-.666l.363-1.102h-.375l-.363 1.102h-.666l-.097.315h.654l-.4 1.204h-.647l-.103.321h.641l-.369 1.096h.375l.364-1.096h.671l-.369 1.096zm.103-1.417h-.665l.405-1.204h.666zM182.962 21.604c1.102 0 1.544-1.108 1.544-2.089 0-.987-.442-2.082-1.544-2.082-1.108 0-1.543 1.095-1.543 2.082 0 .98.435 2.089 1.543 2.089zm0-.448c-.769 0-1.029-.836-1.029-1.64 0-.806.26-1.635 1.03-1.635.768 0 1.028.83 1.028 1.634 0 .805-.26 1.64-1.029 1.64zM186.663 21.604c1.102 0 1.544-1.108 1.544-2.089 0-.987-.442-2.082-1.544-2.082-1.108 0-1.544 1.095-1.544 2.082 0 .98.436 2.089 1.544 2.089zm0-.448c-.769 0-1.03-.836-1.03-1.64 0-.806.261-1.635 1.03-1.635s1.03.83 1.03 1.634c0 .805-.261 1.64-1.03 1.64zM191.399 21.531v-2.064c0-.636-.321-.932-.932-.932-.442 0-.842.248-1.042.496v-1.538h-.454v4.038h.454v-2.137c.17-.236.509-.454.86-.454.4 0 .66.145.66.666v1.925zM193.71 21.604c1.101 0 1.543-1.108 1.543-2.089 0-.987-.442-2.082-1.543-2.082-1.108 0-1.544 1.095-1.544 2.082 0 .98.436 2.089 1.544 2.089zm0-.448c-.77 0-1.03-.836-1.03-1.64 0-.806.26-1.635 1.03-1.635.768 0 1.029.83 1.029 1.634 0 .805-.26 1.64-1.03 1.64zM198.657 21.531v-.448h-1.98c1.127-.89 1.962-1.64 1.962-2.464 0-.805-.684-1.186-1.356-1.186-.569 0-1.095.224-1.404.635l.309.321c.236-.302.61-.508 1.095-.508.418 0 .848.218.848.738 0 .696-.793 1.368-2.246 2.506v.406zM203.554 21.531v-2.113c0-.587-.285-.883-.817-.883-.424 0-.817.278-.98.544-.086-.302-.34-.544-.782-.544-.436 0-.823.308-.95.496v-.424h-.454v2.924h.454v-2.137c.157-.236.472-.454.769-.454.387 0 .538.236.538.605v1.986h.454v-2.143c.152-.236.473-.448.775-.448.382 0 .539.236.539.605v1.986zM205.622 21.604c.89 0 1.435-.49 1.435-1.163 0-.653-.57-.962-.933-.998.376-.061.866-.352.866-.939 0-.678-.587-1.071-1.362-1.071-.63 0-1.096.266-1.386.623l.278.315c.297-.32.624-.49 1.066-.49.49 0 .902.242.902.69 0 .466-.43.666-.939.666-.163 0-.35 0-.417-.006v.46c.06-.006.248-.006.417-.006.593 0 1.005.212 1.005.714 0 .46-.357.757-.944.757-.478 0-.89-.218-1.126-.533l-.297.315c.248.363.75.666 1.435.666zM209.234 21.604c1.101 0 1.543-1.108 1.543-2.089 0-.987-.442-2.082-1.543-2.082-1.108 0-1.544 1.095-1.544 2.082 0 .98.436 2.089 1.544 2.089zm0-.448c-.77 0-1.03-.836-1.03-1.64 0-.806.26-1.635 1.03-1.635.768 0 1.029.83 1.029 1.634 0 .805-.26 1.64-1.03 1.64zM212.468 21.604c.75 0 1.144-.394 1.144-.884 0-1.138-1.81-.72-1.81-1.356 0-.26.248-.46.648-.46.381 0 .696.157.872.369l.212-.315c-.23-.236-.582-.423-1.084-.423-.696 0-1.084.38-1.084.841 0 1.084 1.81.648 1.81 1.356 0 .29-.248.502-.696.502-.4 0-.769-.193-.962-.417l-.23.327c.296.308.696.46 1.18.46z"/></g><text y="122.842" x="270.206" style="line-height:1.25;-inkscape-font-specification:'Proxima Nova Bold'" font-weight="700" font-size="25.4" transform="translate(-2.827 -99.893)"/></g><g transform="translate(-2.827 -99.893)"><rect ry="3.567" y="130.801" x="182.099" height="7.905" width="29.227" rx="3.567" opacity=".995" fill="none" stroke="#405dff" stroke-width="1.716" stroke-dashoffset="56.693" paint-order="markers fill stroke"/><g style="line-height:1.25;-inkscape-font-specification:'Proxima Nova Bold'" aria-label="fragment" font-weight="700" font-size="6.35" font-family="Proxima Nova" letter-spacing="0" word-spacing="0" fill="#1c1b22" fill-opacity=".996" stroke-width=".265"><path d="M186.565 136.13v-2.027h.534v-.605h-.534v-.109c0-.256.13-.381.326-.381.126 0 .218.038.29.103l.26-.419c-.157-.18-.43-.25-.686-.25-.528 0-.882.353-.882.947v.11h-.436v.604h.436v2.027zM188.184 136.13v-1.738c.114-.17.42-.3.648-.3.082 0 .142.005.19.017v-.676c-.326 0-.648.19-.838.42v-.355h-.692v2.632zM191.727 136.13v-1.7c0-.757-.55-.997-1.155-.997-.414 0-.828.125-1.15.414l.273.485c.218-.202.48-.31.757-.31.349 0 .578.174.578.44v.333c-.175-.207-.48-.321-.834-.321-.42 0-.91.228-.91.85 0 .588.49.871.91.871.343 0 .654-.125.834-.343v.278zm-1.253-.403c-.272 0-.496-.142-.496-.393 0-.25.224-.397.496-.397.223 0 .441.081.556.234v.327c-.115.152-.333.229-.556.229zM193.487 137.198c.648 0 1.422-.246 1.422-1.243v-2.457h-.692v.338a1.008 1.008 0 00-.818-.403c-.664 0-1.16.48-1.16 1.34 0 .877.507 1.335 1.16 1.335.327 0 .61-.147.818-.409v.256c0 .534-.398.676-.73.676-.327 0-.61-.093-.823-.321l-.31.495c.332.29.686.393 1.133.393zm.136-1.7c-.398 0-.67-.273-.67-.725 0-.452.272-.724.67-.724.223 0 .474.125.594.294v.855c-.12.169-.37.3-.594.3zM199.56 136.13v-1.902c0-.539-.288-.795-.773-.795-.403 0-.752.24-.904.474-.093-.294-.343-.474-.73-.474-.403 0-.747.25-.861.403v-.338h-.692v2.632h.692v-1.776c.104-.142.305-.305.545-.305.283 0 .392.174.392.42v1.66h.697v-1.775c.099-.142.3-.305.545-.305.284 0 .393.174.393.42v1.66zM201.487 136.195c.409 0 .823-.125 1.084-.365l-.31-.458c-.17.164-.474.257-.698.257-.447 0-.708-.267-.757-.589h1.956v-.163c0-.856-.529-1.444-1.319-1.444-.795 0-1.362.616-1.362 1.378 0 .845.605 1.384 1.406 1.384zm.61-1.634H200.8a.607.607 0 01.643-.561c.458 0 .632.31.654.56zM205.735 136.13v-1.858c0-.512-.278-.84-.86-.84a1.23 1.23 0 00-.921.404v-.338h-.692v2.632h.692v-1.776a.77.77 0 01.599-.305c.294 0 .485.125.485.49v1.59zM207.294 136.195c.289 0 .474-.076.577-.169l-.147-.528c-.038.043-.136.081-.24.081-.152 0-.24-.125-.24-.294v-1.182h.535v-.605h-.534v-.719h-.692v.72h-.436v.604h.436v1.367c0 .474.256.725.74.725z"/></g><rect width="1.261" height="8.083" x="196.062" y="123.48" ry=".631" opacity=".995" fill="#405dff" paint-order="markers fill stroke"/></g></svg>
