<svg width="1474" height="1168" viewBox="0 0 1474 1168" fill="none" xmlns="http://www.w3.org/2000/svg">
<g clip-path="url(#clip0_943_958)">
<rect width="1474" height="1168" fill="white"/>
<circle cx="734" cy="124" r="102" fill="white" stroke="#007BFF" stroke-width="8"/>
<circle cx="1092" cy="428" r="102" fill="white" stroke="#007BFF" stroke-width="8"/>
<circle cx="253" cy="428" r="102" fill="white" stroke="#007BFF" stroke-width="8"/>
<circle cx="133" cy="734" r="102" fill="white" stroke="#007BFF" stroke-width="8"/>
<circle cx="616" cy="734" r="102" fill="white" stroke="#007BFF" stroke-width="8"/>
<circle cx="1092" cy="734" r="102" fill="white" stroke="#007BFF" stroke-width="8"/>
<circle cx="373" cy="1040" r="102" fill="white" stroke="#007BFF" stroke-width="8"/>
<circle cx="853" cy="1040" r="102" fill="white" stroke="#007BFF" stroke-width="8"/>
<circle cx="373" cy="734" r="102" fill="white" stroke="#007BFF" stroke-width="8"/>
<circle cx="856" cy="734" r="102" fill="white" stroke="#007BFF" stroke-width="8"/>
<circle cx="1332" cy="734" r="102" fill="white" stroke="#007BFF" stroke-width="8"/>
<circle cx="613" cy="1040" r="102" fill="white" stroke="#007BFF" stroke-width="8"/>
<circle cx="1093" cy="1040" r="102" fill="white" stroke="#007BFF" stroke-width="8"/>
<line x1="811.551" y1="186.919" x2="1020.55" y2="359.919" stroke="#007BFF" stroke-width="8"/>
<path d="M645 176.002L336.5 372" stroke="#007BFF" stroke-width="8"/>
<path d="M764 683.5L356.5 437.999" stroke="#007BFF" stroke-width="8"/>
<path d="M535 668.5L329 492.48" stroke="#007BFF" stroke-width="8"/>
<path d="M333.5 639L291 524.5" stroke="#007BFF" stroke-width="8"/>
<path d="M369 939.5L369 837" stroke="#007BFF" stroke-width="8"/>
<path d="M1092.35 631.5L1092.35 529" stroke="#007BFF" stroke-width="8"/>
<path d="M611.348 939.5L611.348 837" stroke="#007BFF" stroke-width="8"/>
<path d="M433.5 958L547.348 812" stroke="#007BFF" stroke-width="8"/>
<path d="M914.156 653L1028 507" stroke="#007BFF" stroke-width="8"/>
<path d="M790.5 958.5L678 816.5" stroke="#007BFF" stroke-width="8"/>
<path d="M1268.51 652L1156.01 510" stroke="#007BFF" stroke-width="8"/>
<path d="M1027.51 959L915.009 817" stroke="#007BFF" stroke-width="8"/>
<path d="M1006.5 983.499L702.009 791.999" stroke="#007BFF" stroke-width="8"/>
<path d="M171.5 637.5L213.962 523" stroke="#007BFF" stroke-width="8"/>
<path d="M702 87H706.23L695.07 54.87H688.23L677.115 87H681.255L684.585 77.145H698.67L702 87ZM690.705 59.01H692.505L697.41 73.455H685.8L690.705 59.01ZM709.764 87H728.079V83.49H721.194V55.5H716.289L709.719 59.955V64.095L716.334 59.64H717.234V83.49H709.764V87Z" fill="#274867"/>
<path d="M319.536 970.87V1003H331.551C341.406 1003 346.401 996.565 346.401 986.935C346.401 977.26 341.406 970.87 331.551 970.87H319.536ZM323.586 999.31V974.56H331.551C339.336 974.56 342.306 980.23 342.306 986.935C342.306 993.64 339.336 999.31 331.551 999.31H323.586ZM351.538 1003H369.853V999.49H362.968V971.5H358.063L351.493 975.955V980.095L358.108 975.64H359.008V999.49H351.538V1003Z" fill="#274867"/>
<path d="M559.278 970.87V1003H571.293C581.148 1003 586.143 996.565 586.143 986.935C586.143 977.26 581.148 970.87 571.293 970.87H559.278ZM563.328 999.31V974.56H571.293C579.078 974.56 582.048 980.23 582.048 986.935C582.048 993.64 579.078 999.31 571.293 999.31H563.328ZM594.97 980.185C595.375 976.225 597.85 974.38 601.405 974.38C605.23 974.38 607.75 976.495 607.75 980.455C607.75 984.19 605.005 986.755 602.845 988.69C601.18 990.22 598.21 992.74 595.69 994.765L591.055 998.545V1003H612.7V999.49H596.815V998.5L604.735 991.84C608.47 988.735 611.71 984.73 611.71 980.455C611.71 974.155 607.39 970.87 601.495 970.87C595.915 970.87 591.37 973.885 591.01 980.185H594.97Z" fill="#274867"/>
<path d="M799.564 970.87V1003H811.579C821.434 1003 826.429 996.565 826.429 986.935C826.429 977.26 821.434 970.87 811.579 970.87H799.564ZM803.614 999.31V974.56H811.579C819.364 974.56 822.334 980.23 822.334 986.935C822.334 993.64 819.364 999.31 811.579 999.31H803.614ZM832.466 971.5V974.92H846.236V975.91L838.541 982.57V986.755C839.261 986.575 840.161 986.485 841.286 986.485C845.921 986.485 848.396 989.05 848.396 993.19C848.396 997.51 845.561 1000.07 841.241 1000.07C837.461 1000.07 834.536 997.78 834.176 994.18H830.216C830.576 999.535 834.851 1003.59 841.241 1003.59C847.676 1003.59 852.356 999.715 852.356 993.19C852.356 987.115 848.396 983.74 842.996 983.605V982.66L850.871 975.91V971.5H832.466Z" fill="#274867"/>
<path d="M1039.1 970.87V1003H1051.11C1060.97 1003 1065.96 996.565 1065.96 986.935C1065.96 977.26 1060.97 970.87 1051.11 970.87H1039.1ZM1043.15 999.31V974.56H1051.11C1058.9 974.56 1061.87 980.23 1061.87 986.935C1061.87 993.64 1058.9 999.31 1051.11 999.31H1043.15ZM1089.64 992.11V971.5H1084.1L1070.2 991.12V995.62H1085.77V1003H1089.64V995.62H1093.96V992.11H1089.64ZM1074.34 992.11V991.12L1084.82 975.955H1085.81V992.11H1074.34Z" fill="#274867"/>
<path d="M220.226 381.54C222.566 380.28 223.736 377.895 223.736 375.015C223.736 370.605 220.271 366.87 213.476 366.87H199.481V399H213.836C221.171 399 224.726 395.085 224.726 389.955C224.726 386.67 222.926 383.79 220.226 382.53V381.54ZM203.531 370.47H213.296C216.536 370.47 219.641 371.73 219.641 375.375C219.641 379.335 216.941 380.505 213.386 380.505H203.531V370.47ZM203.531 395.4V384.06H213.611C217.391 384.06 220.631 385.5 220.631 389.64C220.631 394.095 217.211 395.4 213.566 395.4H203.531ZM229.593 399H247.908V395.49H241.023V367.5H236.118L229.548 371.955V376.095L236.163 371.64H237.063V395.49H229.593V399Z" fill="#274867"/>
<path d="M1056.97 381.54C1059.31 380.28 1060.48 377.895 1060.48 375.015C1060.48 370.605 1057.01 366.87 1050.22 366.87H1036.22V399H1050.58C1057.91 399 1061.47 395.085 1061.47 389.955C1061.47 386.67 1059.67 383.79 1056.97 382.53V381.54ZM1040.27 370.47H1050.04C1053.28 370.47 1056.38 371.73 1056.38 375.375C1056.38 379.335 1053.68 380.505 1050.13 380.505H1040.27V370.47ZM1040.27 395.4V384.06H1050.35C1054.13 384.06 1057.37 385.5 1057.37 389.64C1057.37 394.095 1053.95 395.4 1050.31 395.4H1040.27ZM1070.03 376.185C1070.43 372.225 1072.91 370.38 1076.46 370.38C1080.29 370.38 1082.81 372.495 1082.81 376.455C1082.81 380.19 1080.06 382.755 1077.9 384.69C1076.24 386.22 1073.27 388.74 1070.75 390.765L1066.11 394.545V399H1087.76V395.49H1071.87V394.5L1079.79 387.84C1083.53 384.735 1086.77 380.73 1086.77 376.455C1086.77 370.155 1082.45 366.87 1076.55 366.87C1070.97 366.87 1066.43 369.885 1066.07 376.185H1070.03Z" fill="#274867"/>
<path d="M100.797 690.865C99.7622 694.6 96.8372 696.895 92.3372 696.895C84.8672 696.895 81.5822 690.775 81.5822 683.935C81.5822 677.14 84.9122 670.975 92.3822 670.975C96.8372 670.975 99.2222 672.865 100.437 676.285H104.712C103.407 670.75 98.9072 667.285 92.3822 667.285C82.8422 667.285 77.4872 674.395 77.4872 683.935C77.4872 693.475 82.7522 700.585 92.3372 700.585C99.4022 700.585 103.767 696.58 105.072 690.865H100.797ZM109.967 700H128.282V696.49H121.397V668.5H116.492L109.922 672.955V677.095L116.537 672.64H117.437V696.49H109.967V700Z" fill="#274867"/>
<path d="M341.039 690.865C340.004 694.6 337.079 696.895 332.579 696.895C325.109 696.895 321.824 690.775 321.824 683.935C321.824 677.14 325.154 670.975 332.624 670.975C337.079 670.975 339.464 672.865 340.679 676.285H344.954C343.649 670.75 339.149 667.285 332.624 667.285C323.084 667.285 317.729 674.395 317.729 683.935C317.729 693.475 322.994 700.585 332.579 700.585C339.644 700.585 344.009 696.58 345.314 690.865H341.039ZM353.899 677.185C354.304 673.225 356.779 671.38 360.334 671.38C364.159 671.38 366.679 673.495 366.679 677.455C366.679 681.19 363.934 683.755 361.774 685.69C360.109 687.22 357.139 689.74 354.619 691.765L349.984 695.545V700H371.629V696.49H355.744V695.5L363.664 688.84C367.399 685.735 370.639 681.73 370.639 677.455C370.639 671.155 366.319 667.87 360.424 667.87C354.844 667.87 350.299 670.885 349.939 677.185H353.899Z" fill="#274867"/>
<path d="M583.825 690.865C582.79 694.6 579.865 696.895 575.365 696.895C567.895 696.895 564.61 690.775 564.61 683.935C564.61 677.14 567.94 670.975 575.41 670.975C579.865 670.975 582.25 672.865 583.465 676.285H587.74C586.435 670.75 581.935 667.285 575.41 667.285C565.87 667.285 560.515 674.395 560.515 683.935C560.515 693.475 565.78 700.585 575.365 700.585C582.43 700.585 586.795 696.58 588.1 690.865H583.825ZM593.895 668.5V671.92H607.665V672.91L599.97 679.57V683.755C600.69 683.575 601.59 683.485 602.715 683.485C607.35 683.485 609.825 686.05 609.825 690.19C609.825 694.51 606.99 697.075 602.67 697.075C598.89 697.075 595.965 694.78 595.605 691.18H591.645C592.005 696.535 596.28 700.585 602.67 700.585C609.105 700.585 613.785 696.715 613.785 690.19C613.785 684.115 609.825 680.74 604.425 680.605V679.66L612.3 672.91V668.5H593.895Z" fill="#274867"/>
<path d="M823.858 690.865C822.823 694.6 819.898 696.895 815.398 696.895C807.928 696.895 804.643 690.775 804.643 683.935C804.643 677.14 807.973 670.975 815.443 670.975C819.898 670.975 822.283 672.865 823.498 676.285H827.773C826.468 670.75 821.968 667.285 815.443 667.285C805.903 667.285 800.548 674.395 800.548 683.935C800.548 693.475 805.813 700.585 815.398 700.585C822.463 700.585 826.828 696.58 828.133 690.865H823.858ZM851.568 689.11V668.5H846.033L832.128 688.12V692.62H847.698V700H851.568V692.62H855.888V689.11H851.568ZM836.268 689.11V688.12L846.753 672.955H847.743V689.11H836.268Z" fill="#274867"/>
<path d="M1060.25 690.865C1059.22 694.6 1056.29 696.895 1051.79 696.895C1044.32 696.895 1041.04 690.775 1041.04 683.935C1041.04 677.14 1044.37 670.975 1051.84 670.975C1056.29 670.975 1058.68 672.865 1059.89 676.285H1064.17C1062.86 670.75 1058.36 667.285 1051.84 667.285C1042.3 667.285 1036.94 674.395 1036.94 683.935C1036.94 693.475 1042.21 700.585 1051.79 700.585C1058.86 700.585 1063.22 696.58 1064.53 690.865H1060.25ZM1081.03 678.805C1078.11 678.805 1076.4 679.705 1074.96 681.01H1073.97L1074.69 671.92H1089.49V668.5H1071.49L1070.1 685.105H1074.06C1075.41 683.125 1077.48 682.135 1080.31 682.135C1084.54 682.135 1087.2 685.195 1087.2 689.515C1087.2 694.195 1084.36 697.075 1080.18 697.075C1076.35 697.075 1073.79 695.095 1073.29 691.18H1069.38C1069.74 696.49 1073.43 700.585 1080.36 700.585C1086.75 700.585 1091.16 696.175 1091.16 689.335C1091.16 683.485 1087.33 678.805 1081.03 678.805Z" fill="#274867"/>
<path d="M1299.8 690.865C1298.76 694.6 1295.84 696.895 1291.34 696.895C1283.87 696.895 1280.58 690.775 1280.58 683.935C1280.58 677.14 1283.91 670.975 1291.38 670.975C1295.84 670.975 1298.22 672.865 1299.44 676.285H1303.71C1302.41 670.75 1297.91 667.285 1291.38 667.285C1281.84 667.285 1276.49 674.395 1276.49 683.935C1276.49 693.475 1281.75 700.585 1291.34 700.585C1298.4 700.585 1302.77 696.58 1304.07 690.865H1299.8ZM1320.98 679.48C1317.2 679.48 1314.68 681.235 1313.6 682.54H1312.61C1312.84 675.655 1315.72 671.38 1320.76 671.38C1323.82 671.38 1325.53 672.73 1326.29 675.385H1330.21C1329.49 671.065 1326.11 667.87 1320.76 667.87C1312.52 667.87 1308.79 675.52 1308.79 685.105C1308.79 696.445 1313.65 700.585 1320.35 700.585C1327.06 700.585 1331.06 695.725 1331.06 689.74C1331.06 683.755 1326.74 679.48 1320.98 679.48ZM1320.31 697.075C1316.48 697.075 1313.38 694.465 1313.38 689.875C1313.38 685.375 1316.44 682.945 1320.22 682.945C1324.04 682.945 1327.1 685.24 1327.1 689.92C1327.1 694.6 1324.13 697.075 1320.31 697.075Z" fill="#274867"/>
</g>
<defs>
<clipPath id="clip0_943_958">
<rect width="1474" height="1168" fill="white"/>
</clipPath>
</defs>
</svg>
